<svg class="fill-current" width="28" height="28" viewBox="0 0 28 28" fill="none" xmlns="http://www.w3.org/2000/svg"><path d="M1.5 15.5H0.5V17.5H1.5V15.5ZM26.5 17.5H27.5V15.5H26.5V17.5ZM10.25 25.5C9.69771 25.5 9.25 25.9477 9.25 26.5C9.25 27.0523 9.69771 27.5 10.25 27.5V25.5ZM17.75 27.5C18.3023 27.5 18.75 27.0523 18.75 26.5C18.75 25.9477 18.3023 25.5 17.75 25.5V27.5ZM15 21.5C15 20.9477 14.5523 20.5 14 20.5C13.4477 20.5 13 20.9477 13 21.5H15ZM5.25 2.5H22.75V0.5H5.25V2.5ZM25.5 5.25V17.75H27.5V5.25H25.5ZM22.75 20.5H5.25V22.5H22.75V20.5ZM2.5 17.75V5.25H0.5V17.75H2.5ZM5.25 20.5C3.73122 20.5 2.5 19.2688 2.5 17.75H0.5C0.5 20.3734 2.62665 22.5 5.25 22.5V20.5ZM25.5 17.75C25.5 19.2688 24.2688 20.5 22.75 20.5V22.5C25.3734 22.5 27.5 20.3734 27.5 17.75H25.5ZM22.75 2.5C24.2688 2.5 25.5 3.73122 25.5 5.25H27.5C27.5 2.62665 25.3734 0.5 22.75 0.5V2.5ZM5.25 0.5C2.62665 0.5 0.5 2.62665 0.5 5.25H2.5C2.5 3.73122 3.73122 2.5 5.25 2.5V0.5ZM1.5 17.5H26.5V15.5H1.5V17.5ZM10.25 27.5H14V25.5H10.25V27.5ZM14 27.5H17.75V25.5H14V27.5ZM15 26.5V21.5H13V26.5H15Z"></path></svg>