<svg width="30" height="30" viewBox="0 0 30 30" fill="none" xmlns="http://www.w3.org/2000/svg"><path d="M2.5 7.75V3.5C2.5 2.94772 2.94772 2.5 3.5 2.5H7.75C8.30228 2.5 8.75 2.94772 8.75 3.5V7.75C8.75 8.30228 8.30228 8.75 7.75 8.75H3.5C2.94772 8.75 2.5 8.30228 2.5 7.75Z" stroke="currentColor" strokeWidth="2" strokeLinecap="round" stroke-linejoin="round"></path><path d="M21.25 7.75V3.5C21.25 2.94772 21.6977 2.5 22.25 2.5H26.5C27.0523 2.5 27.5 2.94772 27.5 3.5V7.75C27.5 8.30228 27.0523 8.75 26.5 8.75H22.25C21.6977 8.75 21.25 8.30228 21.25 7.75Z" stroke="currentColor" strokeWidth="2" strokeLinecap="round" stroke-linejoin="round"></path><path d="M21.25 26.5V22.25C21.25 21.6977 21.6977 21.25 22.25 21.25H26.5C27.0523 21.25 27.5 21.6977 27.5 22.25V26.5C27.5 27.0523 27.0523 27.5 26.5 27.5H22.25C21.6977 27.5 21.25 27.0523 21.25 26.5Z" stroke="currentColor" strokeWidth="2" strokeLinecap="round" stroke-linejoin="round"></path><path d="M2.5 26.5V22.25C2.5 21.6977 2.94772 21.25 3.5 21.25H7.75C8.30228 21.25 8.75 21.6977 8.75 22.25V26.5C8.75 27.0523 8.30228 27.5 7.75 27.5H3.5C2.94772 27.5 2.5 27.0523 2.5 26.5Z" stroke="currentColor" strokeWidth="2" strokeLinecap="round" stroke-linejoin="round"></path><path d="M12.5 16.25H17.5" stroke="currentColor" strokeWidth="2" strokeLinecap="round"></path><path d="M11.25 18.75L15 10L18.75 18.75" stroke="currentColor" strokeWidth="2" strokeLinecap="round" stroke-linejoin="round"></path><path d="M8.75 5.625H21.25M24.375 8.75V21.25M21.25 24.375H8.75M5.625 21.25V8.75" stroke="currentColor" strokeWidth="2" strokeLinecap="round" stroke-linejoin="round"></path></svg>