<svg width="28" height="28" viewBox="0 0 28 28" fill="none" xmlns="http://www.w3.org/2000/svg"><path d="M4 12.75H24M4 12.75C2.61929 12.75 1.5 11.6307 1.5 10.25V9C1.5 7.61929 2.61929 6.5 4 6.5H24C25.3807 6.5 26.5 7.61929 26.5 9V10.25C26.5 11.6307 25.3807 12.75 24 12.75M4 12.75L4 24C4 25.3807 5.11929 26.5 6.5 26.5H21.5C22.8807 26.5 24 25.3807 24 24V12.75M14 6.5H19C20.3807 6.5 21.5 5.38071 21.5 4C21.5 2.61929 20.3807 1.5 19 1.5C16.2386 1.5 14 3.73858 14 6.5ZM14 6.5H9C7.61929 6.5 6.5 5.38071 6.5 4C6.5 2.61929 7.61929 1.5 9 1.5C11.7614 1.5 14 3.73858 14 6.5ZM14 6.5V26.5" stroke="currentColor" strokeWidth="2" strokeLinecap="round"></path></svg>