<?xml version="1.0" encoding="utf-8"?>
<!-- Generator: Adobe Illustrator 28.1.0, SVG Export Plug-In . SVG Version: 6.00 Build 0)  -->
<svg version="1.1" xmlns="http://www.w3.org/2000/svg" xmlns:xlink="http://www.w3.org/1999/xlink" x="0px" y="0px"
	 viewBox="0 0 750 500" style="enable-background:new 0 0 750 500;" xml:space="preserve">
<style type="text/css">
	.st0{fill:#FFFFFF;}
	.st1{fill:none;stroke:#ACB6E8;stroke-width:1.5;stroke-miterlimit:10;}
	.st2{fill:#FFFFFF;stroke:#ACB6E8;stroke-width:1.5;stroke-linejoin:round;stroke-miterlimit:10;}
	.st3{fill:#4A6D6D;}
	.st4{fill:#8668BC;}
	.st5{fill:#EF81C1;}
	.st6{fill:#F98355;}
	.st7{fill:#FFEAC5;}
	.st8{fill:none;stroke:#000000;stroke-miterlimit:10;}
	.st9{fill:#F3F9FF;}
	.st10{opacity:0.1;fill:#4A6D6D;}
	.st11{fill:none;stroke:#FFFFFF;stroke-width:1.5;stroke-linejoin:round;stroke-miterlimit:10;}
	.st12{fill:#FFEFE3;}
	.st13{fill:none;stroke:#C2CAEF;stroke-width:1.5;stroke-linejoin:round;stroke-miterlimit:10;}
	.st14{opacity:0.15;}
	.st15{opacity:0.55;fill:#4A6D6D;}
	.st16{fill:#F4C3AB;}
	.st17{fill:#918F00;}
	.st18{fill:#4C4139;}
	.st19{fill:none;stroke:#70635B;stroke-miterlimit:10;}
	.st20{fill:none;stroke:#F9BD5F;stroke-miterlimit:10;}
	.st21{fill:#F9BD5F;}
	.st22{fill:none;stroke:#000000;stroke-width:0.75;stroke-miterlimit:10;}
	.st23{fill:#F6ABA9;}
	.st24{fill:#FFE1CC;}
	.st25{fill:#19181E;}
	.st26{fill:none;stroke:#3C3A49;stroke-miterlimit:10;}
	.st27{fill:#2C2C3A;}
	.st28{fill:#9FB78D;}
	.st29{fill:none;stroke:#6D875C;stroke-miterlimit:10;}
	.st30{fill:#FFF2C7;}
	.st31{fill:none;stroke:#D1C195;stroke-miterlimit:10;}
	.st32{fill:none;stroke:#D3B88C;stroke-miterlimit:10;}
	.st33{fill:#B7C8EA;}
	.st34{fill:#DFE8FE;}
	.st35{fill:none;stroke:#B7C8EA;stroke-width:1.5;stroke-miterlimit:10;}
	.st36{fill:none;stroke:#7984D1;stroke-width:1.5;stroke-linejoin:round;stroke-miterlimit:10;}
	.st37{fill:none;stroke:#D7EACA;stroke-miterlimit:10;}
	.st38{fill:none;stroke:#6E8467;stroke-width:2;stroke-miterlimit:10;}
	.st39{fill:#9ED1A8;}
	.st40{fill:none;stroke:#6E8467;stroke-miterlimit:10;}
	.st41{fill:none;stroke:#D3B17A;stroke-miterlimit:10;}
	.st42{fill:#F9B7B7;}
	.st43{fill:none;stroke:#4C4139;stroke-miterlimit:10;}
	.st44{fill:#211C28;}
	.st45{fill:#2C2635;}
	.st46{fill:none;stroke:#645B72;stroke-miterlimit:10;}
	.st47{fill:none;stroke:#FFEAC5;stroke-miterlimit:10;}
	.st48{fill:#A2BDFF;}
	.st49{fill:none;stroke:#7699DD;stroke-miterlimit:10;}
	.st50{fill:none;stroke:#FCAD95;stroke-width:2;stroke-miterlimit:10;}
	.st51{fill:none;stroke:#F98355;stroke-width:2;stroke-miterlimit:10;}
	.st52{fill:none;stroke:#000000;stroke-width:1.5;stroke-miterlimit:10;}
</style>
<g id="BACKGROUND">
	<rect class="st0" width="750" height="500"/>
</g>
<g id="OBJECTS">
	<g>
		<g>
			<g>
				<line class="st1" x1="430.85" y1="263.27" x2="393.35" y2="467.96"/>
				<line class="st1" x1="527.7" y1="263.27" x2="565.2" y2="467.96"/>
			</g>
			<rect x="308.88" y="47.69" class="st2" width="340.8" height="213.85"/>
			<rect x="376.87" y="256.99" class="st3" width="204.8" height="9.93"/>
			<rect x="376.87" y="42.72" class="st3" width="204.8" height="9.93"/>
			<g>
				<g>
					
						<rect x="533.24" y="215.2" transform="matrix(0.9842 -0.1773 0.1773 0.9842 -32.8379 98.5884)" class="st4" width="4" height="35.69"/>
				</g>
				<g>
					
						<rect x="527.33" y="234.47" transform="matrix(0.1073 -0.9942 0.9942 0.1073 251.5579 753.111)" class="st5" width="35.69" height="4"/>
				</g>
				<g>
					
						<rect x="536.79" y="230.73" transform="matrix(0.3223 -0.9466 0.9466 0.3223 155.5596 682.7578)" class="st6" width="35.69" height="4"/>
				</g>
				<rect x="525.27" y="240.84" class="st7" width="32.99" height="16.16"/>
				<line class="st8" x1="525.27" y1="245.83" x2="536.3" y2="245.83"/>
				<line class="st8" x1="541.27" y1="245.83" x2="558.25" y2="245.83"/>
			</g>
		</g>
		<g>
			<path class="st9" d="M531.5,218.44h-53.89c-2.42,0-4.39-1.97-4.39-4.39v-23.1c0-2.42,1.97-4.39,4.39-4.39h53.89
				c2.42,0,4.39,1.97,4.39,4.39v23.1C535.89,216.48,533.92,218.44,531.5,218.44z"/>
			<rect x="492.3" y="98.95" class="st9" width="43.77" height="73.9"/>
			<rect x="552.99" y="109.96" class="st9" width="75.38" height="117.05"/>
			<g>
				<rect x="330.77" y="62.82" class="st10" width="128.29" height="167.18"/>
				<path class="st11" d="M342.01,87.94c2.1-1.3,4.2-2.61,6.3-3.91c1.22-0.76,2.68-1.55,4.03-1.03c1.23,0.47,1.88,1.89,3.07,2.45
					c3.33,1.57,5.35-3.01,8.14-3.68c1.13-0.27,1.08,0.61,1.42,1.37c0.25,0.55,0.7,0.87,1.29,0.97c1.05,0.19,2.11-0.31,3.16-0.28
					c7.01,0.18,18.56,0.14,18.56,0.14"/>
				<line class="st11" x1="342.01" y1="94.12" x2="373.16" y2="94.12"/>
				<line class="st11" x1="387.98" y1="94.12" x2="378.55" y2="94.12"/>
				<line class="st11" x1="342.01" y1="102.33" x2="387.98" y2="102.33"/>
				<line class="st11" x1="342.01" y1="107.88" x2="387.98" y2="107.88"/>
				<line class="st11" x1="342.01" y1="117.39" x2="369.17" y2="117.39"/>
				<line class="st11" x1="342.01" y1="124.16" x2="376.71" y2="124.16"/>
				<g>
					<path class="st12" d="M446.16,143.71c0,1.49-1.21,2.69-2.69,2.69c-1.49,0-2.69-1.21-2.69-2.69c0-1.49,1.21-2.69,2.69-2.69
						C444.95,141.01,446.16,142.22,446.16,143.71z"/>
					<line class="st13" x1="435.59" y1="143.71" x2="389.39" y2="143.71"/>
				</g>
				<g>
					<path class="st12" d="M446.16,157.27c0,1.49-1.21,2.69-2.69,2.69c-1.49,0-2.69-1.21-2.69-2.69c0-1.49,1.21-2.69,2.69-2.69
						C444.95,154.58,446.16,155.79,446.16,157.27z"/>
					<line class="st13" x1="435.59" y1="157.27" x2="389.39" y2="157.27"/>
				</g>
				<g>
					<path class="st12" d="M446.16,198.17c0,1.49-1.21,2.69-2.69,2.69c-1.49,0-2.69-1.21-2.69-2.69c0-1.49,1.21-2.69,2.69-2.69
						C444.95,195.47,446.16,196.68,446.16,198.17z"/>
					<line class="st13" x1="435.59" y1="198.17" x2="389.39" y2="198.17"/>
				</g>
				<g>
					<path class="st12" d="M446.16,211.59c0,1.49-1.21,2.69-2.69,2.69c-1.49,0-2.69-1.21-2.69-2.69c0-1.49,1.21-2.69,2.69-2.69
						C444.95,208.9,446.16,210.1,446.16,211.59z"/>
					<line class="st13" x1="435.59" y1="211.59" x2="389.39" y2="211.59"/>
				</g>
				<rect x="342.88" y="138.88" class="st13" width="34.32" height="74.43"/>
			</g>
			<g>
				<rect x="395.62" y="76.9" class="st0" width="87.09" height="47.16"/>
				<rect x="400.99" y="81.72" class="st12" width="76.35" height="38.14"/>
				<polygon class="st0" points="473.82,95.85 466.95,89.44 445.93,104.84 428.88,90.95 400.99,104.84 400.99,119.72 477.34,119.72 
					477.34,93.73 				"/>
				<polyline class="st13" points="449.06,76.9 482.71,76.9 482.71,124.06 416.95,124.06 				"/>
				<path class="st13" d="M409.7,124.1c0,0-14.08,0.04-14.08,0s0-47.2,0-47.2h45.15"/>
				<polyline class="st13" points="478.24,90.02 478.24,119.72 400.99,119.72 				"/>
			</g>
			<g>
				<path class="st13" d="M518.36,224.11h-61.31c-2.33,0-4.22-1.89-4.22-4.22v-13.16c0-2.33,1.89-4.22,4.22-4.22h61.31
					c2.33,0,4.22,1.89,4.22,4.22v13.16C522.58,222.22,520.69,224.11,518.36,224.11z"/>
				<line class="st13" x1="469.52" y1="210.71" x2="469.52" y2="217.55"/>
				<line class="st13" x1="477.34" y1="210.71" x2="477.34" y2="217.55"/>
				<line class="st13" x1="482.97" y1="213.31" x2="512.35" y2="213.31"/>
			</g>
			<g>
				<path class="st13" d="M601.93,87.03h-81.76c-2.18,0-3.95-1.77-3.95-3.95v-13.7c0-2.18,1.77-3.95,3.95-3.95h81.76
					c2.18,0,3.95,1.77,3.95,3.95v13.7C605.88,85.26,604.11,87.03,601.93,87.03z"/>
				<line class="st13" x1="526.09" y1="73.16" x2="532.73" y2="73.16"/>
				<line class="st13" x1="543.12" y1="73.16" x2="597.49" y2="73.16"/>
				<line class="st13" x1="526.09" y1="79.8" x2="571.08" y2="79.8"/>
				<line class="st13" x1="597.49" y1="79.8" x2="578.97" y2="79.8"/>
			</g>
		</g>
	</g>
	<g class="st14">
		<g>
			<circle class="st3" cx="160.65" cy="109.64" r="3.25"/>
			<path class="st3" d="M709.13,307.69c0,1.79-1.45,3.25-3.25,3.25c-1.79,0-3.25-1.45-3.25-3.25c0-1.79,1.45-3.25,3.25-3.25
				C707.68,304.44,709.13,305.9,709.13,307.69z"/>
			<path class="st3" d="M667.02,89.68c0,1.79-1.45,3.25-3.25,3.25c-1.79,0-3.25-1.45-3.25-3.25c0-1.79,1.45-3.25,3.25-3.25
				C665.56,86.44,667.02,87.89,667.02,89.68z"/>
			<path class="st3" d="M519.64,289.45c0,1.79-1.45,3.25-3.25,3.25c-1.79,0-3.25-1.45-3.25-3.25c0-1.79,1.45-3.25,3.25-3.25
				C518.18,286.2,519.64,287.65,519.64,289.45z"/>
			<g>
				<line class="st3" x1="218.78" y1="173.8" x2="218.78" y2="180.74"/>
				<line class="st3" x1="222.25" y1="177.27" x2="215.31" y2="177.27"/>
			</g>
			<g>
				<line class="st3" x1="281.83" y1="65.43" x2="281.83" y2="72.37"/>
				<line class="st3" x1="285.3" y1="68.9" x2="278.36" y2="68.9"/>
			</g>
			<g>
				<line class="st3" x1="688.4" y1="162.04" x2="688.4" y2="168.98"/>
				<line class="st3" x1="691.87" y1="165.51" x2="684.93" y2="165.51"/>
			</g>
			<g>
				<line class="st3" x1="463.77" y1="323.74" x2="463.77" y2="330.69"/>
				<line class="st3" x1="467.24" y1="327.22" x2="460.29" y2="327.22"/>
			</g>
			<path class="st15" d="M665.88,260.67c-18.6,0-33.68,15.08-33.68,33.68h67.36C699.56,275.75,684.48,260.67,665.88,260.67z"/>
			<polygon class="st15" points="117.59,91.79 124.38,83.12 110.11,76.55 			"/>
			<polygon class="st3" points="248.22,142.79 232.89,150.35 248.44,169.13 			"/>
			<polygon class="st3" points="669.83,132.39 686.28,142.83 695.34,116.57 			"/>
			<rect x="204.7" y="87.56" class="st15" width="112.15" height="34.63"/>
			<g>
				
					<ellipse transform="matrix(0.2298 -0.9732 0.9732 0.2298 76.5593 230.6039)" class="st3" cx="183.97" cy="66.93" rx="14.28" ry="14.28"/>
			</g>
			<rect x="519.96" y="304.91" class="st15" width="112.15" height="22.31"/>
			<path class="st3" d="M475.81,344.9c0,10.59,8.59,19.18,19.18,19.18v-38.36C484.4,325.72,475.81,334.3,475.81,344.9z"/>
		</g>
	</g>
	<g>
		<g>
			<g>
				<g>
					<path class="st16" d="M319.29,431.33l1.72,21.39c0,0,35.33,0,35.6,0c0.27,0-2.46-22.86-2.46-22.86"/>
					<g>
						<path class="st17" d="M356.96,447.94h-37.94l-2.99,19.42h63.75C380.39,453.44,361.56,455.97,356.96,447.94z"/>
						<line class="st8" x1="316.58" y1="463.73" x2="379.37" y2="463.73"/>
						<path class="st8" d="M317.88,455.29c0,0,9.99,0.51,13.68,8.44"/>
						<path class="st8" d="M370.02,455.71c0,0-6.06,2.24-8.62,8.02"/>
						<line class="st8" x1="359.4" y1="450.53" x2="353.85" y2="454.91"/>
						<line class="st8" x1="362.81" y1="452.42" x2="357.25" y2="456.8"/>
					</g>
				</g>
				<g>
					<path class="st16" d="M390.11,431.33l4.42,21.39c0,0,35.33,0,35.6,0c0.27,0-5.17-22.86-5.17-22.86"/>
					<g>
						<path class="st17" d="M430.49,447.94h-37.94l-2.99,19.42h63.75C453.92,453.44,435.09,455.97,430.49,447.94z"/>
						<line class="st8" x1="390.11" y1="463.73" x2="452.9" y2="463.73"/>
						<path class="st8" d="M391.41,455.29c0,0,9.99,0.51,13.68,8.44"/>
						<path class="st8" d="M443.55,455.71c0,0-6.06,2.24-8.62,8.02"/>
						<line class="st8" x1="432.93" y1="450.53" x2="427.38" y2="454.91"/>
						<line class="st8" x1="436.33" y1="452.42" x2="430.78" y2="456.8"/>
					</g>
				</g>
				<path class="st18" d="M304.64,235.25c0,0-9.72,28.16-9.65,38.38c0.07,10.22,8.62,62.91,10.4,74.41
					c1.77,11.5,12.1,95.17,12.1,95.17h45.18l-16.82-177.17c0,0,4.3-49.34,4.34-50.62"/>
				<path class="st18" d="M380.59,235.25l1.36,10.42l48.85,197.55h-49.02c0,0-43.86-158.34-46.44-167.97
					c-2.58-9.63,2.23-47.39,2.23-47.39"/>
				<line class="st19" x1="361.01" y1="430.89" x2="315.77" y2="430.89"/>
				<line class="st19" x1="378.36" y1="430.89" x2="427.75" y2="430.89"/>
				<path class="st19" d="M346.88,443.22c0,0-23.6-165.15-23.7-172.32c-0.1-7.17,2.22-26.96,2.22-26.96"/>
				<path class="st19" d="M416.17,443.58c0,0-44.33-194.11-44.33-194.95c0-0.84,0-5.24,0-5.24"/>
				<line class="st8" x1="352.6" y1="337.81" x2="348.81" y2="266.28"/>
				<line class="st8" x1="381.56" y1="242.64" x2="301.97" y2="242.64"/>
				<line class="st8" x1="357.4" y1="242.64" x2="357.4" y2="234.56"/>
				<line class="st8" x1="376.1" y1="242.64" x2="375.02" y2="235.19"/>
				<ellipse cx="353.36" cy="239.06" rx="1.75" ry="1.78"/>
				<line class="st8" x1="341.76" y1="242.64" x2="342.81" y2="234.56"/>
				<line class="st8" x1="318.77" y1="242.64" x2="319.82" y2="234.56"/>
				<path class="st8" d="M319.07,256.99c5.07,1.39,10.06,3.02,14.97,4.88"/>
				<path class="st8" d="M318.15,250.74c2.92,1.66,6.07,2.92,9.32,3.76"/>
				<path class="st8" d="M373.22,255.43c1.87-1.04,3.73-2.07,5.6-3.11"/>
			</g>
			<g>
				<path class="st16" d="M336.9,111.83l-4.12,15.54l-10.18,3.84c0,0,21.32,14.25,28.7,12.34c7.38-1.92,17.76-13.71,17.76-13.71
					s-5.72-2.19-6.41-3.02c-0.69-0.82,0-16.03,0-16.03"/>
				<g>
					<path class="st16" d="M443.8,143.58c4.34-3.26,8.97-6.2,14.03-8.16c2.48-0.96,5.06-1.52,7.7-1.84
						c1.43-0.17,2.88-0.28,4.32-0.38c1.06-0.07,2.12-0.16,3.18-0.26c1.45-0.13,2.66,1.56,1.04,2.39c-2.82,1.44-5.41,1.51-5.47,2.57
						c3.49,0.66,6.94-0.49,10.39-1.31c1.82-0.44,2.88-0.84,5.2-1.47c2.45-0.66,3.83-0.59,4.14,0.55c0.09,0.33-0.68,1.21-0.92,1.45
						c0.96-0.01,1.59-0.39,2.54-0.3c0.44,0.04,0.9,0.11,1.26,0.36c0.37,0.25,0.62,0.72,0.48,1.14c-0.06,0.2-0.2,0.36-0.33,0.51
						c-0.3,0.36-0.6,0.71-0.9,1.07c0.72-0.21,1.37,0.67,1.24,1.41c-0.13,0.74-0.73,1.29-1.29,1.79c-0.49,0.43-0.97,0.85-1.46,1.28
						c0.74-0.34,1.71,0.44,1.55,1.24c-0.06,0.27-0.18,0.53-0.36,0.73c-3.07,3.31-5.49,5.29-8.73,7.15
						c-3.6,2.08-7.38,3.84-11.41,4.91c-6.95,1.85-12.83,3.52-19.6,5.93"/>
					<path class="st8" d="M467.29,139.9c-1.77,1.78-3.9,3.18-6.23,4.1"/>
					<path class="st8" d="M488.98,144.47c-0.97,0-1.75,0.27-2.76,0.71c-1.47,0.64-3.25,1.81-4.77,2.35
						c-5.22,1.85-11.33,0.4-16.24,2.97"/>
					<path class="st8" d="M490.46,139.91c-4.65,2.53-8.39,3.74-13.72,4.09"/>
					<path class="st8" d="M487.4,137.12c-3.88,2.65-9.07,2.93-13.76,3.11"/>
				</g>
				<path class="st3" d="M367.54,129.23c0,0,7.64,1.38,11.76,3.22c7.8,3.48,11.08,7.21,17.17,12.02
					c6.09,4.8,14.37,12.81,14.37,12.81l37.12-17.09l11.21,24.55c0,0-30.07,24.07-37.98,27.33c-5.29,2.18-15.62,4.07-30.02-3.66
					c-14.4-7.73-28.5-21.16-28.5-21.16"/>
				<polygon class="st3" points="389.57,155.94 380.59,235.35 304.64,235.35 300.16,152.43 329.21,126.55 353.89,134.77 
					367.54,129.23 				"/>
				<path class="st20" d="M388.91,163.04c-0.07-0.21,1.59-17.97-2.69-26.74"/>
				<ellipse cx="454.14" cy="163.04" rx="1.32" ry="1.32"/>
				<line class="st8" x1="410.83" y1="157.27" x2="402.74" y2="161.61"/>
				<line class="st8" x1="441.29" y1="143.15" x2="453.28" y2="169.7"/>
				<line class="st8" x1="455.99" y1="157.79" x2="441.17" y2="165.51"/>
				<g>
					<path class="st16" d="M291.24,289.6c6.57,0,10.09-12.49,11.88-21.77l-26.58,4.7c-2.68,3.06-5.43,6.17-8.86,8.1
						c-1.62,0.91-3.36,1.54-5.05,2.27c-3.94,1.69-11.12,3.42-11.12,6.69H291.24z"/>
					<path class="st8" d="M285.83,284.29c-2.41,0.74-4.82,1.47-7.24,2.21c-0.74,0.23-1.49,0.46-2.15,0.86
						c-0.85,0.52-1.51,1.31-2.14,2.09"/>
					<path class="st8" d="M272.95,283.27c-4.99,2.35-10.85,2.43-15.69,5.08c-0.58,0.32-1.15,0.68-1.55,1.22"/>
				</g>
				<path class="st3" d="M333.32,125.32c0,0-14.87,4.22-22.54,7.97c-7.67,3.74-14.72,7.39-19.22,26.39
					c-4.5,19-18.22,115.23-18.22,115.23l31.82-2.42L328,156.64"/>
				<line class="st8" x1="274.32" y1="267.82" x2="306.44" y2="266.03"/>
				<line class="st8" x1="295.85" y1="273.11" x2="299.08" y2="256.7"/>
				<path class="st20" d="M299.36,141c5.68-1.26,11.49,1.85,15.66,5.92c5.81,5.68,9.56,13.45,10.38,21.56"/>
				<path d="M301.11,269.29c0,0.73-0.59,1.32-1.32,1.32c-0.73,0-1.32-0.59-1.32-1.32c0-0.73,0.59-1.32,1.32-1.32
					C300.52,267.96,301.11,268.56,301.11,269.29z"/>
				<line class="st8" x1="312.5" y1="235.28" x2="327.13" y2="161.05"/>
				<line class="st8" x1="386.22" y1="185.54" x2="389.57" y2="157.52"/>
				<line class="st20" x1="346.88" y1="235.28" x2="351.44" y2="138.47"/>
				<line class="st20" x1="351.61" y1="235.28" x2="356.17" y2="138.47"/>
				<polygon class="st21" points="365.14,165.51 364.67,168.48 382.69,168.48 383.16,165.51 				"/>
				<polygon class="st3" points="334.77,119.86 327.74,127 343.46,150.52 353.89,134.77 				"/>
				<polygon class="st3" points="362.36,124.16 353.89,134.77 361.6,147.71 367.54,129.23 				"/>
				<polyline class="st8" points="327.74,127 343.46,150.52 353.89,134.77 				"/>
				<polyline class="st8" points="353.89,134.77 361.6,147.71 367.54,129.23 				"/>
				<path class="st8" d="M335.62,221.78c9.09-3.7,17.91-8.07,26.36-13.07"/>
				<path class="st8" d="M350.03,221c6.12-1.93,12.23-3.86,18.35-5.79"/>
			</g>
			<g>
				<path class="st16" d="M340.23,78.6c5.83-2.81,14.76-4.53,19.46,3.19c4.7,7.72,8.55,19.12,9.73,23.15
					c1.17,4.03,2.68,12.75-8.89,15.1c-11.57,2.35-18.45-3.69-22.31-8.22C334.35,107.29,321.1,87.83,340.23,78.6z"/>
				<path class="st18" d="M335.18,103.97c3.31-4.2,3.45-10.55,3.37-15.71c3.49,1.12,9.56,0.21,13.04-0.94
					c3.49-1.14,5.42-2.39,6.5-5.51c1.87,1.15,3.03,1.88,5.3,7.07c1-1.84,1.29-5.06,0.91-7.12c-0.6-3.3-2.2-5.49-4.45-7.93
					c-2.41-2.62-5.2-3.65-8.7-3.97c-1.42-0.13-5.67,0.14-8.93,3.97c-6.9-1.52-11.65,1.99-14.47,4.16
					c-3.16,2.43-5.58,6.54-6.29,10.57c-0.85,4.77-0.51,11.12,3.35,15.85c2.9,3.55,6.05,5.29,10.1,7.25"/>
				<g>
					<path class="st16" d="M339.06,102.58c-1.12-2.45-5.44-2.99-7.4-1.27c-4.7,4.12,1.23,12.83,6.75,11.67
						c1.56-0.33,3.41-1.71,3.24-3.49"/>
					<line class="st22" x1="333.08" y1="105.68" x2="339.59" y2="107.88"/>
					<path class="st22" d="M335.31,100.51c1.44,0.2,2.82,0.84,3.9,1.82"/>
					<path class="st22" d="M331.87,110.38c1.58,1.74,3.96,3.29,6.41,2.73c1.7-0.39,3.24-1.8,3.21-3.64"/>
				</g>
				<path class="st8" d="M349.58,119.72c0,0,6.32,2.3,12.78,0.12"/>
				<path class="st22" d="M359.1,95.15c1.22,2.52,2.44,5.04,3.66,7.55c0.17,0.35,0.35,0.72,0.37,1.1c0.06,0.78-0.53,1.22-1.33,1.32
					c-0.63,0.07-1.33,0.08-1.81-0.29"/>
				<path d="M354.63,98.99c0.29,0.92,0.01,1.83-0.63,2.03c-0.63,0.2-1.38-0.39-1.67-1.31c-0.29-0.92-0.01-1.83,0.63-2.03
					C353.6,97.48,354.34,98.07,354.63,98.99z"/>
				<path d="M365.63,95.91c0.29,0.92,0.01,1.83-0.63,2.03c-0.63,0.2-1.38-0.39-1.67-1.31c-0.29-0.92-0.01-1.83,0.63-2.03
					C364.6,94.4,365.35,94.99,365.63,95.91z"/>
				<path class="st8" d="M352.6,94.32c-1.44-0.5-3.1-0.09-4.34,0.81c-1.24,0.89-2.12,2.21-2.78,3.58"/>
				<path class="st8" d="M361.01,91.83c0.74-1.54,3.69-1.57,4.76-0.39"/>
				<path class="st0" d="M362.37,107.64l-6.11-1.44c0,0-0.7,5.41,2,6.07C361.83,113.15,362.37,107.64,362.37,107.64z"/>
			</g>
		</g>
		<g>
			<g>
				<g>
					<path class="st23" d="M674.8,433.54l2.62,20.08c0,0-35.33,0-35.6,0c-0.27,0-1.87-21.46-1.87-21.46"/>
					<g>
						<path class="st24" d="M640.94,449.13h37.95l2.99,18.22h-63.75C617.5,454.3,636.34,456.67,640.94,449.13z"/>
						<line class="st8" x1="681.31" y1="463.95" x2="618.52" y2="463.95"/>
						<path class="st8" d="M627.88,456.42c0,0,6.06,2.1,8.62,7.53"/>
						<line class="st8" x1="638.5" y1="451.56" x2="644.05" y2="455.68"/>
						<line class="st8" x1="635.09" y1="453.34" x2="640.64" y2="457.45"/>
						<path class="st8" d="M675.38,456.76c0,1.89-1.63,3.42-3.65,3.42s-3.65-1.53-3.65-3.42c0-1.89,1.63-3.42,3.65-3.42
							S675.38,454.87,675.38,456.76z"/>
					</g>
				</g>
				<g>
					<polyline class="st25" points="656.78,249.99 679.61,444.96 633.53,444.96 610.48,254.64 					"/>
					<line class="st26" x1="643.4" y1="444.96" x2="618.69" y2="254.64"/>
					<line class="st26" x1="631.8" y1="430.89" x2="677.82" y2="430.89"/>
					<path class="st26" d="M642.36,348.62c3.73,3.12,7.61,6.08,11.61,8.85"/>
					<g>
						<path class="st26" d="M641.67,283.49h15.94l1.9,12.06c0,0-4.56,4.08-7.33,3.51c-2.77-0.57-8.63-2.36-8.61-2.93
							C643.59,295.55,641.67,283.49,641.67,283.49z"/>
						<line class="st26" x1="642.05" y1="287.42" x2="657.93" y2="287.42"/>
					</g>
				</g>
				<g>
					<path class="st23" d="M610.27,433.54l-1.72,20.08c0,0-35.33,0-35.6,0c-0.27,0,2.46-21.46,2.46-21.46"/>
					<g>
						<path class="st24" d="M572.6,449.13h37.95l2.99,18.22h-63.75C549.17,454.3,568,456.67,572.6,449.13z"/>
						<line class="st8" x1="612.98" y1="463.95" x2="550.19" y2="463.95"/>
						<path class="st8" d="M559.54,456.42c0,0,6.06,2.1,8.62,7.53"/>
						<line class="st8" x1="570.16" y1="451.56" x2="575.71" y2="455.68"/>
						<line class="st8" x1="566.75" y1="453.34" x2="572.3" y2="457.45"/>
						<path class="st8" d="M607.04,456.76c0,1.89-1.63,3.42-3.65,3.42c-2.02,0-3.65-1.53-3.65-3.42c0-1.89,1.63-3.42,3.65-3.42
							C605.41,453.34,607.04,454.87,607.04,456.76z"/>
					</g>
				</g>
				<g>
					<polyline class="st25" points="579.2,249.99 567.1,444.96 618.06,444.96 630.39,254.64 					"/>
					<line class="st26" x1="587.85" y1="249.99" x2="575.75" y2="444.96"/>
					<line class="st26" x1="593.75" y1="249.99" x2="581.65" y2="444.96"/>
					<polyline class="st26" points="623.45,362.96 627.66,298.98 631.04,291.47 					"/>
					<path class="st26" d="M606.43,315.6c3.89-4.35,7.79-8.7,11.68-13.06"/>
					<path class="st26" d="M613.86,320.11c0.79-2.71,1.9-5.34,3.29-7.8"/>
					<line class="st26" x1="618.56" y1="430.89" x2="567.99" y2="430.89"/>
					<g>
						<path class="st26" d="M619.11,283.49h-17.69l-1,13.04c0,0,6.42,4.65,9.49,4.02c3.07-0.62,8.23-2.78,8.21-3.4
							C618.09,296.53,619.11,283.49,619.11,283.49z"/>
						<line class="st26" x1="618.69" y1="287.74" x2="601.06" y2="287.74"/>
					</g>
				</g>
			</g>
			<g>
				<polyline class="st23" points="623.84,118.53 637.48,129.11 637.58,149.8 605.32,149.8 610.03,130.89 				"/>
				<path class="st23" d="M598.6,124.64c0.42-6.51,3.32-13.57,5.28-18.43c2.11-5.23,5.36-8.94,10.89-10.69
					c7.53-2.38,15.8,0.96,19.13,6.87c2.91,5.16,2.31,11.57-0.51,16.97c-2.35,4.5-5.67,9.07-10.57,11.63
					c-4.89,2.56-12.63,5.36-18,3.98C599.38,133.58,598.32,128.95,598.6,124.64z"/>
				<path class="st22" d="M616,108.11c-0.62-3.38-2.63-5.56-4.8-6.02"/>
				<path d="M609.13,108.04c-0.45,0.92-0.25,1.94,0.46,2.29c0.7,0.34,1.64-0.12,2.09-1.04c0.45-0.92,0.25-1.94-0.46-2.29
					C610.52,106.65,609.58,107.12,609.13,108.04z"/>
				<path class="st23" d="M604.09,108.45c-1.56,2.33-4.06,4.18-6.08,6.1c-0.47,0.45-0.95,0.91-1.23,1.5
					c-0.45,0.96,3.26,3.2,3.26,3.2"/>
				<path class="st27" d="M625.26,117.41c1.54,2.17,2.93,7,4.62,9.05c0.75,0.91,1.83,0.69,2.86,0.91c1.69,0.35,2.58,1.31,4.36,0.37
					c2.76-1.47,4.96-4.52,6.23-7.29c1.04-2.25,1.68-4.64,2.16-7.06c0.41-2.02,1.14-4.3,0.93-6.37c-0.24-2.37-1.69-4.42-3.1-6.34
					c-0.8-1.09-1.61-2.2-2.62-3.1c-0.58-0.52-1.25-1.01-1.46-1.76c-0.12-0.42-0.07-0.88-0.1-1.32c-0.09-1.42-1.04-2.75-2.36-3.3
					c-1.32-0.54-2.93-0.27-4,0.67c-0.38,0.34-0.81,0.78-1.3,0.65c-0.31-0.08-0.51-0.38-0.68-0.66c-0.85-1.46-1.43-3.08-2.39-4.47
					s-2.42-2.6-4.11-2.62c-2.85-0.05-4.87,3.1-7.71,3.39c-1.58,0.16-3.09-0.61-4.55-1.23c-1.47-0.62-3.18-1.09-4.6-0.37
					c-1.29,0.65-1.97,2.18-1.96,3.63c0.01,1.45,0.62,2.83,1.34,4.08c1.67,2.89,4.04,5.3,6.37,7.68c1.71,1.74,3.41,3.48,5.12,5.22
					c2.33,2.38,3.73,5.54,5.6,8.32C624.37,116.13,624.81,116.77,625.26,117.41z"/>
				<g>
					<path class="st23" d="M621.82,117.49c1.42-2.48,6.05-2.63,7.95-0.63c4.57,4.81-2.55,13.44-8.27,11.68
						c-1.62-0.5-3.44-2.14-3.09-4.01"/>
					<line class="st22" x1="627.85" y1="121.35" x2="620.74" y2="123.05"/>
					<path class="st22" d="M625.99,115.67c-1.54,0.07-3.06,0.62-4.3,1.55"/>
					<path class="st22" d="M628.67,126.44c-1.84,1.68-4.5,3.09-7.05,2.26c-1.76-0.58-3.26-2.21-3.04-4.17"/>
				</g>
				<path class="st22" d="M601.24,122.54c1.16,1.33,3.25,0.8,3.71-0.86c0.21-0.75,0.12-1.56-0.01-2.32"/>
				<path class="st8" d="M608.83,135.7c0,0,5.14,0.27,8.9-3.45"/>
			</g>
			<g>
				<path class="st28" d="M633.53,144.08c0.7,0,7.05,0,11.04,0s8.92,1.49,14.79,9.71c5.87,8.22,18.57,26.58,24.72,35.91
					c5.58,8.47,5.41,21.45-1.47,33.6c-10.22,18.05-27.48,38.93-25.94,36.74l-20.44-22.41l15.62-28.89l-15.62-32.17"/>
				<path class="st8" d="M653.47,207.69c5.43-3.86,12.46-5.39,19-4.13"/>
				<path class="st28" d="M582.34,169.12c-5.26,34.74-8.57,69.72-9.89,104.77c0,0,9.61-5.85,12.33-23.56c0,0,5.72,17.67,23.8,23.56
					c18.29,5.96,44.09,0.53,52.11-7.88c8.02-8.41-11.25-98.46-11.25-98.46l-11.65-26.84l-32.04,1.45L582.34,169.12z"/>
				<line class="st29" x1="584.78" y1="250.33" x2="587.7" y2="172.85"/>
				<g>
					<path class="st23" d="M528.27,181.43c-3.21-4-10.57-24.05-8.68-33.63c0.64-3.24,2.23-7.19,3.28-8.96
						c2.06-3.48,4.12-6.97,6.19-10.45c0.14-0.24,0.29-0.49,0.53-0.67c0.74-0.55,1.96-0.04,2.35,0.76c0.38,0.8,0.19,1.71,0,2.57
						c0.93-1.55,1.94-3.18,3.62-4.09c0.31-0.17,0.69-0.31,1.03-0.18c0.44,0.17,0.54,0.68,0.57,1.11c0.11,1.37,0.21,2.74,0.32,4.1
						c-0.06-0.67,1.09-0.95,1.67-0.52c0.57,0.43,0.69,1.18,0.76,1.85c0.14,1.29,0.28,2.59,0.42,3.88c-0.21-0.69,0.97-1.14,1.62-0.74
						c0.65,0.41,0.8,1.2,0.87,1.9c0.3,3.22-0.17,6.47,0.16,9.69c0.99,9.73,7.71,17.3,7.73,27.07"/>
					<g>
						<polygon class="st3" points="585.51,158.57 534.49,168.98 511.21,103.34 562.22,92.93 						"/>
						<polygon class="st30" points="579.49,154.91 539.14,163.14 518.33,104.49 558.68,96.26 						"/>
						<line class="st31" x1="527.49" y1="112.7" x2="557.26" y2="106.59"/>
						<line class="st31" x1="529.3" y1="118.1" x2="559.06" y2="111.99"/>
						<line class="st31" x1="531.1" y1="123.5" x2="560.87" y2="117.39"/>
						<line class="st31" x1="532.91" y1="128.9" x2="562.68" y2="122.79"/>
						<line class="st31" x1="534.72" y1="134.3" x2="564.48" y2="128.19"/>
						<line class="st31" x1="536.53" y1="139.7" x2="566.29" y2="133.59"/>
						<line class="st31" x1="538.33" y1="145.1" x2="568.1" y2="138.99"/>
						<line class="st31" x1="540.14" y1="150.5" x2="569.91" y2="144.39"/>
						<line class="st31" x1="558.08" y1="152.58" x2="571.71" y2="149.79"/>
						<line class="st31" x1="531.8" y1="106.88" x2="551.19" y2="102.9"/>
						<path class="st4" d="M534.97,90.11c-2.28,0.47-3.49,2.64-2.71,4.85c0.79,2.21,3.27,3.63,5.55,3.17
							c2.28-0.47,3.49-2.64,2.71-4.85C539.73,91.07,537.25,89.65,534.97,90.11z M536.96,95.73c-0.91,0.19-1.91-0.38-2.23-1.27
							c-0.31-0.89,0.17-1.76,1.08-1.95c0.91-0.19,1.91,0.38,2.23,1.27C538.36,94.67,537.88,95.54,536.96,95.73z"/>
						<polygon class="st4" points="554.4,98.52 522.69,104.99 520.97,100.12 552.67,93.65 						"/>
					</g>
					<path class="st23" d="M520.68,151c0,0,3.92-7.3,7.74-10.97c0.18-0.18,0.38-0.36,0.63-0.42c0.7-0.17,1.22,0.67,1.33,1.38
						c0.58,3.83-3.32,7.44-2.36,11.19c0.43,1.69,1.77,2.96,2.99,4.2c2.53,2.55,4.07,6.28,4.07,14.92"/>
					<path class="st22" d="M525.87,143.51c-2.52,2.76-5.11,5.67-6.12,9.27"/>
					<path class="st22" d="M528.03,149.62c-0.26,0.91-0.73,2.34-0.45,3.29c0.34,1.18,1.84,2.44,2.71,3.26
						c0.71,0.67,1.47,1.28,2.08,2.04c0.7,0.87,1.18,1.9,1.55,2.96c1.3,3.72,1.26,7.75,1.08,11.69"/>
				</g>
				<polyline class="st28" points="602.28,148.14 606.18,138.88 639.43,138.88 640.93,148.14 				"/>
				<path class="st28" d="M616.73,144.08c0,0-18.62,0-24.95,0c-6.33,0-17.29,5.31-22.89,18.62c-5.6,13.31-9.74,21.38-9.74,21.38
					l-8.46-14.75l-27.11,13.04c0,0,11.59,23.05,17.91,33.04c5.39,8.52,9.74,15.2,21.18,14.55c11.44-0.65,18.14-12.93,22.75-20.3
					c5.36-8.56,19.5-38.89,19.5-38.89"/>
				<path class="st29" d="M588.07,144.46c9.3,6.97,13.17,18.68,12.88,30.13"/>
				<path class="st29" d="M651.02,146.11c3.34,8.29,3.74,16.27,2.52,29.18"/>
				<line class="st8" x1="559.15" y1="184.08" x2="550.69" y2="203.54"/>
				<path class="st8" d="M575.75,223.22c0,0,7.41-7.36,12.57-18.72c5.16-11.36,13.96-33.19,13.96-33.19"/>
				<line class="st8" x1="603.91" y1="144.28" x2="640.31" y2="144.28"/>
				<line class="st29" x1="554.11" y1="175.29" x2="527.49" y2="189.49"/>
				<path class="st8" d="M662.97,253.57c-0.01-1.55-8.24-69.55-10.65-85.72"/>
				<path class="st29" d="M599.62,161.95c18.16-0.91,36.41-0.78,54.55,0.39"/>
				<line class="st29" x1="626.9" y1="161.85" x2="633.53" y2="276.01"/>
				<line class="st29" x1="633.53" y1="161.85" x2="642.98" y2="273.25"/>
				<path class="st8" d="M616.39,245.71c9.43-8.04,18.32-16.72,26.59-25.95"/>
				<path class="st8" d="M634.78,254.65c2.31-5.88,4.63-11.76,6.94-17.63"/>
			</g>
		</g>
		<g>
			<g>
				<path class="st7" d="M240.67,265.44v4.36h-1.63c-2.61,0-4.74,2.12-4.74,4.74v3.01c0,2.61,2.12,4.74,4.74,4.74h1.63v1.22
					c0,1.75,1.2,3.2,2.81,3.62v2.45h14.61v-2.45c1.61-0.42,2.81-1.88,2.81-3.62v-18.07H240.67z M239.04,280.29
					c-1.51,0-2.74-1.23-2.74-2.74v-3.01c0-1.51,1.23-2.74,2.74-2.74h1.63v8.48H239.04z"/>
				<line class="st32" x1="258.09" y1="287.09" x2="243.48" y2="287.09"/>
			</g>
			<g>
				<path class="st33" d="M484.62,236.82h-65.59c-1.7,0-3.21,1.17-3.8,2.93l-15.64,46.74h-32.74c-1.61,0-2.92,1.45-2.92,3.24h106.19
					l16.59-49.58C487.26,238.53,486.18,236.82,484.62,236.82z"/>
				<path class="st34" d="M473.62,289.73H402l16.73-49.98c0.59-1.76,2.11-2.93,3.8-2.93h65.59c1.55,0,2.63,1.72,2.09,3.33
					L473.62,289.73z"/>
				<ellipse class="st35" cx="449.43" cy="260.77" rx="8.04" ry="5.26"/>
			</g>
			<polyline class="st36" points="128.59,467.21 128.59,290.04 505.76,290.04 505.76,467.21 			"/>
		</g>
		<g>
			<g>
				<g>
					<g>
						<path class="st3" d="M33.25,321.55c-1.53-3.75-1.81-7.99-0.59-12.35c2.52-8.96,11.37-15.33,20.2-15.75
							c13.37-0.63,27.72,0.39,38.36,9.34c0.09,0.07,0.18,0.15,0.26,0.22c4.02,3.41,4.34,6.65,1.56,11.13
							c-3.69,5.93-10.91,11.32-16.56,15.12c-5.91,3.98-12.74,6.81-19.72,6.8c-6.85-0.01-13.43-2.9-18.49-7.46
							C36.04,326.59,34.34,324.19,33.25,321.55z"/>
						<path class="st37" d="M94.23,306.46c-17.69,2.18-35.28,5.17-52.71,8.95"/>
					</g>
					<path class="st38" d="M78.18,276.07c13.44,20.4,22.45,43.72,26.21,67.86"/>
					<path class="st38" d="M101.4,329.08c-2.06-20.18,3.42-41.03,15.13-57.59"/>
					<g>
						<path class="st3" d="M82.05,287.39c-6.07,0.31-12.85-2.28-18.44-4.45c-7.41-2.87-10.04-9.59-8.68-17.18
							c0.87-4.87,4.4-9.12,9.5-9.73c3.78-0.45,7.62,1.02,10.57,3.41c4.03,3.26,6.87,7.84,8.54,12.71c0.85,2.47,1.41,5.05,1.66,7.65
							c0.17,1.84,1.18,5.06-0.4,6.55C84.05,287.04,83.09,287.33,82.05,287.39z"/>
						<path class="st37" d="M84.72,286.9c-6.48-9.18-13.77-17.52-21.68-24.77"/>
					</g>
					<g>
						<path class="st39" d="M113.28,285.44c9.44,0.45,19.97-3.62,28.66-7.02c11.51-4.5,15.56-14.97,13.4-26.77
							c-1.39-7.57-6.9-14.16-14.83-15.08c-5.88-0.68-11.84,1.62-16.42,5.36c-6.25,5.09-10.63,12.23-13.21,19.8
							c-1.31,3.85-2.17,7.86-2.53,11.9c-0.26,2.86-1.8,7.87,0.66,10.18C110.16,284.9,111.65,285.36,113.28,285.44z"/>
						<path class="st37" d="M109.11,284.7c10.02-14.32,21.32-27.31,33.57-38.63"/>
					</g>
				</g>
				<g>
					<path class="st38" d="M86.21,201.51c7.12,13.17,11.44,29.78,12.41,44.72"/>
					<path class="st38" d="M105.43,220.91c-3.66,5.21-5.04,11.67-5.95,17.98c-1.89,13.2-2.05,26.65-0.46,39.89"/>
					<path class="st38" d="M83,151.98c4.49,11.09,7.96,22.6,10.35,34.32c1.19,5.86,2.16,11.78,2.77,17.73
						c0.54,5.24-0.81,14.03-1.37,19.28"/>
					<path class="st38" d="M101.99,177.72c-3.06,7.28-5.69,14.06-6.22,23.2"/>
					<path class="st38" d="M93.56,265.06c11.1,24.33,16.85,50.97,16.77,77.63"/>
				</g>
				<g>
					<path class="st3" d="M53.67,212.29c-3.83-0.04-7.79,1.02-10.63,3.61c-4.41,4.02-5.27,10.81-4.35,16.78
						c2.38,15.38,14.94,28.09,29.64,32.48c5.22,1.56,10.65,2.18,16.07,2.46c2.35,0.12,6.21-0.1,8.49-0.66
						c3.01-0.74,2.12-5,1.68-7.55c-1.03-6.07-4.58-11.32-7.26-16.71c-3.62-7.29-7.83-14.96-13.58-20.78
						C68.36,216.48,61.24,212.38,53.67,212.29z"/>
					<path class="st37" d="M48.64,224.72c15.54,13.22,30.85,26.73,45.92,40.5"/>
					<path class="st40" d="M57.28,259.5c2.23,1.75,4.62,3.1,7.07,4.14c5.58,2.38,11.44,3.2,17.25,4.02"/>
				</g>
				<g>
					<path class="st3" d="M63.29,201.34c6.5,2.41,13.18,4.41,19.98,5.77c2.41,0.48,5.04,1.48,5.72-1.74
						c1.24-5.96-1.13-11.09-3.1-16.57c-1.79-4.98-3.97-9.84-6.78-14.34c-4.97-7.95-12.14-14.82-20.99-17.93
						c-4.28-1.51-9.28-2.03-13.19,0.29c-1.97,1.16-3.5,2.97-4.64,4.95c-4.33,7.55-2.85,17.49,2.08,24.66
						C47.3,193.6,55.13,198.31,63.29,201.34z"/>
					<path class="st37" d="M47.03,164.32c15.57,12.35,29.51,26.65,41.39,42.44"/>
				</g>
				<g>
					<path class="st3" d="M62.41,147.37c1.26,2.3,2.66,4.59,4.66,6.3c2.8,2.4,6.39,3.34,9.88,4.24c1.77,0.45,3.56,1.09,5.34,1.45
						c6.86,1.41,4.75-7.88,3.54-11.61c-1.84-5.68-5.25-10.86-9.84-14.7c-1.88-1.57-3.99-2.95-6.36-3.57
						c-2.37-0.62-5.04-0.4-7.05,1.01c-2.53,1.78-3.58,5.14-3.31,8.22C59.55,141.79,60.92,144.66,62.41,147.37z"/>
					<path class="st37" d="M67.83,134.33c6.37,7.84,12.32,16.04,17.81,24.57"/>
				</g>
				<g>
					<g>
						<path class="st3" d="M104.18,181.19c8.19-2.14,16.1-8.43,22.61-13.66c8.63-6.93,9.29-16.96,4.29-26.46
							c-3.21-6.1-9.68-10.25-16.71-8.92c-5.2,0.99-9.68,4.55-12.6,8.97c-3.98,6.02-5.81,13.3-5.99,20.46
							c-0.09,3.64,0.25,7.29,1.02,10.85c0.55,2.51,0.56,7.21,3.29,8.52C101.37,181.57,102.78,181.56,104.18,181.19z"/>
						<path class="st3" d="M100.43,181.67c4.74-14.91,10.91-29.04,18.35-42"/>
					</g>
				</g>
				<g>
					<g>
						<path class="st3" d="M155.88,195c-0.88-4.68-3.05-9.49-7.23-11.79c-9.87-5.43-22.66,3.31-29.9,9.66
							c-8.6,7.55-15.75,17.6-17.23,29.19c-0.01,0.11-0.03,0.23-0.04,0.34c-0.64,5.21,1.25,7.74,6.17,8.99
							c6.52,1.66,15.21,0.49,21.74-0.72c6.83-1.26,13.57-3.98,18.55-8.82C154.9,215.08,157.67,204.56,155.88,195z"/>
						<path class="st3" d="M101.78,226.75c14.08-10.7,28.61-20.76,43.54-30.15"/>
					</g>
				</g>
			</g>
			<g>
				<rect x="68.81" y="335.98" class="st7" width="77.61" height="131.97"/>
				<line class="st41" x1="68.81" y1="355.18" x2="118.96" y2="355.18"/>
				<line class="st41" x1="146.43" y1="355.18" x2="125.07" y2="355.18"/>
				<line class="st41" x1="68.81" y1="454.61" x2="146.43" y2="454.61"/>
			</g>
		</g>
		<g>
			<g>
				<g>
					<g>
						<path class="st42" d="M252.52,433.82l9.42,19.09c0,0,33.87-8.99,34.13-9.06c0.26-0.07-10.01-21.54-10.01-21.54"/>
						<path d="M294.13,437.45l-35.43,9.4l4.92,20.36l12.81-3.4l-0.3-3.64c0,0,7.47-2.41,8.59-2.62c1.12-0.2,8.28,1.86,12.35,0.78
							l24.71-6.56C316.85,437.56,301.62,444.42,294.13,437.45z"/>
						<line class="st43" x1="284.73" y1="457.56" x2="320.46" y2="448.84"/>
						<line class="st43" x1="276.14" y1="460.18" x2="262.72" y2="463.49"/>
					</g>
					<path class="st44" d="M158.96,285.21l-2.3,20.23c0,0,1.22,18.72,11.85,28.85c10.64,10.12,47.99,50.62,47.99,50.62l36.01,58.67
						l38.99-13.27c0,0-35.9-67.77-40.68-74.46c-14.7-20.59-48.6-55.19-48.6-55.19"/>
				</g>
				<g>
					<g>
						<path class="st42" d="M228.11,387.61l-7.86,20.72c0,0,30.27,17.81,30.51,17.94c0.23,0.14,9.09-22.93,9.09-22.93"/>
						<path d="M253.66,420.25L222,401.63l-10.13,18.28l11.45,6.73l2.23-2.85c0,0,6.96,3.61,7.9,4.27c0.94,0.66,4.68,7.29,8.32,9.43
							l22.09,12.99C269.85,436.63,254.34,430.68,253.66,420.25z"/>
						<line class="st43" x1="225.54" y1="423.8" x2="213.72" y2="416.57"/>
						<line class="st43" x1="233.45" y1="428.07" x2="264.87" y2="447.4"/>
					</g>
					<path class="st45" d="M175.22,294.21c0,0,4.01,23.71,6.87,27.99c6.03,8.99,14.29,11.02,30.4,13.06
						c16.81,2.12,33.89,7.49,33.89,7.49l-22.93,56.42l42.52,13.85c0,0,25.21-67.65,26.86-74.58c2.96-12.4,5.4-27.92-14.21-36.39
						c-12.92-5.58-50.03-15.75-50.03-15.75l-3.06-4.86"/>
					<path class="st46" d="M193.48,291.52c0,0,6.55,21.17,22.64,27.98s21.45,9.87,29.04,13.79c8.9,4.6,14.25,5.33,14.19,10.24
						c-0.06,4.91-5.76,18.19-9.72,28.12c-2.68,6.72-12.96,31.82-12.96,31.82"/>
					<line class="st8" x1="227.83" y1="337.94" x2="263.1" y2="347.24"/>
					<path class="st46" d="M203.59,309.8c0,0,16.03-9.65,16.66-20.19"/>
					<path class="st8" d="M277.04,355.18c3.91-4,7.5-8.31,10.72-12.89"/>
					<path class="st8" d="M279.27,341.17c2.21-1.41,4.41-2.82,6.62-4.22"/>
					<line class="st46" x1="228.58" y1="286.31" x2="177" y2="306.73"/>
					<line class="st8" x1="223.45" y1="399.17" x2="246.38" y2="342.75"/>
					<line class="st8" x1="272.6" y1="395.14" x2="265.97" y2="413.02"/>
				</g>
			</g>
			<g>
				<polyline class="st42" points="141.45,186.17 141.16,190.4 139.28,201.43 169.48,201.43 167.11,184.44 				"/>
				<path class="st42" d="M174.66,183.27c-0.08-6.13-2.27-12.81-3.74-17.41c-1.58-4.95-4.2-8.48-8.86-10.2
					c-6.33-2.34-13.53,0.68-16.62,6.2c-2.7,4.82-2.46,10.85-0.27,15.97c1.82,4.26,4.47,8.61,8.54,11.09
					c4.07,2.48,9.65,3.51,14.29,2.28C172.7,189.97,174.72,187.33,174.66,183.27z"/>
				<path class="st22" d="M160.04,168.96c-0.48-2.5,2.39-4.67,4.25-5"/>
				<path d="M166.67,169.52c0.36,0.79,0.16,1.66-0.45,1.93c-0.61,0.27-1.39-0.15-1.75-0.94c-0.36-0.79-0.16-1.66,0.45-1.93
					C165.52,168.3,166.31,168.73,166.67,169.52z"/>
				<path class="st0" d="M172.64,179.58l-4.42-2.31c0,0-2.33,4.04-0.26,5.08C170.66,183.72,172.64,179.58,172.64,179.58z"/>
				<path d="M147.41,173.29l4.54,14.37l-10.78,2.74c0,0-3.71-4.45-5.39-5.09c-1.68-0.64-8.54-8.88-9.32-13.46s1.12-11.88,4.16-14.35
					c3.03-2.47,6.4-10.67,9.21-12.8s9.96,0.9,12.56,0.56c2.6-0.34,7.7-4.04,9.76-2.02c2.05,2.02,2.28,5.73,3.96,5.95
					c1.68,0.22,6.4,3.37,5.95,6.51c-0.45,3.14-3.09,5.72-3.09,5.72s-4.43-5.04-8.98-3.58C155.43,159.29,157,170.07,147.41,173.29z"
					/>
				<path class="st8" d="M158.17,190.87c0,0,5.67,2.24,9.88,0.85"/>
				<path class="st42" d="M169.48,167.19c1.27,2.03,3.35,3.67,5.02,5.36c0.39,0.4,0.79,0.8,1.01,1.31c0.36,0.83-2.86,2.64-2.86,2.64
					"/>
				<path class="st22" d="M170.23,167.2c0.45,1.38,1.21,2.66,2.21,3.71"/>
				<path class="st22" d="M172.34,176.71c0.41-0.23,0.83-0.46,1.24-0.69"/>
				<g>
					<path class="st47" d="M169.37,168.73c0,3.23-2.62,5.86-5.86,5.86c-3.23,0-5.86-2.62-5.86-5.86c0-3.23,2.62-5.86,5.86-5.86
						C166.74,162.87,169.37,165.49,169.37,168.73z"/>
					<line class="st47" x1="146.52" y1="173.29" x2="157.69" y2="169.39"/>
					<line class="st47" x1="169.16" y1="167.04" x2="171.3" y2="166.51"/>
				</g>
				<g>
					<path class="st42" d="M149.87,174.48c-1.15-2.53-5.62-3.08-7.63-1.31c-4.85,4.25,1.27,13.24,6.97,12.04
						c1.61-0.34,3.52-1.77,3.35-3.6"/>
					<line class="st22" x1="143.69" y1="177.68" x2="150.42" y2="179.95"/>
					<path class="st22" d="M146,172.34c1.49,0.21,2.91,0.87,4.02,1.88"/>
					<path class="st22" d="M149.54,185.66c1.76-0.4,2.87-2.17,2.84-4.08"/>
				</g>
			</g>
			<g>
				<path class="st48" d="M145.57,200.65c-5.35,0-13.96-2.23-21.64,8.64c-7.68,10.87-19.95,45.7-23.65,54.6
					c-3.7,8.89-2.78,31.87,12.04,31.87c14.81,0,51.2,0,51.2,0l-7.96-29.65H138.1l8.46-28.41"/>
				<polygon class="st48" points="130.98,222.79 149.18,305.44 225.52,281.45 202.43,219.09 179.51,200.46 144.46,200.46 				"/>
				<line class="st8" x1="138.1" y1="266.11" x2="126.76" y2="268.31"/>
				<g>
					<path class="st42" d="M253.08,222.45c5.12-4.44,11.11-7.73,17.25-10.42c3.12-1.36,6.44-2.59,9.83-2.9
						c3.57-0.33,7.19-0.36,10.71,0.21c0.58,0.09,1.16,0.19,1.74,0.29c0.64,0.11,1.21,0.56,1.26,1.23c0.04,0.54-0.46,0.95-0.93,1.19
						c-3.74,1.93-8.69,0.28-12.08,2.8c1.09-0.15,2.25-0.29,3.25,0.17c1.01,0.46,1.73,1.78,1.21,2.79c1.55,0.65,2.42,2.67,1.85,4.31
						c0.51-0.18,1.66,0.99,1.83,1.53c0.64,2.04,0.52,2.98-0.56,4.8c-1.08,1.82-3.84,3.95-5.88,4.23c-0.95,0.13-2,0.02-2.74-0.62
						c-0.13-0.11-0.25-0.24-0.42-0.25c-0.1-0.01-0.2,0.03-0.29,0.07c-3.19,1.34-5.35,4.44-8.2,6.43c-2.95,2.06-6.53,2.88-10.04,3.41
						"/>
					<path class="st8" d="M281.98,214.21c-2.25,0.28-4.85,0.96-6.73,1.95"/>
					<path class="st8" d="M285.11,217.84c-2.77,0.49-5.48,1.42-7.99,2.72"/>
					<path class="st8" d="M287.57,222.23c-2.47,0.43-5.57,1.92-7.84,3.78"/>
					<path class="st8" d="M279.02,232.08c2.27-1.72,4.76-3.12,7.39-4.15"/>
				</g>
				<path class="st48" d="M140.22,200.64c1.53,0.03,36.35-0.18,39.29-0.18c2.95,0,14.85,2.44,24.67,15.7
					c9.82,13.26,17.41,23.63,17.41,23.63l33.59-20.6l12.96,22.79c0,0-26.5,25.6-33.97,29.83c-7.47,4.23-21.8,10.11-31.38,0.53
					c-9.58-9.58-27.57-39.52-27.57-39.52"/>
				<path class="st49" d="M177,235.74c0,0-5.66-28.88,11.85-32.6"/>
				<path class="st49" d="M134.89,201.68c-5.5,10.05-7.14,20.55-0.87,34.78"/>
				<path class="st8" d="M223.62,276.32c-6.9,1.95-14.81,2.05-20.83-3.98c-9.58-9.58-27.57-39.52-27.57-39.52"/>
				<polyline class="st48" points="175.22,201.75 170.87,194.32 139.43,194.32 138.1,201.75 				"/>
				<line class="st8" x1="175.72" y1="200.73" x2="138.1" y2="200.73"/>
				<line class="st8" x1="221.59" y1="239.79" x2="224.93" y2="244.03"/>
				<line class="st8" x1="248.54" y1="223.2" x2="263.1" y2="246.78"/>
				<line class="st8" x1="265.73" y1="237.74" x2="255.82" y2="246.09"/>
				<path class="st0" d="M262.45,235.79c0,0.85-0.69,1.55-1.55,1.55c-0.85,0-1.55-0.69-1.55-1.55s0.69-1.55,1.55-1.55
					C261.75,234.24,262.45,234.93,262.45,235.79z"/>
				<line class="st8" x1="147.06" y1="296.52" x2="131.76" y2="225.3"/>
			</g>
		</g>
		<g>
			<g>
				<line class="st50" x1="137.42" y1="342.75" x2="127.75" y2="467.96"/>
				<line class="st50" x1="201.78" y1="342.75" x2="205.39" y2="467.96"/>
				<line class="st50" x1="204.29" y1="431.83" x2="130.32" y2="431.83"/>
			</g>
			<g>
				<line class="st51" x1="166.53" y1="342.75" x2="162.92" y2="467.96"/>
				<line class="st51" x1="230.89" y1="342.75" x2="240.56" y2="467.96"/>
				<line class="st51" x1="237.77" y1="431.83" x2="163.79" y2="431.83"/>
			</g>
			<path class="st6" d="M220.38,334.15h-18.83c-4.63,0-8.63-3.36-9.65-8.1c-2.81-13.11-8.51-39.19-12.83-55.8
				c-5.95-22.92-14.55-36.81-30.75-36.81c-6.29,0-24.88-1.74-35.46,0c-10.58,1.74-11,11.11-9.59,19.1
				c4.64,26.32,19.85,72.1,26.36,86.05c1.18,2.54,3.72,4.15,6.52,4.15h99.57C232.29,337.38,226.54,334.15,220.38,334.15z"/>
			<path class="st8" d="M220.38,333.6H193.7c-4.63,0-8.63-3.26-9.65-7.87c-2.81-12.74-8.51-38.07-12.83-54.19
				c-5.95-22.26-14.55-35.75-30.75-35.75"/>
		</g>
		<line class="st52" x1="45.38" y1="467.96" x2="704.62" y2="467.96"/>
	</g>
</g>
</svg>
