<svg width="45" height="45" viewBox="0 0 45 45" fill="none" xmlns="http://www.w3.org/2000/svg">
<path d="M19.6566 29.2641H19.6285C14.3142 29.2641 9.99283 24.9413 9.99283 19.6284C9.99283 14.3156 14.3142 9.99281 19.6285 9.99281C24.9427 9.99281 29.2641 14.3142 29.2641 19.6284C29.2641 19.9124 29.1513 20.1848 28.9504 20.3857C28.7496 20.5865 28.4772 20.6993 28.1932 20.6993C27.9092 20.6993 27.6368 20.5865 27.436 20.3857C27.2352 20.1848 27.1224 19.9124 27.1224 19.6284C27.1224 15.4955 23.7614 12.1331 19.627 12.1331C15.4927 12.1331 12.1331 15.4955 12.1331 19.6284C12.1331 23.7614 15.4941 27.1238 19.6285 27.1238C20.2191 27.1238 20.7127 27.6019 20.7127 28.1925C20.7127 28.7831 20.2486 29.2641 19.6566 29.2641Z" fill="#326D6D"/>
<path d="M19.6566 39.2555H16.9734C16.72 39.2556 16.4748 39.1657 16.2814 39.002C16.088 38.8382 15.959 38.6111 15.9173 38.3611L15.3014 34.6598C14.1764 34.3308 13.0922 33.878 12.0642 33.3084L9.00281 35.5022C8.79641 35.6498 8.54434 35.7193 8.29146 35.6985C8.03858 35.6776 7.80131 35.5677 7.62188 35.3883L3.86719 31.6336C3.68799 31.454 3.57833 31.2166 3.55773 30.9638C3.53713 30.7109 3.60693 30.4589 3.75469 30.2527L5.94844 27.1912C5.37908 26.1658 4.92581 25.08 4.59703 23.9541L0.894377 23.3409C0.64415 23.2993 0.41686 23.1701 0.253049 22.9764C0.0892373 22.7827 -0.000443725 22.5371 1.65092e-06 22.2834V16.9734C1.65092e-06 16.4503 0.379689 16.0031 0.894377 15.9173L4.59703 15.3014C4.92469 14.1764 5.3775 13.0922 5.94703 12.0642L3.75469 9.00422C3.60693 8.79798 3.53713 8.546 3.55773 8.29312C3.57833 8.04025 3.68799 7.80289 3.86719 7.62328L7.62188 3.86859C7.80191 3.69015 8.03918 3.58102 8.29182 3.56044C8.54447 3.53985 8.79627 3.60915 9.00281 3.75609L12.0656 5.94703C13.0922 5.3775 14.1778 4.92328 15.3028 4.59562L15.9188 0.895781C15.96 0.645774 16.0887 0.418528 16.2818 0.254493C16.475 0.090458 16.72 0.000276241 16.9734 0H22.2848C22.808 0 23.2552 0.379687 23.3395 0.895781L23.9555 4.59703C25.0805 4.92469 26.1647 5.37891 27.1927 5.94844L30.2541 3.75469C30.4605 3.6071 30.7125 3.53755 30.9654 3.55841C31.2183 3.57927 31.4556 3.68918 31.635 3.86859L35.3897 7.62328C35.5689 7.80289 35.6785 8.04025 35.6991 8.29312C35.7197 8.546 35.65 8.79798 35.5022 9.00422L33.3084 12.0642C33.8794 13.0922 34.3322 14.1764 34.6598 15.3014L38.3625 15.9173C38.6123 15.9589 38.8392 16.0877 39.0029 16.2808C39.1667 16.4739 39.2567 16.7188 39.2569 16.972V19.6284C39.2569 19.9123 39.1441 20.1845 38.9434 20.3852C38.7427 20.5858 38.4705 20.6986 38.1867 20.6986C37.9029 20.6986 37.6307 20.5858 37.43 20.3852C37.2293 20.1845 37.1166 19.9123 37.1166 19.6284V17.8805L33.6291 17.3011C33.422 17.2669 33.2296 17.1726 33.0758 17.0298C32.922 16.887 32.8136 16.7021 32.7642 16.4981C32.4258 15.1096 31.8715 13.7829 31.1217 12.5662C31.0115 12.3866 30.9568 12.1785 30.9643 11.9679C30.9718 11.7573 31.0412 11.5535 31.1639 11.3822L33.2311 8.49516L30.7631 6.02578L27.8761 8.09297C27.7045 8.2156 27.5005 8.285 27.2897 8.2925C27.0789 8.3 26.8705 8.24528 26.6906 8.13516C25.4744 7.38547 24.1482 6.83123 22.7602 6.49266C22.5564 6.44336 22.3716 6.33522 22.2288 6.18169C22.0861 6.02816 21.9916 5.83603 21.9572 5.62922L21.3764 2.14172H17.8819L17.3025 5.62922C17.2681 5.83603 17.1736 6.02816 17.0309 6.18169C16.8881 6.33522 16.7033 6.44336 16.4995 6.49266C15.1111 6.83109 13.7843 7.38533 12.5677 8.13516C12.3877 8.2451 12.1794 8.29972 11.9686 8.29222C11.7578 8.28472 11.5539 8.21543 11.3822 8.09297L8.49375 6.02719L6.02438 8.49516L8.09297 11.3822C8.34469 11.7323 8.36016 12.1992 8.13516 12.5662C7.38533 13.7829 6.83109 15.1096 6.49266 16.4981C6.44302 16.7018 6.33456 16.8864 6.18079 17.029C6.02701 17.1715 5.8347 17.2656 5.62781 17.2997L2.14031 17.8805V21.375L5.62781 21.9558C6.0511 22.0261 6.39141 22.3411 6.49266 22.7573C6.83016 24.1453 7.38281 25.4672 8.13516 26.6892C8.36016 27.0577 8.34469 27.5245 8.09297 27.8747L6.02578 30.7617L8.49375 33.2311L11.3808 31.1625C11.5522 31.0393 11.7562 30.9696 11.9671 30.9621C12.1781 30.9546 12.3865 31.0097 12.5663 31.1203C13.7883 31.8741 15.1116 32.4253 16.4981 32.7642C16.7016 32.8138 16.8861 32.922 17.0286 33.0755C17.1711 33.229 17.2654 33.421 17.2997 33.6277L17.8805 37.1152H19.6566C19.9406 37.1152 20.2129 37.228 20.4138 37.4288C20.6146 37.6296 20.7274 37.902 20.7274 38.186C20.7274 38.47 20.6146 38.7424 20.4138 38.9432C20.2129 39.1441 19.9406 39.2555 19.6566 39.2555Z" fill="#326D6D"/>
<path d="M41.0752 44.9663H26.8003C25.7593 44.9655 24.761 44.5516 24.0249 43.8155C23.2887 43.0793 22.8748 42.0811 22.8741 41.04V26.7666C22.8748 25.7255 23.2887 24.7273 24.0249 23.9911C24.761 23.255 25.7593 22.8411 26.8003 22.8403H41.0738C42.1146 22.8411 43.1126 23.2548 43.8487 23.9906C44.5848 24.7265 44.9989 25.7243 45 26.7652V41.04C44.9993 42.0811 44.5854 43.0793 43.8492 43.8155C43.1131 44.5516 42.1163 44.9655 41.0752 44.9663ZM26.8003 24.982C25.816 24.982 25.0144 25.7808 25.0144 26.7652V41.04C25.0144 42.0244 25.816 42.8259 26.8003 42.8259H41.0738C42.0581 42.8259 42.8597 42.0244 42.8597 41.04V26.7666C42.8597 25.7822 42.0581 24.9806 41.0738 24.9806L26.8003 24.982Z" fill="#326D6D"/>
<path d="M39.4481 44.9663C39.2601 44.9667 39.0753 44.9175 38.9123 44.8237C38.7493 44.7299 38.614 44.5947 38.52 44.4319L35.4797 39.1613C35.4262 39.0642 35.3798 38.9925 35.3348 38.9222L35.2181 38.7352C32.9105 35.1633 28.3331 33.7444 24.3534 35.3897C24.2235 35.4434 24.0843 35.4711 23.9437 35.471C23.8031 35.4709 23.6639 35.4432 23.534 35.3893C23.4042 35.3354 23.2862 35.2565 23.1868 35.157C23.0875 35.0576 23.0087 34.9395 22.9549 34.8096C22.9012 34.6797 22.8736 34.5405 22.8736 34.3999C22.8737 34.2593 22.9015 34.1201 22.9553 33.9902C23.0092 33.8604 23.0881 33.7424 23.1876 33.643C23.287 33.5436 23.4051 33.4648 23.535 33.4111C28.4709 31.3692 34.1494 33.1341 37.035 37.6031L37.1405 37.7719C37.2108 37.8816 37.2811 37.9941 37.3458 38.1122L40.3734 43.3575C40.4679 43.5202 40.5178 43.705 40.518 43.8932C40.5183 44.0813 40.469 44.2662 40.375 44.4292C40.281 44.5922 40.1457 44.7276 39.9827 44.8216C39.8198 44.9156 39.6349 44.965 39.4467 44.9648L39.4481 44.9663Z" fill="#326D6D"/>
<path d="M36.135 39.2555C35.9335 39.255 35.7363 39.1977 35.5659 39.0902C35.3955 38.9827 35.2588 38.8294 35.1716 38.6478C35.0844 38.4661 35.0502 38.2636 35.0728 38.0634C35.0955 37.8632 35.1741 37.6735 35.2997 37.5159C36.3325 36.2192 37.6454 35.173 39.14 34.4558C40.6346 33.7386 42.2721 33.3689 43.9298 33.3745C44.2138 33.3745 44.4862 33.4874 44.6871 33.6882C44.8879 33.889 45.0007 34.1614 45.0007 34.4454C45.0007 34.7294 44.8879 35.0018 44.6871 35.2026C44.4862 35.4034 44.2138 35.5163 43.9298 35.5163C41.2017 35.5163 38.6662 36.7327 36.9717 38.8533C36.8715 38.9789 36.7442 39.0803 36.5993 39.15C36.4544 39.2196 36.2957 39.2557 36.135 39.2555Z" fill="#326D6D"/>
<path d="M36.7917 31.0486C37.58 31.0486 38.2191 30.4096 38.2191 29.6213C38.2191 28.833 37.58 28.1939 36.7917 28.1939C36.0034 28.1939 35.3644 28.833 35.3644 29.6213C35.3644 30.4096 36.0034 31.0486 36.7917 31.0486Z" fill="#326D6D"/>
</svg>
