<svg width="45" height="45" viewBox="0 0 45 45" fill="none" xmlns="http://www.w3.org/2000/svg">
<path d="M42.352 7.28947C39.8626 6.51287 37.8686 4.69143 37.0173 2.41734C36.4759 0.971191 34.9854 0 33.3077 0H11.6923C10.015 0 8.52406 0.971191 7.98271 2.41734C7.13139 4.69151 5.13735 6.51287 2.64803 7.28938C1.06413 7.78395 0 9.14177 0 10.6684V15.6346C0 22.1151 2.13813 28.355 6.18339 33.68C9.88461 38.5521 14.9849 42.3647 20.9335 44.7061C21.428 44.9003 21.9612 45.0004 22.5 45C23.0342 45 23.5684 44.9022 24.0662 44.7061C30.0147 42.365 35.115 38.552 38.8163 33.68C42.8615 28.355 45 22.1148 45 15.6346V10.6684C45 9.14168 43.9359 7.78386 42.352 7.28947ZM42.0968 15.6346C42.0968 21.5775 40.1359 27.2996 36.4264 32.1827C33.0345 36.648 28.3608 40.142 22.9117 42.2866C22.7816 42.3377 22.6415 42.364 22.4998 42.364C22.3581 42.364 22.218 42.3377 22.0879 42.2866C16.6384 40.142 11.9653 36.648 8.57323 32.1827C4.86406 27.3 2.90323 21.5779 2.90323 15.6346V10.6684C2.90323 10.2674 3.18 9.91169 3.59158 9.78337C6.9239 8.74336 9.59323 6.30712 10.7314 3.26602C10.8724 2.88976 11.2583 2.63672 11.6924 2.63672H33.3077C33.7413 2.63672 34.1276 2.88976 34.2687 3.26602C35.4069 6.30721 38.0761 8.74336 41.4084 9.78328C41.8201 9.91169 42.0968 10.2674 42.0968 10.6683V15.6346Z" fill="#326D6D"/>
<path d="M28.6682 17.0933H28.5695V13.3388C28.5695 10.2994 25.8467 7.82631 22.5 7.82631C19.1534 7.82631 16.4304 10.2994 16.4304 13.3388V17.0933H16.3317C14.4043 17.0933 12.8362 18.5178 12.8362 20.2684V27.8558C12.8362 31.116 15.7569 33.7689 19.3462 33.7689H25.6539C29.2436 33.7689 32.1639 31.116 32.1639 27.8558V20.2685C32.1639 18.5179 30.5958 17.0934 28.6682 17.0934V17.0933ZM19.3337 13.3388C19.3337 11.7533 20.7543 10.463 22.5 10.463C24.2457 10.463 25.6664 11.7533 25.6664 13.3388V17.0937H19.3336L19.3337 13.3388ZM29.2607 27.8559C29.2607 29.6624 27.6428 31.1318 25.6539 31.1318H19.3461C17.3574 31.1318 15.7394 29.6624 15.7394 27.8558V20.2685C15.7396 20.1258 15.8021 19.9891 15.9131 19.8883C16.0242 19.7874 16.1748 19.7307 16.3318 19.7306H28.6682C28.8252 19.7307 28.9758 19.7874 29.0868 19.8883C29.1979 19.9891 29.2604 20.1258 29.2606 20.2685L29.2607 27.8559Z" fill="#326D6D"/>
<path d="M22.5 22.8674C21.6982 22.8674 21.0484 23.4576 21.0484 24.1857V26.6766C21.0484 27.4047 21.6982 27.9949 22.5 27.9949C23.3018 27.9949 23.9516 27.4047 23.9516 26.6766V24.1857C23.9516 23.4576 23.3018 22.8674 22.5 22.8674Z" fill="#326D6D"/>
</svg>
