<svg width="45" height="45" viewBox="0 0 45 45" fill="none" xmlns="http://www.w3.org/2000/svg">
<path d="M11.25 34.9736C10.575 34.9736 10.125 34.7229 9.675 34.2216L0.675 24.1952C-0.225 23.1926 -0.225 21.6886 0.675 20.686L9.675 10.6596C10.575 9.65692 11.925 9.65692 12.825 10.6596C13.725 11.6622 13.725 13.1662 12.825 14.1688L5.4 22.4406L12.825 30.7124C13.725 31.715 13.725 33.219 12.825 34.2216C12.375 34.7229 11.925 34.9736 11.25 34.9736ZM33.75 34.9736C33.075 34.9736 32.625 34.7229 32.175 34.2216C31.275 33.219 31.275 31.715 32.175 30.7124L39.6 22.4406L32.175 14.1688C31.275 13.1662 31.275 11.6622 32.175 10.6596C33.075 9.65692 34.425 9.65692 35.325 10.6596L44.325 20.686C45.225 21.6886 45.225 23.1926 44.325 24.1952L35.325 34.2216C34.875 34.7229 34.425 34.9736 33.75 34.9736ZM18 45H17.55C16.425 44.7493 15.525 43.2454 15.975 41.9921L24.975 1.88646C25.2 0.633158 26.55 -0.369483 27.675 0.131837C28.8 0.382497 29.7 1.88646 29.25 3.13976L20.25 43.2454C20.025 44.248 18.9 45 18 45Z" fill="#326D6D"/>
</svg>
