<svg width="45" height="45" viewBox="0 0 45 45" fill="none" xmlns="http://www.w3.org/2000/svg">
<path d="M43.4302 27.2093H38.7209V17.7907H43.4302C44.2884 17.7907 45 17.0791 45 16.2209C45 15.3628 44.2884 14.6512 43.4302 14.6512H38.7209V12.0349C38.7209 8.85349 36.1465 6.27907 32.9651 6.27907H30.3488V1.56977C30.3488 0.711628 29.6372 0 28.7791 0C27.9209 0 27.2093 0.711628 27.2093 1.56977V6.27907H17.7907V1.56977C17.7907 0.711628 17.0791 0 16.2209 0C15.3628 0 14.6512 0.711628 14.6512 1.56977V6.27907H12.0349C8.85349 6.27907 6.27907 8.85349 6.27907 12.0349V14.6512H1.56977C0.711628 14.6512 0 15.3628 0 16.2209C0 17.0791 0.711628 17.7907 1.56977 17.7907H6.27907V27.2093H1.56977C0.711628 27.2093 0 27.9209 0 28.7791C0 29.6372 0.711628 30.3488 1.56977 30.3488H6.27907V32.9651C6.27907 36.1465 8.85349 38.7209 12.0349 38.7209H14.6512V43.4302C14.6512 44.2884 15.3628 45 16.2209 45C17.0791 45 17.7907 44.2884 17.7907 43.4302V38.7209H27.2093V43.4302C27.2093 44.2884 27.9209 45 28.7791 45C29.6372 45 30.3488 44.2884 30.3488 43.4302V38.7209H32.9651C36.1465 38.7209 38.7209 36.1465 38.7209 32.9651V30.3488H43.4302C44.2884 30.3488 45 29.6372 45 28.7791C45 27.9209 44.2884 27.2093 43.4302 27.2093ZM35.5814 32.9651C35.5814 34.4093 34.4093 35.5814 32.9651 35.5814H12.0349C10.5907 35.5814 9.4186 34.4093 9.4186 32.9651V12.0349C9.4186 10.5907 10.5907 9.4186 12.0349 9.4186H32.9651C34.4093 9.4186 35.5814 10.5907 35.5814 12.0349V32.9651ZM20.114 18.3767L15.9907 22.5L20.114 26.6233C20.7209 27.2302 20.7209 28.2349 20.114 28.8419C19.8 29.1558 19.4023 29.3023 19.0047 29.3023C18.607 29.3023 18.2093 29.1558 17.8953 28.8419L12.6628 23.6093C12.3709 23.3139 12.2071 22.9153 12.2071 22.5C12.2071 22.0847 12.3709 21.6861 12.6628 21.3907L17.8953 16.1581C18.5023 15.5512 19.507 15.5512 20.114 16.1581C20.7209 16.7651 20.7209 17.7698 20.114 18.3767ZM32.3163 21.3907C32.9233 21.9977 32.9233 23.0023 32.3163 23.6093L27.0837 28.8419C26.7698 29.1558 26.3721 29.3023 25.9744 29.3023C25.5767 29.3023 25.1791 29.1558 24.8651 28.8419C24.5732 28.5465 24.4095 28.1479 24.4095 27.7326C24.4095 27.3172 24.5732 26.9187 24.8651 26.6233L28.9884 22.5L24.8651 18.3767C24.2581 17.7698 24.2581 16.7651 24.8651 16.1581C25.4721 15.5512 26.4767 15.5512 27.0837 16.1581L32.3163 21.3907Z" fill="#326D6D"/>
</svg>
