<svg width="45" height="46" viewBox="0 0 45 46" fill="none" xmlns="http://www.w3.org/2000/svg">
<path d="M19.9645 11.0248C15.6626 11.0248 12.1626 14.5247 12.1626 18.8267C12.1626 23.1288 15.6625 26.6287 19.9645 26.6287C24.2666 26.6287 27.7665 23.1288 27.7665 18.8267C27.7665 14.5247 24.2666 11.0248 19.9645 11.0248ZM19.9645 23.577C17.3452 23.577 15.2143 21.446 15.2143 18.8267C15.2143 16.2074 17.3452 14.0765 19.9645 14.0765C22.5838 14.0765 24.7148 16.2074 24.7148 18.8267C24.7148 21.446 22.5838 23.577 19.9645 23.577ZM44.7885 24.7331C44.7366 24.4992 44.6303 24.2807 44.4782 24.0955C44.3261 23.9103 44.1326 23.7636 43.9133 23.6671C43.6939 23.5706 43.4549 23.5272 43.2157 23.5403C42.9764 23.5533 42.7436 23.6226 42.5361 23.7424L37.8099 26.471C37.504 26.6477 37.0967 26.5382 36.9201 26.2325C36.7435 25.9267 36.8528 25.5193 37.1585 25.3427L41.8846 22.6142C42.0921 22.4944 42.2685 22.3274 42.3995 22.1267C42.5305 21.9261 42.6124 21.6974 42.6385 21.4592C42.6646 21.221 42.6342 20.98 42.5499 20.7557C42.4655 20.5314 42.3295 20.3302 42.1529 20.1682C41.4915 19.5613 40.7412 19.0589 39.928 18.6786C39.9216 17.769 39.8535 16.8609 39.7244 15.9605C39.4511 14.0636 37.8632 12.6885 35.9475 12.6885C35.944 12.6886 35.9406 12.6886 35.9372 12.6885C34.8378 12.6885 33.8142 12.0983 33.2653 11.1475C32.7158 10.1959 32.717 9.01279 33.2684 8.06019C34.2271 6.40389 33.8331 4.34047 32.3316 3.15413C30.8223 1.9605 29.148 0.991771 27.361 0.278103C25.58 -0.432845 23.5937 0.25779 22.6378 1.9202C22.0886 2.87528 21.0644 3.46845 19.9646 3.46845C18.8649 3.46845 17.8406 2.87518 17.2914 1.9201C16.3354 0.257695 14.3488 -0.433131 12.5682 0.278007C10.7812 0.991747 9.10703 1.96054 7.59777 3.15422C6.09615 4.34057 5.7022 6.40398 6.6609 8.06019C7.2123 9.01279 7.21345 10.1959 6.66395 11.1475C6.11503 12.0984 5.09157 12.6885 3.99201 12.6885C3.98858 12.6884 3.98514 12.6884 3.98171 12.6885C2.06592 12.6885 0.477897 14.0638 0.204771 15.9606C-0.068257 17.8616 -0.068257 19.7919 0.204771 21.6929C0.477993 23.5899 2.06592 24.9651 3.98171 24.9651H3.99201C5.09138 24.9651 6.11503 25.5552 6.66395 26.506C7.21345 27.4577 7.2123 28.6408 6.6609 29.5934C5.7022 31.2497 6.09615 33.3131 7.59767 34.4994C9.107 35.693 10.7812 36.6618 12.5682 37.3755C13.039 37.5634 13.5241 37.6535 14.0008 37.6535C15.3273 37.6535 16.5883 36.9563 17.2915 35.7333C17.8406 34.7783 18.8649 34.1851 19.9646 34.1851C20.2358 34.1851 20.5014 34.2208 20.757 34.2884L18.2439 36.8016C17.371 37.6745 16.8904 38.8374 16.8906 40.0757C16.8908 41.3141 17.3718 42.4767 18.2451 43.3493L19.5137 44.617C20.416 45.5189 21.6009 45.9698 22.7859 45.9698C23.9714 45.9698 25.1569 45.5185 26.0592 44.6162L35.3236 35.3518C37.1611 35.543 39.012 35.1484 40.6116 34.2242C43.9435 32.3004 45.622 28.4863 44.7885 24.7331ZM19.9645 31.1333C17.7757 31.1333 15.7378 32.3131 14.6459 34.2121C14.4512 34.5507 14.0622 34.6862 13.6994 34.5412C12.1859 33.9365 10.7678 33.1159 9.48943 32.1049C9.18379 31.8633 9.10664 31.4592 9.30185 31.1219C10.3983 29.2275 10.4002 26.8739 9.30662 24.98C8.21402 23.0877 6.17816 21.9132 3.99191 21.9132H3.98181C3.59186 21.9132 3.28078 21.6438 3.22508 21.2577C2.99361 19.6453 2.99358 18.0082 3.22499 16.3958C3.28068 16.0096 3.59176 15.7401 3.98181 15.7401C3.98495 15.7397 3.98848 15.74 3.99191 15.7401C6.17816 15.74 8.21421 14.5656 9.30662 12.6734C10.4002 10.7794 10.3984 8.42592 9.30185 6.53149C9.10664 6.19437 9.18379 5.79021 9.48962 5.54846C10.7679 4.53734 12.1859 3.71669 13.6994 3.11207C14.062 2.96721 14.4512 3.10263 14.6458 3.44118C15.7378 5.34028 17.7757 6.52004 19.9645 6.52004C22.1533 6.52004 24.1912 5.34028 25.2832 3.44127C25.478 3.10282 25.8673 2.9674 26.2296 3.11217C27.7431 3.7168 29.1612 4.53741 30.4396 5.54846C30.7452 5.79002 30.8223 6.19418 30.6271 6.53149C29.5307 8.42592 29.5288 10.7794 30.6224 12.6734C31.7149 14.5657 33.7506 15.7401 35.937 15.7401C35.9403 15.7401 35.9436 15.7399 35.9471 15.7401C36.337 15.7401 36.6482 16.0096 36.7039 16.3957C36.7745 16.8875 36.8236 17.3821 36.851 17.8782C35.1497 17.7582 33.408 18.1373 31.8449 19.0399C28.8228 20.7848 27.1487 24.1233 27.5064 27.5387L23.0693 31.9758C22.1378 31.4268 21.0733 31.1333 19.9645 31.1333ZM39.0857 31.5812C37.8792 32.2786 36.459 32.5103 35.0934 32.2325C34.8464 32.1823 34.5909 32.1941 34.3496 32.2667C34.1083 32.3394 33.8888 32.4707 33.7106 32.6489L23.9014 42.4581C23.2867 43.073 22.2861 43.0734 21.6707 42.4584L20.4021 41.1906C20.1056 40.8943 19.9422 40.4981 19.9422 40.0751C19.9421 39.6519 20.1053 39.2557 20.4017 38.9593L30.2094 29.1515C30.3876 28.9734 30.5189 28.7539 30.5916 28.5126C30.6642 28.2714 30.676 28.0159 30.6258 27.7689C30.1364 25.3591 31.2396 22.9132 33.3708 21.6827C34.2681 21.1646 35.2553 20.911 36.2355 20.911C36.8891 20.911 37.5379 21.0239 38.1532 21.2447L35.6325 22.7C33.8642 23.721 33.2563 25.9902 34.2771 27.7584C34.7705 28.6129 35.5692 29.2249 36.5263 29.4812C37.4833 29.7378 38.481 29.6072 39.3357 29.1139L41.8563 27.6586C41.5643 29.273 40.5799 30.7186 39.0857 31.5812Z" fill="#326D6D"/>
</svg>
