<svg width="45" height="45" viewBox="0 0 45 45" fill="none" xmlns="http://www.w3.org/2000/svg">
<path d="M43.6816 0H38.4082C37.6801 0 37.0898 0.590273 37.0898 1.31836V2.63672H26.2283C25.6841 1.10232 24.2187 0 22.5 0C20.7813 0 19.3159 1.10232 18.7717 2.63672H7.91016V1.31836C7.91016 0.590273 7.31988 0 6.5918 0H1.31836C0.590273 0 0 0.590273 0 1.31836V6.5918C0 7.31988 0.590273 7.91016 1.31836 7.91016H6.5918C7.31988 7.91016 7.91016 7.31988 7.91016 6.5918V5.25586H13.3925C8.63622 8.26822 5.74497 13.3572 5.39719 18.7596C3.84416 19.2936 2.72461 20.768 2.72461 22.5C2.72461 24.6808 4.49886 26.4551 6.67969 26.4551C8.86052 26.4551 10.6348 24.6808 10.6348 22.5C10.6348 20.7967 9.55239 19.3414 8.03936 18.7857C8.50746 12.5765 12.9786 7.22865 18.9577 5.71131C19.6058 7.01314 20.9497 7.91016 22.5 7.91016C24.0503 7.91016 25.3942 7.01314 26.0423 5.7114C32.0215 7.22874 36.4925 12.5766 36.9606 18.7858C35.4476 19.3414 34.3652 20.7967 34.3652 22.5C34.3652 24.6808 36.1395 26.4551 38.3203 26.4551C40.5011 26.4551 42.2754 24.6808 42.2754 22.5C42.2754 20.768 41.1558 19.2936 39.6028 18.7596C39.2543 13.3464 36.3545 8.27991 31.6075 5.27344H37.0898V6.5918C37.0898 7.31988 37.6801 7.91016 38.4082 7.91016H43.6816C44.4097 7.91016 45 7.31988 45 6.5918V1.31836C45 0.590273 44.4097 0 43.6816 0ZM5.27344 5.27344H2.63672V2.63672H5.27344V5.27344ZM6.67969 23.8184C5.95274 23.8184 5.36133 23.2269 5.36133 22.5C5.36133 21.7731 5.95274 21.1816 6.67969 21.1816C7.40663 21.1816 7.99805 21.7731 7.99805 22.5C7.99805 23.2269 7.40663 23.8184 6.67969 23.8184ZM22.5 5.27344C21.7731 5.27344 21.1816 4.68202 21.1816 3.95508C21.1816 3.22813 21.7731 2.63672 22.5 2.63672C23.2269 2.63672 23.8184 3.22813 23.8184 3.95508C23.8184 4.68202 23.2269 5.27344 22.5 5.27344ZM38.3203 21.1816C39.0473 21.1816 39.6387 21.7731 39.6387 22.5C39.6387 23.2269 39.0473 23.8184 38.3203 23.8184C37.5934 23.8184 37.002 23.2269 37.002 22.5C37.002 21.7731 37.5934 21.1816 38.3203 21.1816ZM42.3633 5.27344H39.7266V2.63672H42.3633V5.27344Z" fill="#326D6D"/>
<path d="M34.1438 27.0421L23.5969 11.2219L23.5957 11.2202C23.592 11.2146 23.5878 11.2092 23.584 11.2037C23.5659 11.1776 23.5469 11.1521 23.5269 11.1274C22.9714 10.4371 21.9135 10.4837 21.416 11.2037C21.4122 11.2092 21.408 11.2146 21.4043 11.2202L21.4031 11.2219L10.8563 27.0422C10.6872 27.2958 10.6112 27.6001 10.6412 27.9034C10.6713 28.2067 10.8054 28.4902 11.021 28.7057C13.6513 31.336 15.3254 34.7743 15.7815 38.4529C15.5746 38.6193 15.3777 38.7978 15.1917 38.9873C13.9534 40.254 13.2715 41.9212 13.2715 43.6816C13.2715 44.4097 13.8618 45 14.5898 45H30.4102C31.1382 45 31.7285 44.4097 31.7285 43.6816C31.7285 41.9212 31.0466 40.254 29.8084 38.9872C29.6224 38.7977 29.4254 38.6192 29.2185 38.4528C29.6745 34.774 31.3487 31.3357 33.979 28.7057C34.1945 28.4902 34.3287 28.2067 34.3587 27.9034C34.3888 27.6 34.3128 27.2957 34.1438 27.0421ZM22.5 26.4551C23.2269 26.4551 23.8184 27.0465 23.8184 27.7734C23.8184 28.5004 23.2269 29.0918 22.5 29.0918C21.7731 29.0918 21.1816 28.5004 21.1816 27.7734C21.1816 27.0465 21.7731 26.4551 22.5 26.4551ZM16.133 42.3633C16.6816 40.7959 18.1685 39.6387 19.8633 39.6387H25.1367C26.8315 39.6387 28.3184 40.7959 28.867 42.3633H16.133ZM26.7403 37.2026C26.2162 37.069 25.6775 37.0016 25.1367 37.002H19.8633C19.3158 37.002 18.7783 37.0702 18.2597 37.2027C17.6427 33.6494 16.0404 30.3278 13.6323 27.6315L21.1816 16.3074V24.0452C19.6472 24.5894 18.5449 26.0548 18.5449 27.7735C18.5449 29.9544 20.3192 31.7286 22.5 31.7286C24.6808 31.7286 26.4551 29.9544 26.4551 27.7735C26.4551 26.0548 25.3528 24.5894 23.8184 24.0452V16.3074L31.3678 27.6315C28.9596 30.3275 27.3572 33.6492 26.7403 37.2026Z" fill="#326D6D"/>
</svg>
