<svg xmlns="http://www.w3.org/2000/svg" xmlns:xlink="http://www.w3.org/1999/xlink" width="389" zoomAndPan="magnify" viewBox="0 0 291.75 84.749999" height="113" preserveAspectRatio="xMidYMid meet" version="1.0"><defs><g/><clipPath id="6767fc3933"><path d="M 4 15 L 69 15 L 69 77 L 4 77 Z M 4 15 " clip-rule="nonzero"/></clipPath><clipPath id="f47cbdfab3"><path d="M 9.515625 8.441406 L 73.230469 17.175781 L 63.988281 84.59375 L 0.273438 75.859375 Z M 9.515625 8.441406 " clip-rule="nonzero"/></clipPath><clipPath id="82caf638a1"><path d="M 9.515625 8.441406 L 73.230469 17.175781 L 63.988281 84.59375 L 0.273438 75.859375 Z M 9.515625 8.441406 " clip-rule="nonzero"/></clipPath></defs><g clip-path="url(#6767fc3933)"><g clip-path="url(#f47cbdfab3)"><g clip-path="url(#82caf638a1)"><path fill="#326d6d" d="M 67.613281 33.371094 C 65.242188 28.644531 59.859375 28.34375 55.449219 29.660156 C 46.5 32.328125 37.238281 39.792969 31.007812 46.605469 C 37.167969 43.558594 44.066406 40 50.503906 37.777344 C 52.578125 37.0625 54.753906 36.421875 56.875 36.113281 C 57.878906 35.972656 58.847656 35.921875 59.605469 36.019531 C 59.984375 36.066406 60.289062 36.152344 60.492188 36.238281 C 60.585938 36.289062 60.660156 36.332031 60.699219 36.371094 C 60.738281 36.410156 60.757812 36.4375 60.761719 36.457031 C 61.234375 40.226562 55.980469 46.734375 53.421875 49.605469 C 49.636719 53.839844 45.417969 57.714844 40.910156 61.183594 C 39.824219 62.0625 38.625 62.84375 37.484375 63.664062 C 36.835938 64.082031 35.628906 64.851562 34.980469 65.273438 C 29.203125 68.757812 22.945312 71.574219 16.398438 73.496094 C 13.273438 74.414062 10.054688 75.167969 6.804688 75.472656 L 5.890625 75.554688 C 10.648438 77.046875 15.726562 76.964844 20.648438 76.46875 C 22.425781 76.265625 24.445312 75.910156 26.199219 75.542969 C 29.25 74.871094 32.300781 73.910156 35.21875 72.78125 C 36.214844 72.371094 37.285156 71.894531 38.277344 71.46875 C 39.054688 71.082031 40.492188 70.367188 41.261719 69.976562 C 42.640625 69.175781 44.050781 68.425781 45.367188 67.519531 C 45.367188 67.519531 46.96875 66.457031 46.96875 66.457031 C 53.714844 61.691406 59.90625 55.953125 64.457031 49.003906 C 67.1875 44.6875 70.132812 38.554688 67.613281 33.371094 Z M 5.792969 59.414062 C 3.273438 54.234375 6.21875 48.101562 8.949219 43.78125 C 13.5 36.832031 19.691406 31.097656 26.4375 26.332031 L 28.039062 25.269531 C 29.355469 24.363281 30.765625 23.609375 32.144531 22.8125 C 32.914062 22.417969 34.351562 21.703125 35.128906 21.316406 C 36.121094 20.890625 37.195312 20.414062 38.1875 20.003906 C 41.105469 18.878906 44.15625 17.914062 47.207031 17.242188 C 48.960938 16.878906 50.980469 16.519531 52.757812 16.316406 C 57.679688 15.820312 62.757812 15.738281 67.515625 17.230469 C 67.515625 17.230469 66.601562 17.316406 66.601562 17.316406 C 63.351562 17.617188 60.132812 18.375 57.007812 19.292969 C 50.460938 21.210938 44.203125 24.027344 38.425781 27.511719 C 37.777344 27.9375 36.570312 28.707031 35.921875 29.121094 C 34.78125 29.945312 33.582031 30.722656 32.496094 31.601562 C 27.988281 35.074219 23.769531 38.945312 19.984375 43.179688 C 17.425781 46.054688 12.171875 52.558594 12.644531 56.328125 C 12.648438 56.347656 12.667969 56.375 12.707031 56.417969 C 12.746094 56.457031 12.820312 56.5 12.914062 56.546875 C 13.117188 56.636719 13.425781 56.71875 13.800781 56.765625 C 14.558594 56.863281 15.527344 56.816406 16.535156 56.675781 C 18.652344 56.367188 20.828125 55.722656 22.902344 55.007812 C 29.34375 52.789062 36.242188 49.230469 42.398438 46.183594 C 36.167969 52.992188 26.90625 60.457031 17.957031 63.125 C 13.546875 64.441406 8.160156 64.140625 5.792969 59.414062 " fill-opacity="1" fill-rule="nonzero"/></g></g></g><g fill="#f6f6f6" fill-opacity="1"><g transform="translate(81.563968, 58.876326)"><g><path d="M 0.15625 -5.53125 L 4.28125 -10.71875 C 6.3125 -8.957031 8.265625 -7.664062 10.140625 -6.84375 C 12.015625 -6.03125 14 -5.625 16.09375 -5.625 C 18.257812 -5.625 19.988281 -6.023438 21.28125 -6.828125 C 22.582031 -7.628906 23.234375 -8.691406 23.234375 -10.015625 C 23.234375 -11.210938 22.789062 -12.144531 21.90625 -12.8125 C 21.019531 -13.476562 19.550781 -13.976562 17.5 -14.3125 L 10.5625 -15.5 C 7.570312 -16 5.304688 -17.046875 3.765625 -18.640625 C 2.222656 -20.234375 1.453125 -22.296875 1.453125 -24.828125 C 1.453125 -28.078125 2.6875 -30.648438 5.15625 -32.546875 C 7.632812 -34.441406 10.984375 -35.390625 15.203125 -35.390625 C 17.722656 -35.390625 20.269531 -34.957031 22.84375 -34.09375 C 25.425781 -33.226562 27.679688 -32.03125 29.609375 -30.5 L 25.71875 -25.125 C 23.851562 -26.550781 22.023438 -27.601562 20.234375 -28.28125 C 18.441406 -28.96875 16.597656 -29.3125 14.703125 -29.3125 C 12.773438 -29.3125 11.226562 -28.953125 10.0625 -28.234375 C 8.90625 -27.523438 8.328125 -26.570312 8.328125 -25.375 C 8.328125 -24.3125 8.707031 -23.476562 9.46875 -22.875 C 10.226562 -22.28125 11.507812 -21.847656 13.3125 -21.578125 L 19.890625 -20.484375 C 23.347656 -19.921875 25.945312 -18.816406 27.6875 -17.171875 C 29.4375 -15.523438 30.3125 -13.359375 30.3125 -10.671875 C 30.3125 -7.273438 28.972656 -4.5625 26.296875 -2.53125 C 23.617188 -0.507812 20.050781 0.5 15.59375 0.5 C 12.8125 0.5 10.066406 -0.03125 7.359375 -1.09375 C 4.648438 -2.15625 2.25 -3.632812 0.15625 -5.53125 Z M 0.15625 -5.53125 "/></g></g></g><g fill="#f6f6f6" fill-opacity="1"><g transform="translate(111.570563, 58.876326)"><g><path d="M 1.5 -12.953125 C 1.5 -14.847656 1.851562 -16.617188 2.5625 -18.265625 C 3.28125 -19.910156 4.257812 -21.335938 5.5 -22.546875 C 6.75 -23.765625 8.222656 -24.722656 9.921875 -25.421875 C 11.617188 -26.117188 13.429688 -26.46875 15.359375 -26.46875 C 17.285156 -26.46875 19.09375 -26.117188 20.78125 -25.421875 C 22.476562 -24.722656 23.945312 -23.765625 25.1875 -22.546875 C 26.4375 -21.335938 27.414062 -19.910156 28.125 -18.265625 C 28.84375 -16.617188 29.203125 -14.847656 29.203125 -12.953125 C 29.203125 -11.066406 28.84375 -9.300781 28.125 -7.65625 C 27.414062 -6.007812 26.4375 -4.585938 25.1875 -3.390625 C 23.945312 -2.191406 22.476562 -1.242188 20.78125 -0.546875 C 19.09375 0.148438 17.285156 0.5 15.359375 0.5 C 13.429688 0.5 11.617188 0.148438 9.921875 -0.546875 C 8.222656 -1.242188 6.75 -2.191406 5.5 -3.390625 C 4.257812 -4.585938 3.28125 -6.007812 2.5625 -7.65625 C 1.851562 -9.300781 1.5 -11.066406 1.5 -12.953125 Z M 15.359375 -5.4375 C 17.347656 -5.4375 19.039062 -6.164062 20.4375 -7.625 C 21.832031 -9.082031 22.53125 -10.859375 22.53125 -12.953125 C 22.53125 -15.085938 21.832031 -16.882812 20.4375 -18.34375 C 19.039062 -19.800781 17.347656 -20.53125 15.359375 -20.53125 C 13.359375 -20.53125 11.660156 -19.800781 10.265625 -18.34375 C 8.867188 -16.882812 8.171875 -15.085938 8.171875 -12.953125 C 8.171875 -10.859375 8.867188 -9.082031 10.265625 -7.625 C 11.660156 -6.164062 13.359375 -5.4375 15.359375 -5.4375 Z M 15.359375 -5.4375 "/></g></g></g><g fill="#f6f6f6" fill-opacity="1"><g transform="translate(140.779638, 58.876326)"><g><path d="M 0.890625 -25.96875 L 6.671875 -25.96875 L 6.671875 -28.453125 C 6.671875 -31.347656 7.519531 -33.578125 9.21875 -35.140625 C 10.914062 -36.703125 13.359375 -37.484375 16.546875 -37.484375 C 17.242188 -37.484375 17.957031 -37.441406 18.6875 -37.359375 C 19.414062 -37.273438 20.046875 -37.164062 20.578125 -37.03125 L 20.578125 -31.296875 C 19.953125 -31.429688 19.394531 -31.53125 18.90625 -31.59375 C 18.425781 -31.664062 17.921875 -31.703125 17.390625 -31.703125 C 16.097656 -31.703125 15.125 -31.414062 14.46875 -30.84375 C 13.820312 -30.28125 13.5 -29.4375 13.5 -28.3125 L 13.5 -25.96875 L 20.578125 -25.96875 L 20.578125 -20.234375 L 13.5 -20.234375 L 13.5 0 L 6.671875 0 L 6.671875 -20.234375 L 0.890625 -20.234375 Z M 0.890625 -25.96875 "/></g></g></g><g fill="#f6f6f6" fill-opacity="1"><g transform="translate(160.767337, 58.876326)"><g><path d="M 37.78125 -17.390625 C 37.78125 -14.835938 37.335938 -12.453125 36.453125 -10.234375 C 35.578125 -8.023438 34.363281 -6.128906 32.8125 -4.546875 C 31.269531 -2.972656 29.421875 -1.726562 27.265625 -0.8125 C 25.109375 0.09375 22.78125 0.546875 20.28125 0.546875 C 17.695312 0.546875 15.273438 0.0820312 13.015625 -0.84375 C 10.753906 -1.78125 8.800781 -3.050781 7.15625 -4.65625 C 5.507812 -6.269531 4.203125 -8.171875 3.234375 -10.359375 C 2.273438 -12.554688 1.796875 -14.921875 1.796875 -17.453125 C 1.796875 -19.972656 2.269531 -22.328125 3.21875 -24.515625 C 4.164062 -26.710938 5.457031 -28.613281 7.09375 -30.21875 C 8.738281 -31.832031 10.691406 -33.101562 12.953125 -34.03125 C 15.210938 -34.96875 17.625 -35.4375 20.1875 -35.4375 C 23.070312 -35.4375 25.796875 -34.851562 28.359375 -33.6875 C 30.921875 -32.53125 33.03125 -30.9375 34.6875 -28.90625 L 29.65625 -24.28125 C 28.425781 -25.738281 27.003906 -26.859375 25.390625 -27.640625 C 23.785156 -28.421875 22.050781 -28.8125 20.1875 -28.8125 C 18.625 -28.8125 17.171875 -28.519531 15.828125 -27.9375 C 14.484375 -27.351562 13.316406 -26.554688 12.328125 -25.546875 C 11.347656 -24.535156 10.582031 -23.335938 10.03125 -21.953125 C 9.488281 -20.578125 9.21875 -19.078125 9.21875 -17.453125 C 9.21875 -15.816406 9.5 -14.300781 10.0625 -12.90625 C 10.632812 -11.507812 11.414062 -10.304688 12.40625 -9.296875 C 13.40625 -8.285156 14.59375 -7.488281 15.96875 -6.90625 C 17.351562 -6.320312 18.828125 -6.03125 20.390625 -6.03125 C 22.847656 -6.03125 24.960938 -6.710938 26.734375 -8.078125 C 28.515625 -9.441406 29.625 -11.1875 30.0625 -13.3125 L 19.734375 -13.3125 L 19.734375 -19.59375 L 37.78125 -19.59375 Z M 37.78125 -17.390625 "/></g></g></g><g fill="#f6f6f6" fill-opacity="1"><g transform="translate(198.848856, 58.876326)"><g><path d="M 25.96875 -3.234375 C 24.375 -1.941406 22.738281 -0.992188 21.0625 -0.390625 C 19.382812 0.203125 17.515625 0.5 15.453125 0.5 C 13.492188 0.5 11.65625 0.148438 9.9375 -0.546875 C 8.226562 -1.242188 6.75 -2.191406 5.5 -3.390625 C 4.257812 -4.585938 3.28125 -6.007812 2.5625 -7.65625 C 1.851562 -9.300781 1.5 -11.066406 1.5 -12.953125 C 1.5 -14.816406 1.835938 -16.570312 2.515625 -18.21875 C 3.191406 -19.863281 4.128906 -21.289062 5.328125 -22.5 C 6.523438 -23.71875 7.945312 -24.675781 9.59375 -25.375 C 11.238281 -26.070312 12.992188 -26.421875 14.859375 -26.421875 C 16.679688 -26.421875 18.378906 -26.0625 19.953125 -25.34375 C 21.535156 -24.632812 22.898438 -23.660156 24.046875 -22.421875 C 25.191406 -21.191406 26.085938 -19.722656 26.734375 -18.015625 C 27.390625 -16.304688 27.71875 -14.457031 27.71875 -12.46875 L 27.71875 -10.671875 L 8.375 -10.671875 C 8.84375 -9.035156 9.738281 -7.71875 11.0625 -6.71875 C 12.394531 -5.726562 13.957031 -5.234375 15.75 -5.234375 C 16.882812 -5.234375 17.945312 -5.414062 18.9375 -5.78125 C 19.9375 -6.144531 20.785156 -6.660156 21.484375 -7.328125 Z M 14.703125 -20.78125 C 13.140625 -20.78125 11.789062 -20.304688 10.65625 -19.359375 C 9.53125 -18.410156 8.753906 -17.140625 8.328125 -15.546875 L 21.03125 -15.546875 C 20.601562 -17.078125 19.816406 -18.332031 18.671875 -19.3125 C 17.523438 -20.289062 16.203125 -20.78125 14.703125 -20.78125 Z M 14.703125 -20.78125 "/></g></g></g><g fill="#f6f6f6" fill-opacity="1"><g transform="translate(226.56257, 58.876326)"><g><path d="M 2.6875 0 L 2.6875 -25.96875 L 9.515625 -25.96875 L 9.515625 -23.921875 C 10.515625 -24.753906 11.617188 -25.382812 12.828125 -25.8125 C 14.046875 -26.25 15.367188 -26.46875 16.796875 -26.46875 C 19.785156 -26.46875 22.242188 -25.503906 24.171875 -23.578125 C 26.097656 -21.648438 27.0625 -19.175781 27.0625 -16.15625 L 27.0625 0 L 20.234375 0 L 20.234375 -15.15625 C 20.234375 -16.78125 19.742188 -18.085938 18.765625 -19.078125 C 17.785156 -20.078125 16.484375 -20.578125 14.859375 -20.578125 C 13.722656 -20.578125 12.695312 -20.351562 11.78125 -19.90625 C 10.875 -19.457031 10.117188 -18.820312 9.515625 -18 L 9.515625 0 Z M 2.6875 0 "/></g></g></g><g fill="#f6f6f6" fill-opacity="1"><g transform="translate(254.625205, 58.876326)"><g><path d="M 6.234375 -7.328125 L 6.234375 -20.234375 L 0.890625 -20.234375 L 0.890625 -25.96875 L 6.234375 -25.96875 L 6.234375 -32.59375 L 13.0625 -34.140625 L 13.0625 -25.96875 L 20.4375 -25.96875 L 20.4375 -20.234375 L 13.0625 -20.234375 L 13.0625 -8.71875 C 13.0625 -7.488281 13.328125 -6.625 13.859375 -6.125 C 14.390625 -5.632812 15.316406 -5.390625 16.640625 -5.390625 C 17.273438 -5.390625 17.875 -5.425781 18.4375 -5.5 C 19.007812 -5.582031 19.625 -5.742188 20.28125 -5.984375 L 20.28125 -0.40625 C 19.550781 -0.164062 18.671875 0.0234375 17.640625 0.171875 C 16.609375 0.328125 15.726562 0.40625 15 0.40625 C 12.113281 0.40625 9.929688 -0.25 8.453125 -1.5625 C 6.972656 -2.875 6.234375 -4.796875 6.234375 -7.328125 Z M 6.234375 -7.328125 "/></g></g></g></svg>