<?xml version="1.0" encoding="utf-8"?>
<!-- Generator: Adobe Illustrator 28.1.0, SVG Export Plug-In . SVG Version: 6.00 Build 0)  -->
<svg version="1.1" xmlns="http://www.w3.org/2000/svg" xmlns:xlink="http://www.w3.org/1999/xlink" x="0px" y="0px"
	 viewBox="0 0 646.9 368.3" style="enable-background:new 0 0 646.9 368.3;" xml:space="preserve">
<style type="text/css">
	.st0{opacity:0.1;fill:#467CF7;}
	.st1{fill:#C9C8E8;}
	.st2{fill:#FFFFFF;}
	.st3{fill:#467CF7;}
	.st4{fill:#FCF3E8;}
	.st5{fill:#9D9BCC;}
	.st6{fill:#5653A3;}
	.st7{fill:#1C55C6;}
	.st8{fill:#D49B54;}
	.st9{fill:#EB8F59;}
	.st10{fill:#BD7347;}
	.st11{fill:#27252E;}
	.st12{fill:#B36D43;}
	.st13{fill:#474454;}
	.st14{fill:#9E468A;}
	.st15{fill:#3A3845;}
	.st16{fill:#403E4D;}
	.st17{fill:#847F9E;}
</style>
<g id="BACKGROUND">
</g>
<g id="OBJECTS">
	<g>
		<path class="st0" d="M48.7,356.7c-31.8-48.4-110-290.8,159-212.3c117.5,34.3,173.8,36.3,233.1,12.5
			c59.3-23.8,260.9-75.5,183.9,199.8C510.7,356.7,127.7,356.7,48.7,356.7z"/>
		<g>
			<g>
				<g>
					<path class="st1" d="M193.1,120.7c3.5,0,6.4,2.3,7.4,5.4c3-0.7,5.8-1.9,8.3-3.4c-1.5-2.9-1-6.6,1.4-9.1
						c2.5-2.5,6.2-2.9,9.1-1.4c1.5-2.6,2.7-5.4,3.4-8.3c-3.1-1-5.4-3.9-5.4-7.4c0-3.5,2.3-6.4,5.4-7.4c-0.7-3-1.9-5.8-3.4-8.3
						c-2.9,1.5-6.6,1-9.1-1.4c-2.5-2.5-2.9-6.2-1.4-9.1c-2.6-1.5-5.4-2.7-8.3-3.4c-1,3.1-3.9,5.4-7.4,5.4c-3.5,0-6.4-2.3-7.4-5.4
						c-3,0.7-5.8,1.9-8.3,3.4c1.5,2.9,1,6.6-1.4,9.1c-2.5,2.5-6.2,2.9-9.1,1.4c-1.5,2.6-2.7,5.4-3.4,8.3c3.1,1,5.4,3.9,5.4,7.4
						c0,3.5-2.3,6.4-5.4,7.4c0.7,3,1.9,5.8,3.4,8.3c2.9-1.5,6.6-1,9.1,1.4c2.5,2.5,2.9,6.2,1.4,9.1c2.6,1.5,5.4,2.7,8.3,3.4
						C186.7,122.9,189.6,120.7,193.1,120.7z M178.4,96.4c0-8.1,6.6-14.7,14.7-14.7c8.1,0,14.7,6.6,14.7,14.7
						c0,8.1-6.6,14.7-14.7,14.7C185,111.1,178.4,104.5,178.4,96.4z"/>
					<path class="st2" d="M174.9,94.6C174.9,94.5,174.9,94.5,174.9,94.6c0.1-1.4,0.4-2.6,0.8-3.8c0.1-0.4,0.5-0.6,0.9-0.5
						c0.4,0.1,0.6,0.5,0.5,0.9c-0.4,1.1-0.6,2.3-0.7,3.5c0,0.4-0.4,0.7-0.8,0.7C175.2,95.2,174.9,94.9,174.9,94.6z M174.9,98.2
						c0-0.4,0.3-0.7,0.7-0.7c0.4,0,0.8,0.2,0.8,0.6c0.1,1.2,0.4,2.3,0.7,3.4c0.1,0.4-0.1,0.8-0.5,0.9c-0.4,0.1-0.8-0.1-0.9-0.5
						C175.3,100.8,175,99.6,174.9,98.2C174.9,98.3,174.9,98.3,174.9,98.2z M177.1,87.6c0-0.1,0-0.2,0.1-0.4c0.6-1.1,1.4-2.1,2.3-3.1
						c0.3-0.3,0.7-0.3,1-0.1c0.3,0.3,0.3,0.7,0.1,1c-0.8,0.9-1.5,1.8-2.1,2.9c-0.2,0.3-0.6,0.5-1,0.3
						C177.3,88.1,177.1,87.8,177.1,87.6z M177.1,105.2c0-0.3,0.1-0.5,0.4-0.6c0.3-0.2,0.8-0.1,1,0.3c0.6,1,1.3,2,2.1,2.9
						c0.3,0.3,0.2,0.8-0.1,1c-0.3,0.3-0.8,0.2-1-0.1c-0.9-1-1.6-2-2.3-3.1C177.2,105.4,177.1,105.3,177.1,105.2z M182,82.1
						c0-0.2,0.1-0.4,0.3-0.6c1-0.8,2.1-1.4,3.3-1.9c0.4-0.2,0.8,0,1,0.4c0.2,0.4,0,0.8-0.4,1c-1.1,0.5-2.1,1.1-3.1,1.8
						c-0.3,0.2-0.8,0.2-1-0.2C182.1,82.4,182,82.3,182,82.1z M182,110.6c0-0.1,0-0.3,0.1-0.4c0.2-0.3,0.7-0.4,1-0.2
						c1,0.7,2,1.3,3.1,1.8c0.4,0.2,0.5,0.6,0.4,1c-0.2,0.4-0.6,0.5-1,0.4c-1.2-0.5-2.3-1.2-3.3-1.9C182.2,111.1,182,110.9,182,110.6
						z M188.7,79.2c0-0.3,0.2-0.6,0.6-0.7c1.2-0.3,2.5-0.4,3.8-0.4c0.4,0,0.7,0.3,0.7,0.7h0c0,0.4-0.3,0.7-0.7,0.7
						c-1.2,0-2.4,0.1-3.5,0.4c-0.4,0.1-0.8-0.2-0.9-0.6C188.7,79.3,188.7,79.2,188.7,79.2z M188.7,113.6c0,0,0-0.1,0-0.2
						c0.1-0.4,0.5-0.6,0.9-0.6c1.1,0.2,2.3,0.4,3.5,0.4c0.4,0,0.8,0.3,0.8,0.7c0,0.4-0.3,0.7-0.7,0.7h-0.1c-1.3,0-2.6-0.1-3.8-0.4
						C189,114.3,188.7,113.9,188.7,113.6z M196,79.1c0-0.1,0-0.1,0-0.2c0.1-0.4,0.5-0.6,0.9-0.6c1.3,0.3,2.5,0.7,3.6,1.2
						c0.4,0.2,0.5,0.6,0.4,1c-0.2,0.4-0.6,0.5-1,0.4c-1.1-0.5-2.2-0.8-3.4-1.1C196.3,79.8,196,79.5,196,79.1z M196.1,113.6
						c0-0.3,0.2-0.6,0.6-0.7c1.2-0.2,2.3-0.6,3.4-1.1c0.4-0.2,0.8,0,1,0.4c0.2,0.4,0,0.8-0.4,1c-1.2,0.5-2.4,0.9-3.6,1.2
						c-0.4,0.1-0.8-0.2-0.9-0.6C196.1,113.7,196.1,113.6,196.1,113.6z M202.7,82.1c0-0.1,0-0.3,0.1-0.4c0.2-0.3,0.7-0.4,1-0.2
						c1,0.7,2,1.6,2.9,2.6c0.3,0.3,0.2,0.8-0.1,1c-0.3,0.3-0.8,0.2-1-0.1c-0.8-0.9-1.7-1.7-2.6-2.4
						C202.8,82.5,202.7,82.3,202.7,82.1z M202.8,110.6c0-0.2,0.1-0.4,0.3-0.6c0.9-0.7,1.8-1.5,2.6-2.4c0.3-0.3,0.7-0.3,1-0.1
						c0.3,0.3,0.3,0.7,0.1,1c-0.9,1-1.8,1.8-2.8,2.6c-0.3,0.2-0.8,0.2-1-0.2C202.8,110.9,202.8,110.7,202.8,110.6z M207.6,87.5
						c0-0.2,0.1-0.5,0.4-0.6c0.3-0.2,0.8-0.1,1,0.3c0.6,1.1,1.2,2.3,1.6,3.5c0.1,0.4-0.1,0.8-0.5,0.9c-0.4,0.1-0.8-0.1-0.9-0.5
						c-0.4-1.1-0.9-2.2-1.4-3.2C207.7,87.8,207.6,87.7,207.6,87.5z M207.7,105.1c0-0.1,0-0.2,0.1-0.4c0.6-1,1.1-2.1,1.4-3.2
						c0.1-0.4,0.5-0.6,0.9-0.5c0.4,0.1,0.6,0.5,0.5,0.9c-0.4,1.2-0.9,2.4-1.5,3.5c-0.2,0.3-0.6,0.5-1,0.3
						C207.8,105.6,207.7,105.4,207.7,105.1z M209.9,94.5c0-0.4,0.3-0.7,0.6-0.7c0.4,0,0.8,0.2,0.8,0.6c0.1,1.3,0.1,2.6,0,3.8
						c0,0.4-0.4,0.7-0.8,0.7c-0.4,0-0.7-0.4-0.6-0.8C210,96.9,210,95.7,209.9,94.5C209.9,94.5,209.9,94.5,209.9,94.5z"/>
				</g>
				<g>
					<path class="st1" d="M518.1,95.4c-0.9-2.7,0.2-5.5,2.3-7c-1.3-2.1-2.9-4-4.7-5.5c-1.9,1.9-4.8,2.4-7.3,1.2
						c-2.5-1.3-3.8-4-3.3-6.6c-2.3-0.5-4.8-0.7-7.2-0.6c0,2.7-1.7,5.1-4.4,6c-2.7,0.9-5.5-0.2-7-2.3c-2.1,1.3-4,2.9-5.5,4.7
						c1.9,1.9,2.4,4.8,1.2,7.3c-1.3,2.5-4,3.8-6.6,3.3c-0.5,2.3-0.7,4.8-0.6,7.2c2.7,0,5.1,1.7,6,4.4c0.9,2.7-0.2,5.5-2.3,7
						c1.3,2.1,2.9,4,4.7,5.5c1.9-1.9,4.8-2.4,7.3-1.2c2.5,1.3,3.8,4,3.3,6.6c2.3,0.5,4.8,0.7,7.2,0.6c0-2.7,1.7-5.1,4.4-6
						c2.7-0.9,5.5,0.2,7,2.3c2.1-1.3,4-2.9,5.5-4.7c-1.9-1.9-2.4-4.8-1.2-7.3c1.3-2.5,4-3.8,6.6-3.3c0.5-2.3,0.7-4.8,0.6-7.2
						C521.4,99.8,518.9,98.1,518.1,95.4z M503.1,112.7c-6.2,2-12.9-1.4-14.9-7.6c-2-6.2,1.4-12.9,7.6-14.9c6.2-2,12.9,1.4,14.9,7.6
						S509.3,110.7,503.1,112.7z"/>
					<path class="st2" d="M502.6,115.9C502.5,115.9,502.5,115.9,502.6,115.9c-1.1,0.2-2.1,0.3-3.1,0.3c-0.3,0-0.6-0.3-0.6-0.6
						c0-0.3,0.3-0.6,0.6-0.6c0.9,0,1.9-0.1,2.8-0.3c0.3-0.1,0.6,0.1,0.7,0.5C503,115.5,502.8,115.8,502.6,115.9z M505.4,115
						c-0.3,0.1-0.6,0-0.7-0.3c-0.1-0.3,0-0.6,0.3-0.8c0.9-0.4,1.7-0.9,2.5-1.4c0.3-0.2,0.6-0.1,0.8,0.1c0.2,0.3,0.1,0.6-0.1,0.8
						C507.3,114,506.4,114.6,505.4,115C505.4,115,505.4,115,505.4,115z M496.7,115.9c-0.1,0-0.2,0-0.3,0c-1-0.2-2-0.5-2.9-1
						c-0.3-0.1-0.4-0.5-0.3-0.8c0.1-0.3,0.5-0.4,0.8-0.3c0.9,0.4,1.8,0.7,2.7,0.9c0.3,0.1,0.5,0.4,0.5,0.7
						C497,115.7,496.8,115.8,496.7,115.9z M510.2,111.5c-0.2,0.1-0.4,0-0.6-0.1c-0.2-0.2-0.3-0.6,0-0.8c0.6-0.7,1.2-1.5,1.7-2.3
						c0.2-0.3,0.5-0.4,0.8-0.2c0.3,0.2,0.4,0.5,0.2,0.8c-0.5,0.9-1.1,1.7-1.8,2.5C510.3,111.4,510.3,111.5,510.2,111.5z
						 M491.3,113.5c-0.2,0.1-0.4,0-0.5-0.1c-0.8-0.6-1.6-1.3-2.3-2.1c-0.2-0.2-0.2-0.6,0-0.8c0.2-0.2,0.6-0.2,0.8,0
						c0.6,0.7,1.3,1.3,2.1,1.9c0.3,0.2,0.3,0.6,0.1,0.8C491.5,113.4,491.4,113.5,491.3,113.5z M513.1,106.4c-0.1,0-0.2,0-0.4,0
						c-0.3-0.1-0.5-0.4-0.4-0.7c0.3-0.9,0.5-1.8,0.6-2.8c0-0.3,0.3-0.6,0.6-0.5c0.3,0,0.6,0.3,0.5,0.6c-0.1,1-0.3,2-0.7,3
						C513.4,106.2,513.3,106.4,513.1,106.4z M487.3,109.1c-0.3,0.1-0.5,0-0.7-0.3c-0.5-0.9-0.9-1.8-1.3-2.8
						c-0.1-0.3,0.1-0.6,0.4-0.7l0,0c0.3-0.1,0.6,0.1,0.7,0.4c0.3,0.9,0.7,1.8,1.2,2.6c0.2,0.3,0.1,0.6-0.2,0.8
						C487.4,109.1,487.4,109.1,487.3,109.1z M513.8,100.6c0,0-0.1,0-0.1,0c-0.3,0-0.6-0.2-0.6-0.5c-0.1-0.9-0.3-1.9-0.6-2.8
						c-0.1-0.3,0.1-0.7,0.4-0.8c0.3-0.1,0.6,0,0.7,0.4l0,0.1c0.3,1,0.5,2,0.6,3C514.2,100.2,514,100.5,513.8,100.6z M485.5,103.5
						c0,0-0.1,0-0.1,0c-0.3,0-0.6-0.2-0.6-0.5c-0.1-1-0.1-2.1,0-3.1c0-0.3,0.3-0.6,0.6-0.5c0.3,0,0.6,0.3,0.5,0.6
						c-0.1,0.9-0.1,1.9,0,2.8C485.9,103.2,485.8,103.4,485.5,103.5z M511.9,94.9c-0.3,0.1-0.5,0-0.7-0.3c-0.5-0.8-1-1.6-1.7-2.3
						c-0.2-0.2-0.2-0.6,0-0.8c0.2-0.2,0.6-0.2,0.8,0c0.7,0.8,1.3,1.6,1.8,2.5c0.2,0.3,0.1,0.6-0.2,0.8
						C512,94.9,511.9,94.9,511.9,94.9z M486.1,97.6c-0.1,0-0.2,0-0.4,0c-0.3-0.1-0.5-0.4-0.4-0.7c0.3-1,0.7-1.9,1.3-2.8
						c0.2-0.3,0.5-0.4,0.8-0.2c0.3,0.2,0.4,0.5,0.2,0.8c-0.5,0.8-0.9,1.7-1.2,2.6C486.4,97.4,486.3,97.6,486.1,97.6z M508,90.5
						c-0.2,0.1-0.4,0-0.5-0.1c-0.8-0.6-1.6-1-2.5-1.4c-0.3-0.1-0.4-0.5-0.3-0.8c0.1-0.3,0.5-0.4,0.8-0.3c0.9,0.4,1.8,0.9,2.7,1.5
						c0.3,0.2,0.3,0.6,0.1,0.8C508.2,90.4,508.1,90.5,508,90.5z M489.1,92.5c-0.2,0.1-0.4,0-0.6-0.1c-0.2-0.2-0.3-0.6,0-0.8
						c0.7-0.8,1.5-1.5,2.3-2.1c0.3-0.2,0.6-0.1,0.8,0.1c0.2,0.3,0.1,0.6-0.1,0.8c-0.8,0.6-1.5,1.2-2.1,1.9
						C489.2,92.4,489.2,92.5,489.1,92.5z M502.6,88.1c-0.1,0-0.2,0-0.3,0c-0.9-0.2-1.9-0.3-2.8-0.3c-0.3,0-0.6-0.3-0.6-0.6
						c0-0.3,0.3-0.6,0.6-0.6c1,0,2.1,0.1,3.1,0.3c0.3,0.1,0.5,0.4,0.5,0.7C502.9,87.9,502.7,88.1,502.6,88.1z M493.8,89
						c-0.3,0.1-0.6,0-0.7-0.3c-0.1-0.3,0-0.6,0.3-0.8c0.9-0.4,1.9-0.7,2.9-1c0.3-0.1,0.6,0.1,0.7,0.5c0.1,0.3-0.1,0.6-0.4,0.7
						C495.7,88.3,494.8,88.6,493.8,89C493.9,89,493.9,89,493.8,89z"/>
				</g>
				<g>
					<path class="st1" d="M312.5,167.4c1.9,1.1,2.7,3.3,2.2,5.3c1.8,0.6,3.7,0.9,5.6,0.9c0.1-2.1,1.6-3.9,3.7-4.4
						c2.1-0.5,4.3,0.4,5.3,2.2c1.7-0.9,3.2-2,4.6-3.3c-1.4-1.6-1.6-3.9-0.5-5.7c1.1-1.9,3.3-2.7,5.3-2.2c0.6-1.8,0.9-3.7,0.9-5.6
						c-2.1-0.1-3.9-1.6-4.4-3.7c-0.5-2.1,0.4-4.3,2.2-5.3c-0.9-1.7-2-3.2-3.3-4.6c-1.6,1.4-3.9,1.6-5.7,0.5
						c-1.9-1.1-2.7-3.3-2.2-5.3c-1.8-0.6-3.7-0.9-5.6-0.9c-0.1,2.1-1.6,3.9-3.7,4.4c-2.1,0.5-4.3-0.4-5.3-2.2
						c-1.7,0.9-3.2,2-4.6,3.3c1.4,1.6,1.6,3.9,0.5,5.7c-1.1,1.9-3.3,2.7-5.3,2.2c-0.6,1.8-0.9,3.7-0.9,5.6c2.1,0.1,3.9,1.6,4.4,3.7
						c0.5,2.1-0.4,4.3-2.2,5.3c0.9,1.7,2,3.2,3.3,4.6C308.4,166.5,310.7,166.3,312.5,167.4z M312.6,149.6c2.7-4.3,8.3-5.7,12.7-3.1
						c4.3,2.7,5.7,8.3,3.1,12.7c-2.7,4.3-8.3,5.7-12.7,3.1C311.3,159.6,310,153.9,312.6,149.6z"/>
					<path class="st2" d="M311.3,147.5C311.3,147.4,311.3,147.4,311.3,147.5c0.5-0.7,1.1-1.3,1.7-1.8c0.2-0.2,0.5-0.1,0.6,0
						c0.2,0.2,0.1,0.5,0,0.6c-0.6,0.5-1.1,1-1.5,1.6c-0.2,0.2-0.4,0.2-0.6,0.1C311.2,147.9,311.2,147.7,311.3,147.5z M310.1,149.4
						c0.1-0.2,0.4-0.3,0.6-0.2c0.2,0.1,0.3,0.4,0.2,0.6c-0.3,0.7-0.6,1.4-0.7,2.1c-0.1,0.2-0.3,0.4-0.5,0.3
						c-0.2-0.1-0.4-0.3-0.3-0.5C309.5,151,309.7,150.2,310.1,149.4C310.1,149.5,310.1,149.4,310.1,149.4z M314.8,144.5
						c0-0.1,0.1-0.1,0.2-0.2c0.7-0.4,1.4-0.7,2.2-0.9c0.2-0.1,0.5,0.1,0.6,0.3c0.1,0.2-0.1,0.5-0.3,0.6c-0.7,0.2-1.4,0.5-2,0.9
						c-0.2,0.1-0.5,0-0.6-0.2C314.7,144.8,314.7,144.6,314.8,144.5z M309,153.9c0.1-0.1,0.2-0.2,0.4-0.2c0.3,0,0.5,0.2,0.4,0.5
						c0,0.7,0,1.5,0.2,2.2c0,0.2-0.1,0.5-0.4,0.5c-0.2,0-0.5-0.1-0.5-0.4c-0.1-0.8-0.2-1.6-0.2-2.4C309,154,309,154,309,153.9z
						 M319.2,143.1c0.1-0.1,0.2-0.2,0.4-0.2c0.8-0.1,1.6,0,2.4,0.1c0.2,0,0.4,0.3,0.4,0.5c0,0.2-0.3,0.4-0.5,0.4
						c-0.7-0.1-1.5-0.1-2.2,0c-0.3,0-0.5-0.2-0.5-0.4C319.1,143.3,319.1,143.2,319.2,143.1z M309.9,158.4c0-0.1,0.1-0.1,0.2-0.2
						c0.2-0.1,0.5,0,0.6,0.2c0.3,0.7,0.6,1.3,1.1,1.9c0.1,0.2,0.1,0.5-0.1,0.6c-0.2,0.1-0.5,0.1-0.6-0.1c-0.5-0.7-0.8-1.4-1.1-2.1
						C309.8,158.7,309.8,158.5,309.9,158.4z M323.7,143.7c0.1-0.2,0.3-0.3,0.5-0.2c0.8,0.3,1.5,0.6,2.2,1c0.2,0.1,0.3,0.4,0.2,0.6
						l0,0c-0.1,0.2-0.4,0.3-0.6,0.2c-0.6-0.4-1.3-0.7-2-0.9C323.7,144.3,323.6,144,323.7,143.7C323.7,143.8,323.7,143.8,323.7,143.7
						z M312.5,162.2C312.5,162.2,312.5,162.1,312.5,162.2c0.2-0.3,0.5-0.3,0.7-0.1c0.5,0.5,1.1,1,1.8,1.3c0.2,0.1,0.3,0.4,0.2,0.6
						c-0.1,0.2-0.4,0.3-0.6,0.2l0,0c-0.7-0.4-1.3-0.9-1.9-1.5C312.4,162.6,312.4,162.4,312.5,162.2z M327.7,146.1
						C327.7,146.1,327.7,146.1,327.7,146.1c0.2-0.3,0.5-0.3,0.7-0.1c0.6,0.5,1.1,1.2,1.6,1.8c0.1,0.2,0.1,0.5-0.1,0.6
						c-0.2,0.1-0.5,0.1-0.6-0.1c-0.4-0.6-0.9-1.2-1.4-1.7C327.6,146.5,327.6,146.3,327.7,146.1z M316.5,164.6
						c0.1-0.2,0.3-0.3,0.5-0.2c0.7,0.2,1.4,0.4,2.2,0.5c0.2,0,0.4,0.3,0.4,0.5c0,0.2-0.3,0.4-0.5,0.4c-0.8-0.1-1.6-0.3-2.3-0.5
						C316.5,165.2,316.3,164.9,316.5,164.6C316.4,164.6,316.4,164.6,316.5,164.6z M330.3,149.9c0-0.1,0.1-0.1,0.2-0.2
						c0.2-0.1,0.5,0,0.6,0.2c0.3,0.7,0.5,1.5,0.7,2.3c0,0.2-0.1,0.5-0.4,0.5c-0.2,0-0.5-0.1-0.5-0.4c-0.1-0.7-0.4-1.4-0.6-2.1
						C330.2,150.2,330.2,150,330.3,149.9z M321,165.2c0.1-0.1,0.2-0.2,0.4-0.2c0.7-0.1,1.5-0.2,2.2-0.4c0.2-0.1,0.5,0.1,0.6,0.3
						c0.1,0.2-0.1,0.5-0.3,0.6c-0.8,0.2-1.6,0.4-2.4,0.5c-0.3,0-0.5-0.2-0.5-0.4C320.9,165.3,321,165.2,321,165.2z M331.1,154.4
						c0.1-0.1,0.2-0.2,0.4-0.2c0.3,0,0.5,0.2,0.4,0.5c0,0.8-0.1,1.6-0.3,2.4c-0.1,0.2-0.3,0.4-0.5,0.3c-0.2-0.1-0.4-0.3-0.3-0.5
						c0.2-0.7,0.3-1.5,0.3-2.2C331.1,154.5,331.1,154.5,331.1,154.4z M325.4,163.8c0-0.1,0.1-0.1,0.2-0.2c0.6-0.4,1.3-0.8,1.8-1.3
						c0.2-0.2,0.5-0.1,0.6,0c0.2,0.2,0.1,0.5,0,0.6c-0.6,0.5-1.3,1-2,1.4c-0.2,0.1-0.5,0-0.6-0.2C325.3,164.1,325.3,164,325.4,163.8
						z M330.1,158.9c0.1-0.2,0.4-0.3,0.6-0.2c0.2,0.1,0.3,0.4,0.2,0.6c-0.3,0.7-0.8,1.4-1.2,2.1c-0.2,0.2-0.4,0.2-0.6,0.1
						c-0.2-0.2-0.2-0.4-0.1-0.6C329.4,160.2,329.7,159.6,330.1,158.9C330.1,158.9,330.1,158.9,330.1,158.9z"/>
				</g>
			</g>
			<g>
				<g>
					<path class="st1" d="M477.1,194.2c0,1.1-0.9,2-2,2H410c-1.1,0-2-0.9-2-2v-45.7c0-1.1,0.9-2,2-2h65.1c1.1,0,2,0.9,2,2V194.2z"/>
					<g>
						<g>
							<path class="st3" d="M479.6,190.8c0,1.1-0.9,2-2,2h-65.1c-1.1,0-2-0.9-2-2v-45.7c0-1.1,0.9-2,2-2h65.1c1.1,0,2,0.9,2,2V190.8
								z"/>
							<rect x="413.5" y="153.7" class="st4" width="62.9" height="36.1"/>
						</g>
						<g>
							<circle class="st4" cx="474.7" cy="148.6" r="1.8"/>
							<circle class="st4" cx="467.7" cy="148.6" r="1.8"/>
							<circle class="st4" cx="460.7" cy="148.6" r="1.8"/>
						</g>
						<g>
							<path class="st5" d="M455.3,162.1h-35.1c-0.6,0-1-0.4-1-1c0-0.6,0.4-1,1-1h35.1c0.6,0,1,0.4,1,1
								C456.3,161.6,455.9,162.1,455.3,162.1z"/>
							<path class="st5" d="M436,170.3h-15.8c-0.6,0-1-0.4-1-1c0-0.6,0.4-1,1-1H436c0.6,0,1,0.4,1,1
								C437,169.9,436.6,170.3,436,170.3z"/>
							<path class="st5" d="M447.8,178.5h-27.6c-0.6,0-1-0.4-1-1c0-0.6,0.4-1,1-1h27.6c0.6,0,1,0.4,1,1
								C448.8,178.1,448.3,178.5,447.8,178.5z"/>
							<path class="st5" d="M455.3,186.8h-23.5c-0.6,0-1-0.4-1-1s0.4-1,1-1h23.5c0.6,0,1,0.4,1,1S455.9,186.8,455.3,186.8z"/>
						</g>
					</g>
				</g>
				<g>
					<path class="st1" d="M276.1,216.2c0,0.8-0.6,1.4-1.4,1.4h-60.8c-0.8,0-1.4-0.6-1.4-1.4v-72.4c0-0.8,0.6-1.4,1.4-1.4h60.8
						c0.8,0,1.4,0.6,1.4,1.4V216.2z"/>
					<path class="st3" d="M273.5,212.6c0,0.8-0.6,1.4-1.4,1.4h-60.8c-0.8,0-1.4-0.6-1.4-1.4v-72.4c0-0.8,0.6-1.4,1.4-1.4h60.8
						c0.8,0,1.4,0.6,1.4,1.4V212.6z"/>
					<g>
						<path class="st4" d="M262.4,155.4h-41.6c-0.6,0-1-0.4-1-1c0-0.6,0.4-1,1-1h41.6c0.6,0,1,0.4,1,1
							C263.4,154.9,262.9,155.4,262.4,155.4z"/>
						<path class="st4" d="M247,166.7h-26.3c-0.6,0-1-0.4-1-1c0-0.6,0.4-1,1-1H247c0.6,0,1,0.4,1,1C248,166.3,247.6,166.7,247,166.7
							z"/>
						<path class="st4" d="M262.4,178.1h-41.6c-0.6,0-1-0.4-1-1c0-0.6,0.4-1,1-1h41.6c0.6,0,1,0.4,1,1
							C263.4,177.6,262.9,178.1,262.4,178.1z"/>
						<path class="st4" d="M262.4,189.4h-26.6c-0.6,0-1-0.4-1-1c0-0.6,0.4-1,1-1h26.6c0.6,0,1,0.4,1,1
							C263.4,188.9,262.9,189.4,262.4,189.4z"/>
						<path class="st4" d="M262.4,200.7h-36.1c-0.6,0-1-0.4-1-1c0-0.6,0.4-1,1-1h36.1c0.6,0,1,0.4,1,1
							C263.4,200.3,262.9,200.7,262.4,200.7z"/>
					</g>
				</g>
			</g>
			<g>
				<g>
					<path class="st5" d="M398.7,151.2c-0.4,0-0.7-0.3-0.7-0.7c0-0.4,0.3-0.8,0.7-0.8c1,0,1.5,0,1.5,0l0,0c0.4,0,0.8,0.3,0.8,0.8
						c0,0.4-0.3,0.8-0.8,0.8C400.2,151.2,399.7,151.2,398.7,151.2C398.8,151.2,398.8,151.2,398.7,151.2z"/>
					<path class="st5" d="M303.4,197.3C303.4,197.3,303.4,197.3,303.4,197.3c-1,0-2-0.1-3-0.1c-0.4,0-0.7-0.4-0.7-0.8
						c0-0.4,0.4-0.7,0.8-0.7c1,0.1,2,0.1,2.9,0.1c0.4,0,0.7,0.4,0.7,0.8C304.1,197,303.8,197.3,303.4,197.3z M306.3,197.3
						c-0.4,0-0.7-0.3-0.7-0.7c0-0.4,0.3-0.8,0.7-0.8c1,0,2-0.1,2.9-0.2c0.4,0,0.8,0.3,0.8,0.7c0,0.4-0.3,0.8-0.7,0.8
						C308.4,197.2,307.4,197.2,306.3,197.3C306.4,197.3,306.3,197.3,306.3,197.3z M297.5,196.9C297.4,196.9,297.4,196.9,297.5,196.9
						c-1.1-0.1-2-0.2-3-0.4c-0.4-0.1-0.7-0.4-0.6-0.8c0.1-0.4,0.4-0.7,0.9-0.6c1,0.1,2,0.3,2.9,0.4c0.4,0,0.7,0.4,0.7,0.8
						C298.2,196.6,297.9,196.9,297.5,196.9z M312.2,196.8c-0.4,0-0.7-0.3-0.7-0.6c-0.1-0.4,0.2-0.8,0.6-0.9c1-0.1,1.9-0.3,2.9-0.5
						c0.4-0.1,0.8,0.2,0.9,0.6c0.1,0.4-0.2,0.8-0.6,0.9c-1,0.2-2,0.4-3,0.5C312.3,196.7,312.3,196.8,312.2,196.8z M291.6,196.1
						c0,0-0.1,0-0.1,0c-1-0.2-1.9-0.4-2.9-0.6c-0.4-0.1-0.7-0.5-0.6-0.9c0.1-0.4,0.5-0.7,0.9-0.6c1,0.2,1.9,0.4,2.9,0.6
						c0.4,0.1,0.7,0.5,0.6,0.9C292.3,195.8,292,196.1,291.6,196.1z M318,195.5c-0.3,0-0.6-0.2-0.7-0.5c-0.1-0.4,0.1-0.8,0.5-0.9
						c0.9-0.3,1.9-0.6,2.8-0.9c0.4-0.1,0.8,0.1,1,0.4c0.1,0.4-0.1,0.8-0.4,1c-0.9,0.3-1.9,0.7-2.9,0.9
						C318.2,195.5,318.1,195.5,318,195.5z M323.6,193.5c-0.3,0-0.6-0.2-0.7-0.4c-0.2-0.4,0-0.8,0.4-1c0.9-0.4,1.8-0.8,2.6-1.3
						c0.4-0.2,0.8-0.1,1,0.3c0.2,0.4,0.1,0.8-0.3,1c-0.9,0.5-1.8,0.9-2.7,1.3C323.8,193.4,323.7,193.5,323.6,193.5z M328.8,190.6
						c-0.2,0-0.5-0.1-0.6-0.3c-0.2-0.3-0.1-0.8,0.2-1c0.8-0.5,1.6-1.1,2.4-1.6c0.3-0.2,0.8-0.2,1,0.2c0.2,0.3,0.2,0.8-0.2,1
						c-0.8,0.6-1.6,1.2-2.5,1.7C329.1,190.6,328.9,190.6,328.8,190.6z M333.5,187.1c-0.2,0-0.4-0.1-0.6-0.3
						c-0.3-0.3-0.2-0.8,0.1-1.1c0.7-0.6,1.5-1.3,2.2-1.9c0.3-0.3,0.8-0.3,1.1,0c0.3,0.3,0.3,0.8,0,1.1c-0.7,0.7-1.5,1.4-2.2,2
						C333.9,187.1,333.7,187.1,333.5,187.1z M337.8,183.1c-0.2,0-0.4-0.1-0.5-0.2c-0.3-0.3-0.3-0.8,0-1.1c0.7-0.7,1.3-1.4,2-2.2
						c0.3-0.3,0.7-0.4,1.1-0.1c0.3,0.3,0.4,0.7,0.1,1.1c-0.7,0.8-1.3,1.5-2,2.2C338.2,183,338,183.1,337.8,183.1z M341.7,178.6
						c-0.2,0-0.3-0.1-0.5-0.2c-0.3-0.3-0.4-0.7-0.1-1.1c0.6-0.8,1.2-1.6,1.9-2.3c0.3-0.3,0.7-0.3,1.1-0.1c0.3,0.3,0.3,0.7,0.1,1.1
						c-0.6,0.7-1.3,1.5-1.9,2.3C342.1,178.5,341.9,178.6,341.7,178.6z M345.5,174.1c-0.2,0-0.4-0.1-0.5-0.2c-0.3-0.3-0.3-0.8,0-1.1
						c0.7-0.7,1.4-1.4,2.1-2.1c0.3-0.3,0.8-0.3,1.1,0c0.3,0.3,0.3,0.8,0,1.1c-0.7,0.7-1.4,1.4-2.1,2.1
						C345.9,174,345.7,174.1,345.5,174.1z M349.8,170c-0.2,0-0.4-0.1-0.6-0.3c-0.3-0.3-0.2-0.8,0.1-1.1c0.7-0.7,1.5-1.3,2.3-1.9
						c0.3-0.3,0.8-0.2,1.1,0.1c0.3,0.3,0.2,0.8-0.1,1.1c-0.8,0.6-1.5,1.2-2.2,1.9C350.2,169.9,350,170,349.8,170z M354.4,166.3
						c-0.2,0-0.5-0.1-0.6-0.3c-0.2-0.3-0.2-0.8,0.2-1c0.8-0.6,1.6-1.2,2.5-1.7c0.3-0.2,0.8-0.1,1,0.2c0.2,0.3,0.1,0.8-0.2,1
						c-0.8,0.5-1.6,1.1-2.4,1.7C354.7,166.2,354.6,166.3,354.4,166.3z M359.4,163c-0.3,0-0.5-0.1-0.6-0.4c-0.2-0.4-0.1-0.8,0.3-1
						c0.9-0.5,1.7-1,2.6-1.5c0.4-0.2,0.8-0.1,1,0.3c0.2,0.4,0.1,0.8-0.3,1c-0.8,0.5-1.7,1-2.5,1.5C359.6,163,359.5,163,359.4,163z
						 M364.6,160.2c-0.3,0-0.5-0.2-0.7-0.4c-0.2-0.4,0-0.8,0.3-1c0.9-0.5,1.8-0.9,2.7-1.3c0.4-0.2,0.8,0,1,0.4c0.2,0.4,0,0.8-0.4,1
						c-0.9,0.4-1.8,0.8-2.6,1.3C364.8,160.1,364.7,160.2,364.6,160.2z M370,157.7c-0.3,0-0.6-0.2-0.7-0.5c-0.2-0.4,0-0.8,0.4-1
						c0.9-0.4,1.9-0.7,2.8-1.1c0.4-0.1,0.8,0.1,1,0.4c0.1,0.4-0.1,0.8-0.4,1c-0.9,0.3-1.8,0.7-2.7,1.1
						C370.2,157.7,370.1,157.7,370,157.7z M375.5,155.7c-0.3,0-0.6-0.2-0.7-0.5c-0.1-0.4,0.1-0.8,0.5-0.9c1-0.3,1.9-0.6,2.9-0.9
						c0.4-0.1,0.8,0.1,0.9,0.5c0.1,0.4-0.1,0.8-0.5,0.9c-0.9,0.3-1.9,0.6-2.8,0.9C375.7,155.7,375.6,155.7,375.5,155.7z M381.2,154
						c-0.3,0-0.6-0.2-0.7-0.6c-0.1-0.4,0.1-0.8,0.5-0.9c1-0.3,2-0.5,2.9-0.7c0.4-0.1,0.8,0.2,0.9,0.6c0.1,0.4-0.2,0.8-0.6,0.9
						c-0.9,0.2-1.9,0.4-2.9,0.7C381.3,154,381.3,154,381.2,154z M387,152.7c-0.4,0-0.7-0.2-0.7-0.6c-0.1-0.4,0.2-0.8,0.6-0.9
						c1-0.2,2-0.4,2.9-0.5c0.4-0.1,0.8,0.2,0.9,0.6c0.1,0.4-0.2,0.8-0.6,0.9c-0.9,0.1-1.9,0.3-2.9,0.5
						C387.1,152.7,387,152.7,387,152.7z M392.8,151.8c-0.4,0-0.7-0.3-0.7-0.7c-0.1-0.4,0.2-0.8,0.6-0.8c1.1-0.1,2.1-0.2,3-0.3
						c0.4,0,0.8,0.3,0.8,0.7c0,0.4-0.3,0.8-0.7,0.8C395,151.5,394,151.6,392.8,151.8C392.9,151.8,392.9,151.8,392.8,151.8z"/>
					<path class="st5" d="M285.8,194.8c-0.1,0-0.1,0-0.2,0c-0.5-0.1-1-0.2-1.5-0.4c-0.4-0.1-0.6-0.5-0.5-0.9
						c0.1-0.4,0.5-0.6,0.9-0.5c0.5,0.1,1,0.2,1.4,0.4c0.4,0.1,0.7,0.5,0.6,0.9C286.4,194.6,286.1,194.8,285.8,194.8z"/>
				</g>
				<path class="st5" d="M403.3,150.4c0,1.7-1.4,3.1-3.1,3.1c-1.7,0-3.1-1.4-3.1-3.1c0-1.7,1.4-3.1,3.1-3.1
					C401.9,147.3,403.3,148.7,403.3,150.4z"/>
				<path class="st5" d="M287.4,193.7c0,1.7-1.4,3.1-3.1,3.1s-3.1-1.4-3.1-3.1c0-1.7,1.4-3.1,3.1-3.1S287.4,192,287.4,193.7z"/>
			</g>
			<g>
				<g>
					<path class="st5" d="M380.8,216.2c0,1.1-0.9,2-2,2h-77.3c-1.1,0-2-0.9-2-2V211c0-1.1,0.9-2,2-2h77.3c1.1,0,2,0.9,2,2V216.2z"/>
					<g>
						<rect x="302.7" y="210.9" class="st4" width="11.2" height="5.7"/>
						<rect x="316" y="210.9" class="st4" width="11.2" height="5.7"/>
						<rect x="329.3" y="210.9" class="st4" width="11.2" height="5.7"/>
						<rect x="342.7" y="210.9" class="st4" width="11.2" height="5.7"/>
					</g>
				</g>
				<g>
					<path class="st5" d="M395.8,231.2c0,1.1-0.9,2-2,2h-77.3c-1.1,0-2-0.9-2-2v-5.3c0-1.1,0.9-2,2-2h77.3c1.1,0,2,0.9,2,2V231.2z"
						/>
					<g>
						<rect x="317.7" y="225.8" class="st4" width="11.2" height="5.7"/>
						<rect x="331" y="225.8" class="st4" width="11.2" height="5.7"/>
					</g>
				</g>
			</g>
		</g>
		<g>
			<path class="st3" d="M252.8,70.5c-0.6-2.2-1.6-33.2,30.6-35.2c-2-1.6-11.3-8.4-11.3-8.4s7.9-8.4,10.3-11.2
				c-36.2,1.7-53.8,24.4-53.8,49c0,3.8,0.4,7.4,1.2,11c4.6,2.8,11.5,6.6,16.7,8.3C248.6,79.8,251.9,72.3,252.8,70.5z"/>
			<path class="st6" d="M309.9,88.8c-8.7,4.6-16.8,4.7-22.1,4.7c-21.3,0-31.3-12-34.6-21.6c-0.7,1.3-6.2,13.4-6.2,13.4
				s-12.1-5.4-16.9-8.2c5.6,21.8,26.5,37.8,58.5,37.8c12.7,0,23-2.4,31.2-5.8c1.1-3.8,2.3-7.8,3.4-14.1
				C319.3,93.2,313.1,90.3,309.9,88.8z"/>
			<path class="st6" d="M461.8,49c-6.4-22.9-27.7-37.9-59.6-37.9c-18.2,0-30.7,3.8-39.6,9l13.2,5l-1.1,12.7c7.1-5.2,16-5.6,29-5.6
				c20.9,0,31.2,12.2,35,22.6l13.1,5.5L461.8,49z"/>
			<g>
				<path class="st3" d="M462.1,50.1l-10,11.4l-12.9-5.4c1,3,1.4,5.9,1.4,8.1c0,9.9-5.9,28.4-28.5,32.9l-8.5,12.4l11.3,9.1
					c34.4-4,48.9-26,48.9-54.4C463.9,59.3,463.3,54.6,462.1,50.1z"/>
			</g>
			<path class="st7" d="M342.9,40.7c-5.6-7.7-19.8-25.9-59.1-25c-2.2,2.5-6.7,7.6-10.2,11.1c1.2,0.9,9.1,6.5,11.2,8.4
				c11.3,0,33.9,0.5,48.9,20.9C338.8,46.7,342.9,40.7,342.9,40.7z"/>
			<path class="st8" d="M354.2,74.7c5.8-12.7,10.6-27.6,19.5-36l1.1-12.9l-13.3-5c-10.7,6.6-25.3,32.6-27.2,36.3
				c-1.9,3.7-9.4,19.2-14.8,24.6c-2.8,2.8-5.7,5-8.5,6.6c3.4,1.6,13.2,6.2,13.2,6.2s-2.2,10.5-3.3,14.2
				C334.6,102.6,347.2,90.2,354.2,74.7z"/>
			<path class="st7" d="M410.8,97.4c-2.9,0.5-6,0.8-9.3,0.8c-11.1,0-35-4.5-46.6-22.3c-1,3.4-5.4,10.5-9.7,15.2
				c24,33.2,65.2,28.1,68.4,27.8l-11.2-9.1L410.8,97.4z"/>
		</g>
		<g>
			<g>
				<g>
					<path class="st9" d="M483.4,250.1c-7.7,6.6-13.1,9.1-17.6,12.2c-7.4-16.8-22.8-34.4-25.2-42.8c-2.5-8.4-0.7-18.8-7.7-23
						c-9-5.4-11-12.6-12.8-11.7c-3.4,1.7,0.7,10,4.6,13.9c-1.9,0-1.8-0.5-4.2-0.5c-5.4-5.4-24-23.8-23.1-15.1
						c-2.3-2.3-6.2-2.8-4.9,1.7c-2-1.2-9.9-0.5,6.2,19.5c-1.9,0-7,0.3-13.8-8.3c-6-7.6-6.5-0.2-2.2,5.3c4.3,5.5,10.3,11.8,14,12.8
						c3.7,0.9,20.9,2.4,23.8,3c2.9,0.7,9.4,54.6,36.3,81.6c8.6,8.6,36.3-8.8,45.2-16.2C501.9,264.9,492.8,253.5,483.4,250.1z"/>
					<g>
						<path class="st10" d="M398.5,204.3c3.7-1.3,7.7-1.9,11.5-2.2c3.9-0.4,7.9-0.3,11.7,0.8C414,202.3,406.2,203.4,398.5,204.3z"/>
						<path class="st10" d="M397.2,183.1c3.1,2.4,6,5.2,8.8,7.9c2.8,2.8,5.6,5.6,8.1,8.6c-3.1-2.4-6-5.2-8.8-7.9
							C402.5,189,399.7,186.2,397.2,183.1z"/>
						<path class="st10" d="M392.3,184.8c2.5,2.4,4.7,5.2,6.8,7.9c2.1,2.7,4.2,5.5,6,8.5c-2.5-2.4-4.7-5.2-6.8-7.9
							C396.2,190.6,394.1,187.8,392.3,184.8z"/>
					</g>
				</g>
				<g>
					<path class="st3" d="M535.3,206.5c-12,2.2-20.1,5.7-24.6,10.3c-4.6,4.6-21.2,19.5-33.3,31.6c6.7,9.8,15.3,20.9,22.1,27.7
						c0,18.9-3.4,45.2,6.9,80.7c19.8,0,80.1,0,105.7,0c-4.9-10.5-14.7-37.6-14.7-48.8c3.9-7.4,11.2-14.4,11.2-14.4s2,1.2,5.5,1.2
						c2.9-12.4,19.2-64.6,9.3-74.5c-9.9-9.9-18.5-12.1-43-17.4C568.7,208.1,556.9,213.7,535.3,206.5z"/>
					<g>
						<path class="st7" d="M602.7,332.1c-3-9.3-5.4-18.7-5.4-24.2c-9.9,9.9-78.1,48.8-78.1,48.8s23.4,0,28.5,0
							C559.5,356.7,586.7,337.6,602.7,332.1z"/>
						<path class="st7" d="M571.3,284.4c1.4-6.8,3.7-13.5,6-20.1c2.4-6.5,5-13.1,8.4-19.2c-1.6,6.4-3.9,12.6-6.1,18.8
							C577.2,270.8,574.6,277.8,571.3,284.4z"/>
						<path class="st7" d="M499.4,276c-0.4-6.8,0.2-13.9,1.3-20.6c1.2-6.8,2.6-13.5,5-20.1c-0.7,6.4-1.9,12.8-2.9,19.2
							C501.8,261.7,500.8,268.9,499.4,276z"/>
					</g>
				</g>
				<path class="st9" d="M608.5,293.5c-8.1,18-17.8,34.8-22.8,39.8c-4.1,4.1-28.8,16.7-50.2,23.3c-24.6,0-58.9,0-65.9,0
					c0-11.2,0-11.6,0-16.1c7.7,0,18.7-3.1,30.6,4.3c22.9-3.6,44.7-20,58.6-29.9c6.4-14.4,9-22.8,12.5-30.6
					C582.9,287.2,595.9,291.4,608.5,293.5z"/>
				<g>
					<path class="st11" d="M520.8,127.9c-14.2-9.7-18.9-23.4-10.5-26.8c8.4-3.4,10.4,6.5,17,0c6.5-6.5,6.4-7.4,14-3.4
						c7.7,3.9,23.9-8.3,43.2,11c16.2,16.2,11.1,25.6,7.1,36.5c-3.9,10.9-7,25.7-20.4,28.9C554.6,168.5,532.5,139.5,520.8,127.9z"/>
					<g>
						<path class="st9" d="M520.7,122.2c-6.9,19-15.4,70.5,17.5,74.1c0.9,6.3-0.4,8.9-2.9,10.2c5,36.2,46.3,11.7,45-3.6
							c-3.2-1.5-8.4-6.5-5.6-33.8c5.7-0.5,8.8-8.2,8.1-14.2c-0.7-6-8.3-12.4-12.4,1.8c-10.4-10.4-6.6-19.8-9.3-27.8
							C558.5,121.1,536,116.8,520.7,122.2z"/>
						<g>
							<path class="st11" d="M519.2,150.9c-0.1,1.5,0.6,2.7,1.6,2.8c1,0.1,2-1,2.2-2.5c0.1-1.5-0.6-2.7-1.6-2.8
								C520.4,148.4,519.4,149.4,519.2,150.9z"/>
							<path class="st11" d="M537.9,150.9c-0.1,1.5,0.6,2.7,1.6,2.8c1,0.1,2-1,2.2-2.5c0.2-1.5-0.6-2.7-1.6-2.8
								C539,148.4,538,149.5,537.9,150.9z"/>
							<path class="st10" d="M538.3,196.2c4.8-0.2,9.6-1.2,14.1-2.9c4.8-1.8,8.9-4.4,12.9-7.4c-3.6,3.7-7.7,6.6-12.5,8.4
								C548.2,195.9,543,196.9,538.3,196.2z"/>
							<path class="st10" d="M573.3,158.9c1.5-3.6,4.2-7.1,5-4.8c0.9,2.3-0.5,10.9-4,10.2C575.3,162.1,575.2,159.2,573.3,158.9z"/>
							<path class="st10" d="M527.8,153.7c-0.5,1.4-1,2.9-1.5,4.3c-0.8,2.2-1.7,4.6-1.7,7c0,3.8,7.2,1.9,8.1-0.5
								c-0.3,1.9-2.9,3-4.5,3.3c-2.1,0.4-4.5-0.1-4.6-2.6c0-2.3,0.9-4.7,1.8-6.8C526.1,156.8,526.9,155.2,527.8,153.7z"/>
							<path class="st12" d="M527.7,177.1c1.8-0.2,3.6-0.4,5.3-0.8c2-0.5,3.7-1.3,5.5-2.3C536.7,177.7,531.3,179,527.7,177.1z"/>
							<path class="st10" d="M524.4,147.6c-0.8-0.2-1.5-0.4-2.3-0.5c-1-0.2-2,0-3,0C520.4,145.5,523.4,145.7,524.4,147.6z"/>
							<path class="st11" d="M527.7,142c0-0.1-4-0.5-4.4-0.6c-1.6-0.2-3.2,0-4.8,0C520.6,138.5,526,138.8,527.7,142z"/>
							<path class="st10" d="M543,147.6c-0.8-0.2-1.5-0.4-2.3-0.5c-1-0.2-2,0-3,0C539,145.5,542,145.8,543,147.6z"/>
							<path class="st11" d="M545.9,142.9c0-0.1-4.9-0.8-5.4-0.8c-1.8-0.2-3.5,0-5.3,0.1C537.7,138.9,543.7,139.5,545.9,142.9z"/>
						</g>
					</g>
				</g>
			</g>
			<g>
				<g>
					<path class="st11" d="M103,146.5c-14.2,6.9-22.9,15.6-22.9,31.4s-24.2,17.6-11.6,36c17.9,0,26-1.1,38.7-6.3
						c5.3-11.6-0.5-22.6-4.2-26.3c-3.7-3.7-7-25.3,3.5-25.3c4.7,4.7,10.1,11.5,18,17.4c20.5-6.3,36.4-18.7,52.2-24
						c10.4-0.7,25.7-34.7,7.8-41.8c-24.6-9.8-52.9-20.3-68.9-4.2C99.6,119.5,99.3,135.4,103,146.5z"/>
					<path class="st13" d="M179.9,118c0.8-1.4,1.7-2.8,2.4-4.2c0.8-1.4,1.6-2.8,2.6-4.1C184.5,112.9,182.6,116.3,179.9,118z"/>
					<path class="st14" d="M105.2,158c-0.7,0-1.4-0.4-1.8-1.1c-2.3-4.4-3.6-9.7-3.7-9.9c-0.3-1.1,0.4-2.2,1.4-2.4
						c1.1-0.3,2.2,0.4,2.4,1.4c0,0,1.3,5,3.4,9.1c0.5,1,0.1,2.2-0.9,2.7C105.8,157.9,105.5,158,105.2,158z"/>
				</g>
				<g>
					<path class="st9" d="M228.9,265.2c9.8-13.3,18.6-22.1,21.4-28.1c0-15.1,2.5-37,14.6-33.5c4.6-10.2,8.5-22.7,11.8-21.8
						c3.3,0.9-0.4,12.4-4.1,23.1c6.5,1.1,14.2,1.1,11.4,9.3c2.5,1.1,2.6,4.6,1.1,6.1c1.9,4.3-1.1,7.1-9.1,10.2
						c-2.3,5.4-5.8,9.6-7.3,11.1c-1.9,5.1-7.5,20.2-10.8,29.8C251,271.3,239.2,270.3,228.9,265.2z"/>
					<g>
						<path class="st10" d="M265.4,205.8c2.7,0.6,5.3,1.3,7.9,2.1c0.8,0.2,1.7,0.5,2.5,0.7c0.6,0.2,1.4,0.3,2,0.7c1.3,1,1,2.9,0.1,4
							c-2.2,2.9-6.4,1.5-9.2,0.8c-1.7-0.4-3.5-0.8-5.3-0.3c-1.5,0.4-2,1.8-3.3,2.3c1-0.6,1.5-1.9,2.6-2.5c1.3-0.7,2.9-0.7,4.4-0.6
							c2.9,0.3,6.8,2.2,9.5,0.2c0.8-0.6,1.7-2.3,0.7-3.2c-0.4-0.4-1.5-0.6-2.1-0.8c-0.8-0.3-1.6-0.6-2.4-0.9
							C270.3,207.6,267.9,206.7,265.4,205.8z"/>
						<path class="st10" d="M284,214.1c-1.1,2.1-3.3,3.7-5.3,4.8c-2.6,1.5-5.7,2.2-8.7,2.6c-1.3,0.2-2.8,0.3-4.1-0.2
							c-1.3-0.6-1.7-1.9-0.9-3.1c1.5-2.3,4.5-2.4,6.7-3.8c-1.8,1.5-4.4,1.8-5.8,3.8c-0.8,1-0.5,2.1,0.7,2.4c1.3,0.4,2.7,0,4-0.1
							C275.3,219.8,280.9,218.1,284,214.1z"/>
						<path class="st10" d="M285.1,220.2c-2.5,3.8-7.7,5.6-12,5.8c-1.5,0.1-6.1,0.5-6.5-1.6c-0.4-1.9,2.8-3.3,4.2-3.5
							c-1.2,0.3-3.6,1.7-3.6,3.1c0,1.6,5.5,1.1,6.5,0.9C277.7,224.7,282.2,223.1,285.1,220.2z"/>
						<path class="st10" d="M276,230.4c-1.8,0.6-4.3,0.9-6.1,0c-2.5-1.2-0.7-3.7,0.9-4.8c-0.7,1.2-2.3,3.3-0.2,4
							C272.2,230.3,274.2,230.3,276,230.4z"/>
					</g>
				</g>
				<g>
					<path class="st3" d="M97.6,198.9c-16.7,1.1-30.3,3.3-35.6,8.7c-11.1,11.1-31.4,56.6-45.1,91.9c-11,17.4-7.4,21,0,28.4
						c22.1,0,29.7-10.8,39.2-20.3c6.9-15.8,9-16.6,11.9-23.1c3.4,9.7,7.6,45.3,4.6,72.3c24.2,0,74.5,0,89.8,0
						c0-22.6,9.5-56.5,14.2-72.3c11,3.7,19.5,10.5,25.8,10.5c8.9-8.9,14.2-24.7,14.2-28.9c-16.3-22.6-34.7-51.4-38.9-56.6
						c-4.5-5.6-8.4-6.5-19.3-7.3C147.5,205.1,118.9,209.8,97.6,198.9z"/>
					<g>
						<path class="st7" d="M56.1,307.6c-2-1.3-4.5-1.9-6.8-2.4c-3.2-0.7-6.6-1.1-9.9-1.2c-5.8-0.5-11.6,0.2-17.4,0.2
							c5.5-1.6,11.4-2.5,17.2-2.2c3.2,0.2,6.4,0.7,9.5,1.5C51.2,304.2,54.3,305.5,56.1,307.6z"/>
						<path class="st7" d="M176.7,284.4c0.6-3.6,0.9-7.1,0.6-10.7c-0.3-4.4-1.2-8.7-2.4-13c-1.9-7.8-5.1-15.3-7.7-22.9
							c4,7,7.5,14.3,9.6,22c1.2,4.5,2,9.2,2,13.8C178.7,277.4,178,280.9,176.7,284.4z"/>
						<path class="st7" d="M86.5,249.7c-6.3,11.6-12.6,22.8-18.5,34.7c1.1,3.2,2.3,9.1,3.3,16.6C75,284.3,83.5,261.3,86.5,249.7z"/>
					</g>
				</g>
				<path class="st9" d="M56.1,307.6c16.9,15.1,35,30.4,55.3,37.4c19.9,0,34.3,6.8,43.1,11.8c-19.6,0-40,0-60.4,0
					c-15.3-5.1-62.6-19.1-77.1-28.8C22.3,319.5,35.2,310.7,56.1,307.6z"/>
				<g>
					<path class="st9" d="M179.9,118c3.2,20,0.9,76.3-32.1,73.5c-2.1,6-0.1,8.1,1.1,9.8c3.1,0.2,5.6,0.6,9.5,0.8
						c-4.9,14-40.5,32.9-60.8-3.2c2.9-0.1,5.5-0.3,7.1-0.4c3.4-6.6,10.1-13.2,12.5-40.6c-5.5-1.6-7.1-9.7-5.3-15.5
						c1.8-5.8,10.5-10.6,11.8,4.2c3.9-3.9,7.6-2.8,10.3-10.8C136.7,127.6,158.5,139.5,179.9,118z"/>
					<g>
						<path class="st10" d="M147.9,191.5c-4.8-0.2-9.7-2.2-13.8-4.7c-4.5-2.6-7.9-6.3-10.7-10.6c3.3,3.7,6.8,7,11.1,9.7
							C138.6,188.4,143.1,190.4,147.9,191.5z"/>
						<path class="st10" d="M120.5,148.1c-0.8-3.8-2.7-7.8-4-5.7c-1.3,2.1-1.6,10.8,2,10.8C118,151,118.6,148.1,120.5,148.1z"/>
						<path class="st10" d="M166.8,150c0.5,1.8,0.9,3.6,1.2,5.4c0.4,2.6,1,5.7,0.1,8.3c-1.3,4.2-8.8,0.6-8.7-2.7
							c0.5,2.6,7.1,5.8,7.9,2c0.5-2.5,0.2-5.3,0-7.9C167.2,153.4,167,151.7,166.8,150z"/>
						<path class="st12" d="M161.9,174.3c-3.9,1.3-9-1.1-10-5.1c1.5,1.2,2.9,2.3,4.6,3.2C158.3,173.2,160.1,173.7,161.9,174.3z"/>
						<path class="st11" d="M175.6,151.2c-0.2,1.5-1.1,2.6-2.2,2.4c-1.1-0.1-1.8-1.4-1.6-2.8c0.2-1.5,1.1-2.6,2.2-2.4
							C175.1,148.4,175.8,149.7,175.6,151.2z"/>
						<path class="st10" d="M171.3,146.9c1.4-1.6,4.3-1.3,5.3,0.5c-1-0.2-1.9-0.5-2.9-0.6C172.9,146.8,172.1,146.8,171.3,146.9z"/>
						<path class="st11" d="M170.3,140c2-2.5,6.8-2,8.2,0.8C177.8,140.8,170.3,140.1,170.3,140z"/>
						<path class="st11" d="M157.9,148.3c-0.2,1.5-1.1,2.6-2.2,2.4c-1.1-0.1-1.8-1.4-1.6-2.8c0.2-1.5,1.1-2.6,2.2-2.4
							C157.4,145.6,158.1,146.8,157.9,148.3z"/>
						<path class="st10" d="M153.6,144c1.4-1.6,4.3-1.3,5.3,0.5c-1-0.2-1.9-0.5-2.9-0.6C155.2,143.9,154.4,144,153.6,144z"/>
						<path class="st11" d="M152.8,139c2-2.5,6.8-2,8.2,0.8C160.3,139.8,152.8,139.1,152.8,139z"/>
					</g>
				</g>
			</g>
		</g>
		<g>
			<g>
				<g>
					<path class="st15" d="M532.3,353.9c0,1.2-0.9,2.1-2.1,2.1h-60c-1.2,0-2.1-0.9-2.1-2.1v-1.4c0-1.2,0.9-2.1,2.1-2.1h60
						c1.2,0,2.1,0.9,2.1,2.1V353.9z"/>
					<path class="st16" d="M487.3,353.9c0,1.2-0.9,2.1-2.1,2.1H355.4c-1.2,0-2.1-0.9-2.1-2.1l-10-98.6c-0.1-1.2,0.9-2.1,2.1-2.1
						h129.8c1.3,0,1.9,0.8,2.1,2.1L487.3,353.9z"/>
				</g>
				<g>
					<path class="st3" d="M414.3,329.4c-13.7,0-24.8-11.1-24.8-24.8c0-13.7,11.1-24.8,24.8-24.8c13.7,0,24.8,11.1,24.8,24.8
						C439.1,318.2,427.9,329.4,414.3,329.4z M414.3,280.5c-13.3,0-24,10.8-24,24c0,13.3,10.8,24,24,24c13.3,0,24-10.8,24-24
						C438.3,291.3,427.5,280.5,414.3,280.5z"/>
					<g>
						<path class="st3" d="M408.6,310.8l-11.2-4.6v-3.3l11.2-4.6v2.7l-9.2,3.7v-0.3l9.2,3.7V310.8z"/>
						<path class="st3" d="M410.1,318.4l5-25.7h3.2l-5,25.7H410.1z"/>
						<path class="st3" d="M419.9,310.8v-2.7l9.2-3.7v0.3l-9.2-3.7v-2.7l11.2,4.6v3.3L419.9,310.8z"/>
					</g>
				</g>
			</g>
			<g>
				<g>
					<path class="st15" d="M131.4,353.9c0,1.2,0.9,2.1,2.1,2.1h60c1.2,0,2.1-0.9,2.1-2.1v-1.4c0-1.2-0.9-2.1-2.1-2.1h-60
						c-1.2,0-2.1,0.9-2.1,2.1V353.9z"/>
					<path class="st16" d="M176.5,353.9c0,1.2,0.9,2.1,2.1,2.1h129.8c1.2,0,2.1-0.9,2.1-2.1l10-98.6c0.1-1.2-0.9-2.1-2.1-2.1H188.6
						c-1.3,0-1.9,0.8-2.1,2.1L176.5,353.9z"/>
				</g>
				<g>
					<path class="st3" d="M249.8,329.4c-13.7,0-24.8-11.1-24.8-24.8c0-13.7,11.1-24.8,24.8-24.8c13.7,0,24.8,11.1,24.8,24.8
						C274.6,318.2,263.4,329.4,249.8,329.4z M249.8,280.5c-13.3,0-24,10.8-24,24c0,13.3,10.8,24,24,24c13.3,0,24-10.8,24-24
						C273.8,291.3,263,280.5,249.8,280.5z"/>
					<g>
						<path class="st3" d="M245.2,319.1c-1.6,0-2.8-0.4-3.7-1.2c-0.8-0.8-1.2-2-1.2-3.5v-7.1c0-0.6-0.2-1.1-0.5-1.4
							c-0.3-0.3-0.8-0.5-1.4-0.5h-0.5v-2.7h0.5c0.6,0,1-0.2,1.4-0.5c0.3-0.3,0.5-0.8,0.5-1.4v-6c0-1.6,0.4-2.8,1.2-3.6
							c0.8-0.8,2-1.2,3.7-1.2c0.4,0,0.8,0,1.1,0c0.4,0,0.7,0.1,1,0.1v2.6h-1.6c-0.7,0-1.2,0.2-1.5,0.5c-0.3,0.3-0.5,0.8-0.5,1.5v5.9
							c0,1.1-0.3,2-0.8,2.6c-0.6,0.6-1.5,1-2.9,1.1v-0.4c1.4,0.1,2.3,0.4,2.9,1c0.6,0.6,0.8,1.5,0.8,2.6v6.9c0,0.7,0.2,1.1,0.5,1.5
							c0.3,0.3,0.9,0.5,1.5,0.5h1.6v2.6c-0.3,0-0.6,0.1-1,0.1C246,319.1,245.6,319.1,245.2,319.1z"/>
						<path class="st3" d="M254.4,319.1c-0.4,0-0.8,0-1.1,0c-0.4,0-0.7-0.1-1-0.1v-2.6h1.6c0.7,0,1.2-0.2,1.5-0.5
							c0.3-0.3,0.5-0.8,0.5-1.5v-6.9c0-1.1,0.3-2,0.9-2.6c0.6-0.6,1.5-1,2.9-1v0.4c-1.3-0.1-2.3-0.4-2.9-1.1
							c-0.6-0.6-0.9-1.5-0.9-2.6v-5.9c0-0.7-0.2-1.2-0.5-1.5c-0.3-0.3-0.9-0.5-1.5-0.5h-1.6v-2.6c0.3,0,0.6-0.1,1-0.1
							c0.4,0,0.7,0,1.1,0c1.6,0,2.9,0.4,3.7,1.2c0.8,0.8,1.2,2,1.2,3.6v6c0,0.6,0.2,1.1,0.5,1.4c0.3,0.3,0.8,0.5,1.4,0.5h0.5v2.7
							h-0.5c-0.6,0-1,0.2-1.4,0.5c-0.3,0.3-0.5,0.8-0.5,1.4v7.1c0,1.6-0.4,2.7-1.2,3.5C257.2,318.7,256,319.1,254.4,319.1z"/>
					</g>
				</g>
			</g>
		</g>
		<path class="st17" d="M639,356.7c0,0-9.6,0.1-26.5,0.3c-8.4,0.1-18.7,0.2-30.4,0.3c-11.8,0.1-25,0.2-39.5,0.3
			c-14.5,0.1-30.1,0.2-46.7,0.2c-16.6,0.1-34,0.1-52.1,0.2c-36.2,0.1-74.7,0.1-113.3,0.2c-38.6-0.1-77.1-0.1-113.3-0.2
			c-18.1-0.1-35.6-0.1-52.1-0.2c-16.6-0.1-32.2-0.2-46.7-0.2c-14.5-0.1-27.7-0.2-39.5-0.3c-11.7-0.1-22-0.2-30.4-0.3
			c-16.9-0.2-26.5-0.3-26.5-0.3s9.6-0.1,26.5-0.3c8.4-0.1,18.7-0.2,30.4-0.3c11.8-0.1,25-0.2,39.5-0.3c14.5-0.1,30.1-0.2,46.7-0.2
			c16.6-0.1,34-0.1,52.1-0.2c36.2-0.1,74.7-0.1,113.3-0.2c38.6,0.1,77.1,0.1,113.3,0.2c18.1,0.1,35.6,0.1,52.1,0.2
			c16.6,0.1,32.2,0.2,46.7,0.2c14.5,0.1,27.7,0.2,39.5,0.3c11.8,0.1,22,0.2,30.4,0.3C629.4,356.6,639,356.7,639,356.7z"/>
	</g>
</g>
</svg>
