<?xml version="1.0" encoding="utf-8"?>
<!-- Generator: Adobe Illustrator 28.1.0, SVG Export Plug-In . SVG Version: 6.00 Build 0)  -->
<svg version="1.1" id="Ñëîé_1" xmlns="http://www.w3.org/2000/svg" xmlns:xlink="http://www.w3.org/1999/xlink" x="0px" y="0px"
	 viewBox="0 0 1160 772" style="enable-background:new 0 0 1160 772;" xml:space="preserve">
<style type="text/css">
	.st0{fill:#B6DBD9;}
	.st1{fill:#FFFFFF;}
	.st2{fill:#316D6D;}
	.st3{fill:#D7D4FF;}
	.st4{fill:#2E1D66;}
	.st5{fill:#1F1440;}
	.st6{fill:#352364;}
	.st7{fill:#D8B993;}
	.st8{fill:#FFADAE;}
	.st9{fill:#FF9395;}
	.st10{fill:#452B99;}
	.st11{fill:#729B98;}
	.st12{fill:#54238E;}
</style>
<path class="st0" d="M998.89,543.53c-1.04,4.28-2.19,8.53-3.44,12.73c-0.38,1.23-0.75,2.45-1.14,3.67
	c-4.84,15.31-11.06,30.13-18.07,44.58c-3.67,7.56-7.54,15.02-11.54,22.41c-2.13,3.92-4.29,7.83-6.48,11.71
	c-10.79,19.18-21.62,48.23-42.72,58.2c-14.43,6.81-39.64,1.21-54.94,1.9c-32.81,1.49-64.4,0.85-96.23,0.19
	c-1.1-0.02-2.2-0.04-3.3-0.06c-20.45-0.42-41.02-0.82-62.11-0.64c-49.84,0.43-95.74-0.43-145.58-0.31
	c-31.12,0.08-64.13-3.62-95.25-3.6c-27.89,0.02-83.18,10.99-108.16-0.02c-46.1-20.33-79.24-39.13-74.72-96.72
	c2.19-27.79,10.29-56.69,1.01-84.01c-6.02-17.72-17.22-31.65-28.94-45.57c-0.68-0.79-1.34-1.58-2.01-2.39
	c-3.58-4.23-7.18-8.47-10.67-12.85c-13.81-17.29-27.16-35.91-38.65-55.61c-0.51-0.88-1.02-1.76-1.53-2.65
	c-17.81-31.18-30.81-64.99-33.42-100.45c-0.54-7.31-0.63-14.69-0.24-22.12c0.06-1.26,0.15-2.51,0.25-3.77
	c1.26-15.88,5.08-31.1,10.93-45.51c0.5-1.2,1-2.41,1.52-3.6c14.27-32.9,39.11-61.35,67.84-83.16c1.02-0.78,2.06-1.55,3.1-2.31
	c3-2.21,6.03-4.34,9.1-6.4c8.85-5.94,18.18-11.59,27.92-16.9c7.29-3.99,14.81-7.79,22.52-11.38c48-22.38,103.46-36.91,158.46-39.68
	c6.48-0.33,12.95-0.49,19.4-0.49c49.28,0.04,97.43,9.98,138.66,32.67c5.6,3.08,11.08,6.4,16.42,9.96
	c20.08,13.41,38.14,30.26,53.42,50.92c7.52,10.18,14.25,20.85,20.55,31.78c0.52,0.9,1.04,1.8,1.54,2.69
	c18.6,32.68,33.77,67.41,55.71,98.08c0.67,0.92,1.33,1.84,2,2.74c0.66,0.88,1.32,1.74,1.99,2.6c28.62,36.87,67.19,55.15,111.09,70.2
	c0.19,0.06,0.39,0.14,0.58,0.2c1,0.34,2,0.69,3,1.04h0.01c24.48,8.39,50.88,17.85,72.18,33.43c7.19,5.25,13.81,11.2,19.58,18.04
	c2.12,2.51,4.13,5.17,6.01,7.93c6.28,9.25,10.91,19.42,14.16,30.09c0.37,1.21,0.72,2.43,1.05,3.67
	C1007.54,483.48,1005.65,515.54,998.89,543.53z"/>
<g>
	<path class="st1" d="M225.12,620.23c22.61-43.34,84.55-49.06,127.33-40.39c25.98,5.27,48.76,18.07,67.99,36.13
		c18.82,17.68,34.27,38.59,50.72,58.4c23.18,27.9,49.3,52.9,78.23,74.78c1.63,1.23,3.21-1.52,1.6-2.74
		c-27.6-20.88-52.78-44.7-75.03-71.22c-17.4-20.74-33.49-42.88-53.28-61.47c-18.77-17.62-40.95-30.56-66.19-36.26
		c-23.39-5.29-48.41-5.47-71.86-0.5c-25.23,5.34-49.91,18.01-62.25,41.66C221.45,620.44,224.18,622.04,225.12,620.23L225.12,620.23z
		"/>
</g>
<g>
	<g>
		<path class="st2" d="M431.33,638.64c0,0-16.8-3.36-26.7,0.04c-9.9,3.4-12.39,6.68-12.76,12.12c-0.36,5.43,8.35,7.95,13.69,5.95
			C410.91,654.74,419.53,650.24,431.33,638.64z"/>
		<path class="st2" d="M420.04,629.32c0,0-10.81-13.74-20.77-18.04c-9.95-4.29-14.08-3.66-17.98-0.07s1.19,11.27,6.67,13.47
			C393.46,626.88,403.15,629.54,420.04,629.32z"/>
		<path class="st2" d="M449.86,646.88c0,0-18.88,1.48-28.37,8.25c-9.49,6.76-11.16,11.12-9.9,17.19c1.26,6.06,11.28,6.14,16.35,2.3
			C433.02,670.78,440.82,663.21,449.86,646.88z"/>
		<path class="st2" d="M456.79,655.2c0,0-16.34,8.98-22.18,19.14c-5.84,10.16-5.6,14.92-2.08,20.1c3.53,5.18,12.55,1.23,15.57-4.41
			C451.14,684.39,455.14,674.15,456.79,655.2z"/>
		<path class="st2" d="M464.32,654.53c0,0-3.49,10.83-1.98,17.98c1.51,7.16,3.5,9.31,7.07,10.34c3.57,1.03,5.9-4.47,4.97-8.36
			C473.45,670.6,471.12,664.15,464.32,654.53z"/>
		<path class="st2" d="M433.49,633.13c0,0-14.53-9.61-19.69-19.24c-5.16-9.63-4.93-13.85-1.76-18.12
			c3.17-4.27,11.19,0.13,13.87,5.46C428.57,606.55,432.1,616.07,433.49,633.13z"/>
		<path class="st2" d="M452.37,640.37c0,0-13-14.68-15.74-26.5c-2.74-11.83-1.21-16.24,3.55-19.81c4.76-3.57,12.21,3.58,13.53,10.07
			C455.04,610.6,456.02,621.81,452.37,640.37z"/>
		<path class="st2" d="M462.75,639.21c0,0-6.39-18.39-4.28-30.09c2.11-11.7,5.29-15.05,11.17-16.34c5.88-1.29,10.04,8.12,8.72,14.46
			C477.02,613.6,473.51,624.04,462.75,639.21z"/>
		<path class="st2" d="M467.88,645.13c0,0,4.26-10.5,9.9-14.7c5.64-4.2,8.47-4.36,11.76-2.55c3.29,1.81,1.53,7.55-1.61,9.75
			C484.79,639.83,478.99,642.91,467.88,645.13z"/>
		<g>
			<path class="st2" d="M413.51,626.32c19.8,8.11,39.58,16.35,58.76,26c17.3,8.7,36.84,18.75,51.44,31.85
				c0.8,0.71-0.31,1.83-1.1,1.12c-14.48-13-33.96-22.97-51.11-31.59c-19.06-9.58-38.71-17.77-58.38-25.83
				C412.16,627.47,412.54,625.92,413.51,626.32L413.51,626.32z"/>
		</g>
		<g>
			<path class="st2" d="M431.57,629.35c1.81,1.81,2.89,4.16,4.66,5.99c0.74,0.77-0.36,1.89-1.1,1.12c-1.77-1.84-2.86-4.19-4.66-5.99
				C429.71,629.71,430.82,628.59,431.57,629.35L431.57,629.35z"/>
		</g>
		<g>
			<path class="st2" d="M427.04,639.04c3.32-0.81,6.63-1.62,9.95-2.43c0.99-0.24,1.45,1.34,0.45,1.58
				c-3.32,0.81-6.63,1.62-9.95,2.43C426.5,640.86,426.05,639.28,427.04,639.04L427.04,639.04z"/>
		</g>
		<g>
			<path class="st2" d="M447.11,646.9c1.98-0.34,4.58-1.18,5.98-2.66c0.7-0.74,1.87,0.44,1.17,1.17c-1.58,1.67-4.45,2.68-6.69,3.06
				C446.56,648.65,446.1,647.07,447.11,646.9L447.11,646.9z"/>
		</g>
		<g>
			<path class="st2" d="M451.96,636.77c0.5,1.12,0.8,2.32,1.14,3.49c0.21,0.7,0.71,3.03,1.14,3.27c0.93,0.51,0.16,1.89-0.77,1.38
				c-0.93-0.51-1.24-2.09-1.52-2.98c-0.46-1.44-0.74-2.99-1.36-4.38C450.17,636.59,451.53,635.8,451.96,636.77L451.96,636.77z"/>
		</g>
		<g>
			<path class="st2" d="M454.3,657.97c1.01-1.84,2.05-3.7,3.33-5.35c1.17-1.5,2.8-2.63,3.81-4.27c0.53-0.87,1.95-0.02,1.41,0.85
				c-0.9,1.46-2.23,2.55-3.37,3.8c-1.54,1.69-2.67,3.81-3.77,5.82C455.22,659.71,453.81,658.86,454.3,657.97L454.3,657.97z"/>
		</g>
		<g>
			<path class="st2" d="M463.96,636c-0.52,2.04-0.18,4.29-0.1,6.4c0.08,2.14,0.31,4.28,0.57,6.42c0.12,1.04-1.49,0.98-1.61-0.06
				c-0.49-4.13-1.44-9.21-0.42-13.23C462.65,634.53,464.21,635,463.96,636L463.96,636z"/>
		</g>
		<g>
			<path class="st2" d="M463.65,656.85c-0.63-2.67-1.02-5.37-1.76-8.01c-0.28-1.02,1.26-1.4,1.54-0.38
				c0.73,2.65,1.13,5.35,1.76,8.01C465.43,657.49,463.89,657.87,463.65,656.85L463.65,656.85z"/>
		</g>
		<g>
			<path class="st2" d="M470.51,644.01c-1.53,0.36-2.9,1.57-4.03,2.58c-1.11,0.99-2.29,2.08-3.03,3.4
				c-0.49,0.89-1.91,0.04-1.41-0.85c0.87-1.57,2.27-2.88,3.61-4.02c1.27-1.09,2.72-2.28,4.4-2.68
				C471.05,642.2,471.5,643.78,470.51,644.01L470.51,644.01z"/>
		</g>
	</g>
</g>
<g>
	<path class="st1" d="M712.39,186.73c-31.25,13.73-70.19,12.26-103.56,8.18c-22.09-2.69-43.55-6.72-65.89-6.5
		c-23.62,0.24-47.93,2.98-70.19,11.27c-19.96,7.43-39.48,21.17-42.62,43.75c-1.76,12.71,2.02,25.14,6.44,36.92
		c5.03,13.35,11.23,26.29,15.49,39.93c3.59,11.49,6.07,24.25,2.48,36.05c-4.18,13.74-15.91,22.5-28.38,28.46
		c-33.28,15.9-68.16,6.42-102.03-1.9c-18.67-4.59-37.06-7.74-56.34-7.44c-17.36,0.26-35.19,1.53-51.31,8.52
		c-7.6,3.29-14.3,7.9-20.53,13.16c-0.51-0.88-1.02-1.76-1.53-2.65c8.52-7.07,17.69-12.82,28.68-16.36
		c15.97-5.15,33.04-5.81,49.69-5.88c18.03-0.08,35.58,3.51,53.02,7.81c17.74,4.37,35.55,9.43,53.89,10.4
		c19.6,1.01,39.38-3.41,55.76-14.53c12.55-8.53,18.69-21.32,17.46-36.4c-1.14-14.01-6.86-27.46-12.15-40.32
		c-8.86-21.56-20.41-45.83-10.15-69c8.44-19.07,28.42-29.63,47.37-35.68c22.32-7.13,46.28-9.44,69.63-9.3
		c22.84,0.15,45,4.79,67.64,7.25c27.3,2.98,55.92,4.09,82.57-3.66c4.52-1.31,8.86-2.92,13.01-4.79
		C711.37,184.93,711.88,185.83,712.39,186.73z"/>
</g>
<g>
	<path class="st1" d="M772.08,290.15c-13.22,5.38-27.42,8.35-42.3,8.74c-29.55,0.79-58.68-6.93-86.83-15.05
		c-15.37-4.44-30.97-9.25-47.08-9.76c-15.64-0.49-30.8,3.85-43.6,12.86c-11.44,8.05-20.36,20.1-14.95,34.54
		c2.46,6.58,6.67,12.34,9.53,18.73c2.39,5.34,3.99,11.09,5.06,16.84c8.74,47.08-27.47,87.14-69.63,101.86
		c-26.49,9.24-54.41,7.66-81.57,2.66c-28.97-5.34-57.62-13.4-87.36-11.62c-21.8,1.31-47.36,5.27-66.07,18.06
		c-0.68-0.79-1.34-1.58-2.01-2.39c21.01-14.28,49.71-18.59,74.43-19.09c29.01-0.59,57.03,7.67,85.35,12.61
		c29.33,5.11,59.4,5.19,86.88-7.53c21.72-10.05,41.15-26.82,51.26-48.83c5.22-11.36,7.59-23.89,6.74-36.37
		c-0.94-13.62-6.01-24.86-12.28-36.74c-5.4-10.23-7.53-20.79-1.18-31.16c6.01-9.79,16.47-16.79,26.76-21.4
		c28.59-12.8,58.69-2.46,87,5.54c25.83,7.29,52.52,13.83,79.54,13.1c14.17-0.38,27.7-3.15,40.32-8.17
		C770.75,288.42,771.42,289.29,772.08,290.15z"/>
	<path class="st1" d="M809.45,266.07c-1.63,1.53-3.3,3.01-4.99,4.43c-0.74-0.52-1.1-1.58-0.26-2.39c1.08-1.05,2.31-1.89,2.6-3.58
		C807.67,265.03,808.56,265.55,809.45,266.07z"/>
</g>
<g>
	<path class="st1" d="M879.71,612.95c-18.53,10.4-40.51,13.1-60.75,18.54c-10.26,2.76-19.5,6.11-27.6,13.22
		c-12.65,11.08-21.55,26.58-25.4,42.9c-0.9,3.81-1.46,7.59-1.64,11.3c-1.1-0.02-2.2-0.04-3.3-0.06c0.46-7.8,2.42-15.57,5.18-22.77
		c5.48-14.3,14.59-27.53,26.86-36.84c7.68-5.82,16.81-8.64,26.03-11.07c20.87-5.51,44.79-8.04,63.04-20.43
		c8.36-5.67,13.9-14.01,13.57-24.36c-0.31-9.66-6.21-16.54-14.47-20.93c-19.33-10.25-43.31-10.54-64.34-15.02
		c-9.36-1.99-19.22-4.48-27.32-9.78c-7.87-5.14-13.73-13.88-17.59-22.32c-18.75-41.03,16.98-82.29,45.57-107.83
		c18.47-16.5,38.83-30.91,59.99-43.76c1.87-1.14,3.75-2.26,5.64-3.38c0.19,0.06,0.39,0.14,0.58,0.2c1,0.34,2,0.69,3,1.04
		c-29.37,16.69-57.17,37.12-80.38,60.96c-14.86,15.26-29.12,33.34-34.46,54.38c-4.93,19.41,0.41,41.23,15.44,55.05
		c7.08,6.5,17.13,9.31,26.23,11.47c10.77,2.56,21.75,4.09,32.65,5.97c16.3,2.82,40.07,5.81,49.34,21.74
		C905.01,587.41,894.22,604.81,879.71,612.95z"/>
</g>
<g>
	<g>
		<path class="st2" d="M756.96,446.33c0,0,13.18-25.71,12.33-43.78c-0.84-18.07-4.94-23.95-13.46-27.51
			c-8.53-3.55-16.6,9.35-15.87,19.2C740.68,404.09,743.87,420.67,756.96,446.33z"/>
		<path class="st2" d="M777.11,432.9c0,0,27.01-10.24,38.51-24.22c11.49-13.98,12.4-21.08,8.45-29.44
			c-3.95-8.35-18.59-4.19-24.65,3.61C793.36,390.65,784.61,405.09,777.11,432.9z"/>
		<path class="st2" d="M735.17,472.21c0,0,6.39-31.76-0.02-51c-6.41-19.25-12.62-24.35-22.91-25.58
			c-10.29-1.24-15.07,15.15-11.28,25.56C704.75,431.59,713.23,448.5,735.17,472.21z"/>
		<path class="st2" d="M718.64,479.04c0,0-6.78-31.67-20.33-46.78c-13.55-15.1-21.27-17.31-31.2-14.35
			c-9.93,2.96-7.79,19.9-0.17,27.93C674.56,453.89,689.08,466.03,718.64,479.04z"/>
		<path class="st2" d="M716.22,491.76c0,0-15.7-11.61-27.85-13.04c-12.15-1.42-16.52,0.66-19.83,5.96
			c-3.31,5.3,4.41,12.1,11.07,12.7C686.26,497.97,697.66,497.66,716.22,491.76z"/>
		<path class="st2" d="M764.78,452.87c0,0,22.12-18.59,39.92-21.8c17.81-3.22,24.45-0.54,29.82,6.98
			c5.37,7.52-5.41,18.27-15.17,19.76C809.59,459.29,792.72,459.89,764.78,452.87z"/>
		<path class="st2" d="M744.42,479.88c0,0,29.53-13.32,49.72-11.37s26.55,6.86,30.05,16.61c3.5,9.75-11.4,18.07-22.39,16.7
			C790.82,500.46,772.43,495.97,744.42,479.88z"/>
		<path class="st2" d="M741.45,497.52c0,0,32.39-0.47,50.14,9.36c17.75,9.83,21.62,16.87,20.96,27.2
			c-0.67,10.34-17.65,12.04-27.19,6.41C775.82,534.87,760.75,523.43,741.45,497.52z"/>
		<path class="st2" d="M729.6,502.72c0,0,14.83,12.71,18.93,24.23c4.1,11.52,3.05,16.25-1.38,20.66c-4.43,4.41-12.78-1.6-14.85-7.95
			C730.24,533.31,727.99,522.13,729.6,502.72z"/>
		<path class="st2" d="M782.64,422.36c-22.02,27.86-55.17,67.67-79.36,93.7l1.85,2.01c24.34-26.2,57.64-66.19,79.81-94.23
			C786.04,422.45,783.72,420.99,782.64,422.36z"/>
		<g>
			<path class="st2" d="M771.72,451.78c-3.73,1.98-7.99,2.48-11.75,4.38c-1.57,0.8-2.86-1.62-1.28-2.42
				c3.76-1.9,8.03-2.4,11.75-4.38C771.99,448.54,773.27,450.96,771.72,451.78L771.72,451.78z"/>
		</g>
		<g>
			<path class="st2" d="M758.31,439.08c-0.25,5.88-0.49,11.75-0.74,17.63c-0.07,1.76-2.81,1.65-2.74-0.11
				c0.25-5.88,0.49-11.75,0.74-17.63C755.65,437.21,758.39,437.32,758.31,439.08L758.31,439.08z"/>
		</g>
		<g>
			<path class="st2" d="M736.41,467.7c-0.38,3.44-0.24,8.15,1.47,11.24c0.85,1.55-1.57,2.82-2.42,1.28
				c-1.93-3.5-2.22-8.75-1.79-12.64C733.87,465.84,736.61,465.94,736.41,467.7L736.41,467.7z"/>
		</g>
		<g>
			<path class="st2" d="M750.37,481.17c-2.03,0.21-4.09,0.04-6.12-0.03c-1.21-0.04-5.18-0.49-5.76,0.09
				c-1.25,1.25-3.1-0.77-1.85-2.02c1.24-1.24,3.92-0.9,5.48-0.87c2.51,0.04,5.13,0.41,7.63,0.16
				C751.49,478.33,752.12,480.99,750.37,481.17L750.37,481.17z"/>
		</g>
		<g>
			<path class="st2" d="M715.37,473.46c2.47,2.65,4.97,5.37,7.01,8.38c1.86,2.74,2.91,6.03,5.07,8.57c1.14,1.34-0.87,3.2-2.02,1.85
				c-1.93-2.27-3.04-5.05-4.51-7.6c-1.99-3.45-4.86-6.44-7.57-9.34C712.15,474.02,714.17,472.17,715.37,473.46L715.37,473.46z"/>
		</g>
		<g>
			<path class="st2" d="M746.04,501.25c-3.02-1.96-6.79-2.63-10.19-3.65c-3.46-1.04-6.99-1.81-10.53-2.56
				c-1.72-0.36-0.88-2.97,0.84-2.61c6.84,1.44,15.41,2.65,21.37,6.51C749,499.91,747.52,502.21,746.04,501.25L746.04,501.25z"/>
		</g>
		<g>
			<path class="st2" d="M712.82,489.39c4.56,0.42,9.06,1.25,13.64,1.48c1.76,0.09,1.65,2.83-0.11,2.74
				c-4.58-0.24-9.08-1.07-13.64-1.48C710.96,491.97,711.06,489.23,712.82,489.39L712.82,489.39z"/>
		</g>
		<g>
			<path class="st2" d="M730.18,507.63c0.13-2.71-1.17-5.6-2.25-8.01c-1.06-2.36-2.26-4.89-4.03-6.81c-1.2-1.3,0.82-3.15,2.02-1.85
				c2.11,2.28,3.55,5.29,4.76,8.11c1.15,2.68,2.39,5.7,2.25,8.68C732.82,509.5,730.09,509.39,730.18,507.63L730.18,507.63z"/>
		</g>
	</g>
</g>
<g>
	<path class="st3" d="M645.19,299.13c0,0,5.9-10.54,5.82-18.11c-0.08-7.57-1.7-10.09-5.21-11.7c-3.51-1.62-7.08,3.66-6.93,7.78
		C639.03,281.23,640.11,288.21,645.19,299.13z"/>
	<path class="st3" d="M653.81,293.83c0,0,11.45-3.87,16.46-9.53c5.02-5.67,5.5-8.62,3.98-12.17c-1.52-3.55-7.7-2.04-10.36,1.13
		C661.25,276.42,657.37,282.32,653.81,293.83z"/>
	<path class="st3" d="M635.69,309.61c0,0,3.15-13.17,0.77-21.31c-2.39-8.14-4.9-10.37-9.18-11.04c-4.28-0.67-6.53,6.1-5.1,10.51
		S626.88,299.37,635.69,309.61z"/>
	<path class="st3" d="M628.67,312.22c0,0-2.35-13.34-7.78-19.86c-5.43-6.52-8.62-7.56-12.82-6.47c-4.19,1.09-3.56,8.2-0.5,11.67
		C610.64,301.04,616.52,306.33,628.67,312.22z"/>
	<path class="st3" d="M627.47,317.49c0,0-6.38-5.09-11.44-5.87c-5.06-0.78-6.91,0.02-8.38,2.19c-1.46,2.16,1.66,5.13,4.43,5.48
		C614.85,319.63,619.62,319.68,627.47,317.49z"/>
	<path class="st3" d="M648.36,301.98c0,0,9.53-7.43,17.02-8.5c7.49-1.07,10.23,0.15,12.36,3.37c2.13,3.22-2.54,7.55-6.64,8.03
		C666.98,305.35,659.93,305.34,648.36,301.98z"/>
	<path class="st3" d="M639.44,312.96c0,0,12.54-5.12,20.95-3.99c8.41,1.12,10.99,3.27,12.31,7.4c1.32,4.13-5.04,7.38-9.61,6.64
		C658.51,322.27,650.9,320.11,639.44,312.96z"/>
	<path class="st3" d="M637.93,320.29c0,0,13.54,0.3,20.81,4.68c7.27,4.38,8.78,7.38,8.34,11.69c-0.44,4.31-7.56,4.76-11.46,2.26
		C651.72,336.42,645.59,331.41,637.93,320.29z"/>
	<path class="st3" d="M632.9,322.28c0,0,6,5.54,7.54,10.42c1.54,4.88,1.03,6.84-0.89,8.61c-1.92,1.77-5.32-0.86-6.08-3.55
		C632.69,335.08,631.92,330.37,632.9,322.28z"/>
	<path class="st3" d="M656.29,289.5c-9.63,11.31-24.09,27.44-34.59,37.95l0.74,0.87c10.57-10.58,25.1-26.78,34.79-38.16
		C657.7,289.6,656.76,288.95,656.29,289.5z"/>
	<g>
		<path class="st3" d="M651.27,301.64c-1.59,0.77-3.38,0.91-4.98,1.65c-0.67,0.31-1.17-0.72-0.5-1.03c1.6-0.74,3.39-0.88,4.98-1.65
			C651.44,300.28,651.93,301.32,651.27,301.64L651.27,301.64z"/>
	</g>
	<g>
		<path class="st3" d="M645.86,296.12c-0.19,2.45-0.38,4.9-0.58,7.36c-0.06,0.73-1.2,0.65-1.14-0.09c0.19-2.45,0.38-4.9,0.58-7.36
			C644.78,295.3,645.92,295.39,645.86,296.12L645.86,296.12z"/>
	</g>
	<g>
		<path class="st3" d="M636.27,307.75c-0.21,1.43-0.22,3.4,0.44,4.72c0.33,0.66-0.7,1.16-1.03,0.5c-0.75-1.49-0.8-3.69-0.56-5.31
			C635.24,306.93,636.38,307.02,636.27,307.75L636.27,307.75z"/>
	</g>
	<g>
		<path class="st3" d="M641.9,313.59c-0.85,0.06-1.71-0.04-2.56-0.1c-0.51-0.04-2.16-0.29-2.41-0.05c-0.54,0.5-1.28-0.37-0.74-0.87
			c0.54-0.5,1.65-0.32,2.3-0.28c1.05,0.05,2.14,0.25,3.19,0.18C642.41,312.42,642.64,313.54,641.9,313.59L641.9,313.59z"/>
	</g>
	<g>
		<path class="st3" d="M627.39,309.84c0.99,1.15,2,2.32,2.8,3.61c0.74,1.17,1.13,2.57,1.99,3.66c0.46,0.58-0.41,1.32-0.87,0.74
			c-0.77-0.98-1.19-2.15-1.77-3.25c-0.78-1.47-1.93-2.77-3.02-4.02C626.04,310.02,626.91,309.28,627.39,309.84L627.39,309.84z"/>
	</g>
	<g>
		<path class="st3" d="M639.79,321.92c-1.23-0.86-2.8-1.2-4.2-1.68c-1.43-0.49-2.89-0.86-4.36-1.23c-0.71-0.18-0.32-1.25,0.39-1.08
			c2.84,0.71,6.4,1.34,8.83,3.05C641.04,321.4,640.39,322.34,639.79,321.92L639.79,321.92z"/>
	</g>
	<g>
		<path class="st3" d="M626.08,316.46c1.9,0.24,3.77,0.66,5.68,0.83c0.73,0.07,0.65,1.21-0.09,1.14c-1.91-0.17-3.78-0.58-5.68-0.83
			C625.27,317.5,625.35,316.36,626.08,316.46L626.08,316.46z"/>
	</g>
	<g>
		<path class="st3" d="M633.06,324.34c0.1-1.13-0.4-2.36-0.82-3.38c-0.41-1-0.87-2.08-1.58-2.91c-0.48-0.56,0.39-1.3,0.87-0.74
			c0.85,0.99,1.4,2.26,1.87,3.46c0.44,1.14,0.91,2.42,0.81,3.66C634.14,325.16,633,325.07,633.06,324.34L633.06,324.34z"/>
	</g>
</g>
<g>
	<g>
		<path class="st2" d="M425.81,437.22c0,0-9.84-26.37-6.98-43.76c2.86-17.39,7.49-22.62,16.14-25.09
			c8.65-2.47,15.01,10.93,13.19,20.38C446.33,398.19,441.37,413.87,425.81,437.22z"/>
		<path class="st2" d="M407.82,421.95c0,0-24.98-12.97-34.52-27.79c-9.54-14.82-9.61-21.8-4.85-29.44
			c4.76-7.64,18.46-1.95,23.45,6.28C396.89,379.22,403.71,394.18,407.82,421.95z"/>
		<path class="st2" d="M443.96,464.73c0,0-2.59-31.45,5.8-49.35c8.38-17.9,14.97-22.13,25.06-22.16
			c10.09-0.03,12.87,16.36,8.02,26.01C478,428.86,467.87,444.27,443.96,464.73z"/>
		<path class="st2" d="M459.18,473.21c0,0,10.15-29.88,24.96-42.96c14.82-13.08,22.54-14.34,31.81-10.35
			c9.27,3.99,5.29,20.13-2.99,27.05C504.68,453.86,489.26,463.96,459.18,473.21z"/>
		<path class="st2" d="M460.08,485.79c0,0,16.51-9.46,28.43-9.46c11.92,0,15.91,2.51,18.51,8.01c2.6,5.5-5.64,11.21-12.14,11.03
			C488.37,495.19,477.37,493.6,460.08,485.79z"/>
		<path class="st2" d="M417.49,442.66c0,0-19.3-20.49-36.16-25.62c-16.87-5.13-23.6-3.29-29.65,3.38
			c-6.05,6.67,3.16,18.29,12.44,20.84C373.41,443.8,389.66,446.29,417.49,442.66z"/>
		<path class="st2" d="M434.13,471.11c0,0-27.06-16.23-46.82-16.63c-19.76-0.4-26.47,3.64-30.96,12.67
			c-4.49,9.04,8.99,18.78,19.77,18.7C386.91,485.77,405.21,483.5,434.13,471.11z"/>
		<path class="st2" d="M435.01,488.51c0,0-31.29-4.12-49.57,3.39c-18.29,7.5-22.83,13.87-23.36,23.95
			c-0.52,10.08,15.72,13.65,25.58,9.28C397.53,520.76,413.41,511.39,435.01,488.51z"/>
		<path class="st2" d="M445.89,494.88c0,0-15.79,10.62-21.06,21.31c-5.27,10.69-4.79,15.38-1,20.15c3.78,4.77,12.55-0.1,15.27-6.01
			C441.81,524.41,445.25,513.84,445.89,494.88z"/>
		<g>
			<path class="st2" d="M401.27,412.29c18.27,29.64,36.76,59.2,57.35,87.31c18.56,25.34,39.91,53.89,64.85,73.28
				c1.36,1.06,2.86-1.15,1.51-2.2c-24.74-19.24-45.93-47.7-64.34-72.83c-20.46-27.92-38.82-57.29-56.98-86.74
				C402.77,409.67,400.36,410.82,401.27,412.29L401.27,412.29z"/>
		</g>
		<g>
			<path class="st2" d="M410.91,440.83c3.39,2.34,7.46,3.3,10.88,5.57c1.43,0.95,2.95-1.25,1.51-2.2
				c-3.42-2.27-7.49-3.24-10.88-5.57C411,437.65,409.49,439.85,410.91,440.83L410.91,440.83z"/>
		</g>
		<g>
			<path class="st2" d="M425.31,430.05c-0.43,5.71-0.85,11.43-1.28,17.14c-0.13,1.71,2.53,1.91,2.66,0.2
				c0.43-5.71,0.85-11.43,1.28-17.14C428.1,428.54,425.44,428.34,425.31,430.05L425.31,430.05z"/>
		</g>
		<g>
			<path class="st2" d="M443.27,460.22c-0.02,3.37-0.69,7.91-2.7,10.71c-1,1.4,1.2,2.91,2.2,1.51c2.27-3.17,3.14-8.21,3.16-12.03
				C445.94,458.71,443.28,458.5,443.27,460.22L443.27,460.22z"/>
		</g>
		<g>
			<path class="st2" d="M428.23,471.68c1.94,0.43,3.95,0.5,5.93,0.67c1.18,0.1,5.07,0.11,5.56,0.74c1.07,1.35,3.08-0.39,2.02-1.74
				c-1.06-1.34-3.69-1.31-5.21-1.47c-2.43-0.25-5.01-0.18-7.4-0.71C427.48,468.8,426.56,471.31,428.23,471.68L428.23,471.68z"/>
		</g>
		<g>
			<path class="st2" d="M462.97,468.18c-2.69,2.29-5.42,4.63-7.73,7.31c-2.11,2.44-3.5,5.51-5.87,7.72
				c-1.25,1.17,0.48,3.2,1.74,2.02c2.12-1.98,3.51-4.54,5.23-6.84c2.32-3.11,5.43-5.69,8.38-8.19
				C466.03,469.09,464.29,467.07,462.97,468.18L462.97,468.18z"/>
		</g>
		<g>
			<path class="st2" d="M430.15,491.6c3.14-1.55,6.87-1.78,10.28-2.38c3.47-0.61,6.97-0.96,10.48-1.28
				c1.71-0.16,1.18-2.77-0.52-2.62c-6.78,0.62-15.22,0.82-21.41,3.88C427.44,489.96,428.61,492.36,430.15,491.6L430.15,491.6z"/>
		</g>
		<g>
			<path class="st2" d="M463.64,483.89c-4.46-0.11-8.91,0.18-13.37-0.11c-1.71-0.11-1.92,2.55-0.2,2.66c4.45,0.29,8.91,0,13.37,0.11
				C465.15,486.59,465.36,483.93,463.64,483.89L463.64,483.89z"/>
		</g>
		<g>
			<path class="st2" d="M444.78,499.56c0.18-2.63,1.77-5.29,3.09-7.5c1.3-2.17,2.74-4.48,4.67-6.13c1.31-1.12-0.43-3.14-1.74-2.02
				c-2.3,1.97-4.03,4.72-5.52,7.31c-1.41,2.46-2.96,5.25-3.16,8.14C442.01,501.08,444.67,501.28,444.78,499.56L444.78,499.56z"/>
		</g>
	</g>
</g>
<path class="st0" d="M772.75,253.18c0.15,0.27,0.3,0.53,0.45,0.79c17.37,30.23,42.37,57.73,74.38,72.12
	c19.44,8.74,56.14,20.83,64.99-8.02c16.94-55.21-66.39-151.47-116.26-153.35C743.81,162.73,755.34,222.2,772.75,253.18z"/>
<path class="st0" d="M210.84,520.79c4.19,10.96,10.02,32.1,20.88,41.8c24.06,21.51,42.72-3.71,37.85-31.42
	c-3.31-18.8-25.5-54.4-44.94-57.67C182,466.34,209.2,512.57,210.84,520.79z"/>
<path class="st4" d="M399.43,537.12c5.97-19.54,34.49-21.11,49.28-17.69c10.08,2.33,18.78,6.55,28.01,11.24
	c9.94,5.05,20.57,8.65,30.3,14.38c23.75,14,50.38,22.4,78.09,23.51c24.24,0.97,50.5-6.34,73.28-13.87
	c19.32-6.38,38.97-12.69,58.12-19.81c8.86-3.29,20.12-8.26,29.59-8.58c11.46-0.39,38.15,4.57,37.5,16.64
	c-1.81,33.62-58.74,60.63-83.87,75.26c-15.87,9.24-31.95,18.18-47.78,27.48c-11.21,6.58-23.27,11.55-36.2,12.8
	c-25.09,2.42-51.67-8.91-72.91-21.26c-26.16-15.22-48.69-35.62-73.33-53.34C459.63,576.76,449.18,571.93,399.43,537.12z"/>
<path class="st5" d="M546.3,374.64c-3.56,1.13-7.08,2.4-10.72,3.23c-36.64,8.36-71.94-32.14-67.51-67.08
	c3.35-26.45,24.07-37.57,42.53-53.08c15.78-13.26,22.2-27.78,25.64-47.89c2.52-14.72,7.28-30.66,19.52-40.32
	c12.74-10.05,32.42-10.78,47.66-6.95c19.98,5.02,39.36,17.97,48.69,36.75c4.85,9.76,6.5,20.68,4.63,31.42
	c-2.17,12.5-7.04,24.69-1.59,37.18c6,13.73,19.93,20.88,29.95,31.2c12.07,12.44,12.65,32.41,6.8,48.18
	c-16.89,45.53-71.59,32.73-109.36,26.88c-9.59-1.49-19.38-3.28-28.92-1.48C551.13,373.16,548.71,373.87,546.3,374.64z"/>
<g>
	<path class="st5" d="M562.6,170.89c-17.72,2.51-24.5,18.17-29.27,33.49c-3.34,10.71-7.61,20.77-14.29,29.86
		c-6.76,9.19-15.59,16.36-24.42,23.47c-15.42,12.41-31.52,25.74-35.81,46.1c-4.17,19.76,2.18,42.02,14.46,57.82
		c12.39,15.95,31.21,23.37,51.06,23.54c1.93,0.02,1.93-2.98,0-3c-17.7-0.16-34.65-6.19-46.52-19.72
		c-13.24-15.11-20.29-38.03-16.11-57.84c4.24-20.11,20.45-33.03,35.64-45.26c14.9-11.99,27.6-24.75,34.98-42.77
		c6.9-16.85,9.14-39.69,31.08-42.8C565.3,173.51,564.49,170.62,562.6,170.89L562.6,170.89z"/>
</g>
<g>
	<path class="st5" d="M521.93,298.22c-39.22,7.43-59.89,61.33-37.93,93.97c7.23,10.75,18.5,21.58,32.33,20.97
		c1.92-0.08,1.93-3.09,0-3c-14.86,0.66-27.6-13.49-33.42-25.99c-4.97-10.66-5.81-22.97-3.67-34.44
		c4.2-22.52,20.04-44.18,43.49-48.62C524.63,300.75,523.82,297.86,521.93,298.22L521.93,298.22z"/>
</g>
<g>
	<path class="st5" d="M620.91,174.3c8.4,3.56,16.95,7.41,24.06,13.23c7.33,6,12.44,14.65,15.09,23.7
		c2.83,9.67,1.88,19.95-1.12,29.48c-2.29,7.27-6.49,14.78-3.1,22.42c3.2,7.21,10.05,13.05,15.79,18.21
		c5.73,5.15,11.67,10.11,16.64,16.03c11.9,14.16,13.56,33.21,6.71,50.19c-4.44,11.02-11.68,21.7-20.81,29.33
		c-4.32,3.61-8.98,6.63-13.97,9.21c-3.5,1.81-6.76,3.61-9.17,6.81c-1.16,1.54,1.44,3.04,2.59,1.51c2.87-3.81,7.73-5.33,11.72-7.63
		c4.33-2.5,8.47-5.57,12.23-8.87c7.43-6.51,13.3-15.07,17.72-23.85c7.6-15.12,9.73-34.01,1.6-49.39
		c-7.83-14.81-22.94-23.39-33.56-35.85c-3.86-4.52-6.62-9.09-5.46-15.29c0.97-5.22,3.53-10.03,4.84-15.17
		c2.21-8.69,2.91-17.75,0.64-26.51c-2.41-9.29-7.42-18.58-14.6-25.03c-7.6-6.82-17.02-11.18-26.33-15.12
		C620.67,170.96,619.14,173.54,620.91,174.3L620.91,174.3z"/>
</g>
<g>
	<path class="st6" d="M502.74,282.2c-15,10.6-23.31,28.56-20.23,46.89c1.53,9.11,5.87,17.56,12.22,24.24
		c7.81,8.21,18.9,12.48,26.2,21.22c1.24,1.48,3.35-0.65,2.12-2.12c-6.1-7.31-14.81-11.42-22.06-17.39
		c-7.21-5.93-12.5-13.98-14.81-23.05c-4.58-17.96,3.11-36.64,18.07-47.21C505.82,283.69,504.32,281.09,502.74,282.2L502.74,282.2z"
		/>
</g>
<g>
	<path class="st6" d="M499.05,329.6c-1.59,6.62,3.71,12.96,7.52,17.82c5.72,7.3,13.57,11.22,21.67,15.37
		c1.71,0.88,3.23-1.71,1.51-2.59c-6.45-3.31-13.22-6.39-18.32-11.69c-3.9-4.04-10.94-12.07-9.49-18.11
		C502.4,328.52,499.51,327.72,499.05,329.6L499.05,329.6z"/>
</g>
<g>
	<path class="st6" d="M681.55,315.9c4.97,20.73-11.89,33.72-28.81,41.31c-1.76,0.79-0.23,3.37,1.51,2.59
		c18.32-8.22,35.48-22.6,30.19-44.69C684,313.22,681.1,314.02,681.55,315.9L681.55,315.9z"/>
</g>
<g>
	<path class="st5" d="M632,295.56c15.91,0.03,32.59,0.59,47.29,7.36c14.49,6.67,26.15,19.7,29,35.65c2.72,15.22-2.99,30.8-13,42.25
		c-10.66,12.18-26.83,13.27-40.05,21.27c-1.65,1-0.14,3.59,1.51,2.59c11.35-6.88,25.36-8.28,35.76-16.89
		c9.24-7.65,15.91-19.41,18.35-31.09c5.25-25.05-10.08-48.45-33.2-57.73c-14.43-5.79-30.31-6.39-45.67-6.42
		C630.07,292.55,630.07,295.55,632,295.56L632,295.56z"/>
</g>
<path class="st2" d="M710.06,469.26c-3.68,3.23-8.71,9.32-13.64,10.46c-4.82,1.12-8.5-2.67-13.29-3.07
	c-21.21-1.78-43,9.35-63.22,14.52c-26.69,6.82-55.21,13.02-82.87,12.95c-12.53-0.03-24.93,1.73-37.08-1.99
	c-8.59-2.62-22.42-7.48-29.09-13.86c-11.34-10.83-0.09-25.31,4.89-36.75c12.34-28.31,14.68-58.46,34.28-83.7
	c37.36-48.12,116.29-55.25,158.3-8.54c3.66,4.07,6.92,8.5,9.69,13.23c9.87,16.82,20.51,33.21,29.47,50.56
	C715.26,438.11,725.67,455.53,710.06,469.26z"/>
<path class="st1" d="M554.46,342.98c0.6-2.09,2.04-3.93,3.96-5.55c1.92-1.62,4.32-3,6.83-4.15c5.03-2.31,10.54-3.73,13.79-4.43
	c5.53-1.19,11.27-1.35,17.01-0.98c2.87,0.18,5.74,0.5,8.58,0.89C616,329,632,333,633,344c0,22.51-12.05,42.01-25.39,60.36
	c-5.51,7.58-16.82,7.51-22.25-0.12c-5.29-7.44-10.74-14.95-15.57-23.1c-1.68-2.68-3.31-5.4-4.86-8.17
	c-3.11-5.55-5.92-11.33-8.25-17.46C555.61,351.81,554.84,347.7,554.46,342.98z"/>
<path class="st7" d="M678.21,554.72c-4,2.67-8.34,6.26-12.85,8.78c-1.67,0.93-3.36,1.71-5.07,2.24c0.04-0.95,0.81-3.02,2.04-5.81
	c1.95-4.42,5.08-10.62,8.37-16.96c5.94-11.52,12.38-23.5,13.21-26.18c1.64-5.27,2.5-10.09,3.08-15.58
	c1.11-10.45,6.85-18.91,14.59-27.55c3.13-3.51,6.59-7.04,10.2-10.74c0.63,9.22,4.79,18.26,5.69,27.47
	C718.91,505.09,689.35,547.31,678.21,554.72z"/>
<path class="st7" d="M522.67,543.15c-0.71,5.19-1.89,10.25-2.63,15.41c-0.32,2.24-0.55,4.51-0.61,6.81c0,0.12-0.01,0.24-0.01,0.36
	c-0.1-0.07-0.18-0.16-0.27-0.24c-9.25-8.03-31.53-38.72-37.56-48.82c-4.28-7.16-11.6-19.85-10.68-28.41
	c4.7,1.53,8.65,4.33,12.51,6.68c2.16,1.32,4.29,2.48,6.51,3.22c4.93,1.63,15.45,1.93,18.7,6.21
	C511.6,508.31,523.27,538.69,522.67,543.15z"/>
<path class="st5" d="M628.84,690.05c4.38,0.67,8.47,4.52,12.39,6.6c6.51,3.44,13.07,4.31,20.4,3.96c5.85-0.28,11.94-1.37,17.72-2.58
	c5.29-1.1,11.7-1.42,16.55-4.15c5.22-2.94,12.31-9.97,14.05-15.74c2.48-8.22-6.24-9.3-12.43-10.17
	c-12.01-1.68-26.67-0.76-38.56,0.41c-7.22,0.71-14.16,1.9-21.33,2.66C629.47,671.92,622.71,672.86,628.84,690.05z"/>
<path class="st5" d="M571.26,672.11c-11.86,3.79-22.91,0.53-34.86-2.11c-7.39-1.63-14.25-4.9-21.79-5.28
	c-8.42-0.43-13.03,2.57-19.62,7.61c-6.71,5.13-10.37,8.88-6.15,16.66c0.72,1.32,1.42,2.46,2.14,3.42c5.6,5.14,13.48,6.24,21.51,6.7
	c1.61,0.09,3.22,0.16,4.82,0.23c15.39,0.23,30.18,0.23,45.9-3.14c1.36-0.53,2.7-1.19,4.01-2.01s2.57-1.8,3.8-2.97
	c1.07-0.94,2-1.95,2.75-3.04C576.74,683.85,576.78,678.54,571.26,672.11z"/>
<path class="st7" d="M678.21,554.72c-4,2.67-8.34,6.26-12.85,8.78c-1.63-1.01-2.59-2.22-3.03-3.57c-1.58-4.75,3.25-11.23,8.37-16.96
	c3.17-3.57,6.44-6.86,8.33-9.25c4.57-5.82,7.4-12.68,11.6-18.62c3.74-5.29,8.71-10.21,11.53-16.12c3.35-7.07,2.76-17.38-0.57-25.32
	c3.13-3.51,6.59-7.04,10.2-10.74c0.63,9.22,4.79,18.26,5.69,27.47C718.91,505.09,689.35,547.31,678.21,554.72z"/>
<path class="st7" d="M521.04,563.95c-0.3,0.63-0.87,1.1-1.62,1.43c-0.08,0.05-0.19,0.08-0.29,0.12
	c-9.25-8.03-31.53-38.72-37.56-48.82c-4.28-7.16-11.6-19.85-10.68-28.41c4.7,1.53,8.65,4.33,12.51,6.68
	c1.28,1.74,2.56,3.41,3.33,4.94c2.14,4.27,3.97,8.71,6.01,12.92c3.86,7.97,8.55,15.87,13.66,23c1.94,2.7,10.48,15.1,13.63,22.76
	C521.04,560.99,521.5,562.94,521.04,563.95z"/>
<path class="st0" d="M669.58,474.5c0.18-0.28,0.46-0.5,0.73-0.71c4.87-3.76,9.14-8.23,14.26-11.68c7.7-5.2,14.9-10.89,22.94-15.6
	c4.21-2.47,8.71-4.3,13.01-6.58c1.09-0.58,2.7-2.06,4.06-1.86c7.86,1.17,9.53,23.56,7.55,29.04c-2.83,7.83-10.42,10.27-17.4,13.27
	c-8.98,3.86-16.61,10.33-25.74,13.82c-2.37,0.91-4.89,1.59-7.41,1.35c-8.52-0.79-11.44-12.72-12.19-19.64
	c-0.04-0.41-0.08-0.84,0.09-1.22C669.5,474.63,669.54,474.57,669.58,474.5z"/>
<path class="st0" d="M511.72,509.99c-0.02,0.03-0.03,0.05-0.05,0.08c-0.23,0.3-0.65,0.37-1.02,0.39c-2.73,0.18-5.44-0.48-8.06-1.27
	c-12.43-3.73-24.44-8.25-37.02-11.55c-12.12-3.19-8.91-28.96-2.65-36.14c5.26-6.03,14.87-0.46,19.76,3.55
	c6,4.92,12.21,9.6,17.17,15.63c6.85,8.33,9.95,17.84,11.92,28.28C511.83,509.31,511.89,509.69,511.72,509.99z"/>
<path class="st1" d="M767.27,660.96c0,5.06-4.1,9.16-9.16,9.16c-5.06,0-9.16-4.1-9.16-9.16c0-5.06,4.1-9.16,9.16-9.16
	C763.17,651.8,767.27,655.9,767.27,660.96z"/>
<path class="st1" d="M898.07,410.47c0,5.06-4.1,9.16-9.16,9.16c-5.06,0-9.16-4.1-9.16-9.16c0-5.06,4.1-9.16,9.16-9.16
	C893.97,401.31,898.07,405.41,898.07,410.47z"/>
<circle class="st1" cx="235.56" cy="332.26" r="8.36"/>
<g>
	<path class="st1" d="M235.56,315.56c-6.08,0-11.42,3.28-14.33,8.15c-1.51,2.5-2.37,5.43-2.37,8.55c0,5.6,2.78,10.58,7.02,13.61
		c2.74,1.95,6.07,3.1,9.68,3.1c9.21,0,16.71-7.5,16.71-16.71C252.27,323.05,244.77,315.56,235.56,315.56z M235.56,347.86
		c-3.91,0-7.5-1.45-10.23-3.84c-3.28-2.87-5.36-7.08-5.36-11.76c0-2.37,0.53-4.63,1.49-6.64c2.49-5.28,7.87-8.95,14.1-8.95
		c8.6,0,15.6,7,15.6,15.59C251.16,340.86,244.16,347.86,235.56,347.86z"/>
</g>
<g>
	<path class="st1" d="M914.81,625.71c-6.08,0-11.42,3.28-14.33,8.15c-1.51,2.5-2.37,5.43-2.37,8.55c0,5.6,2.78,10.58,7.02,13.61
		c2.74,1.95,6.07,3.1,9.68,3.1c9.21,0,16.71-7.5,16.71-16.71C931.52,633.2,924.02,625.71,914.81,625.71z M914.81,658.01
		c-3.91,0-7.5-1.45-10.23-3.84c-3.28-2.87-5.36-7.08-5.36-11.76c0-2.37,0.53-4.63,1.49-6.64c2.49-5.28,7.87-8.95,14.1-8.95
		c8.6,0,15.6,7,15.6,15.59C930.41,651.01,923.41,658.01,914.81,658.01z"/>
</g>
<ellipse transform="matrix(0.9137 -0.4064 0.4064 0.9137 -11.0694 183.9655)" class="st1" cx="427.62" cy="118.05" rx="12.98" ry="12.98"/>
<circle class="st2" cx="935.87" cy="268.6" r="7.35"/>
<ellipse transform="matrix(0.9246 -0.381 0.381 0.9246 -164.4888 166.5027)" class="st2" cx="338.32" cy="498.73" rx="7.35" ry="7.35"/>
<g>
	<path class="st1" d="M427.62,92.12c-9.44,0-17.72,5.09-22.24,12.65c-2.34,3.88-3.68,8.42-3.68,13.27c0,8.7,4.31,16.41,10.9,21.12
		c4.25,3.03,9.42,4.81,15.02,4.81c14.3,0,25.94-11.64,25.94-25.94C453.56,103.76,441.92,92.12,427.62,92.12z M427.62,142.26
		c-6.07,0-11.64-2.25-15.88-5.96c-5.09-4.45-8.32-10.98-8.32-18.25c0-3.68,0.83-7.18,2.32-10.31c3.87-8.2,12.22-13.89,21.88-13.89
		c13.36,0,24.22,10.86,24.22,24.2C451.84,131.4,440.97,142.26,427.62,142.26z"/>
</g>
<g>
	<path class="st1" d="M324.32,600.32c-9.44,0-17.72,5.09-22.24,12.65c-2.34,3.88-3.68,8.42-3.68,13.27c0,8.7,4.31,16.41,10.9,21.12
		c4.25,3.03,9.42,4.81,15.02,4.81c14.3,0,25.94-11.64,25.94-25.94C350.26,611.96,338.62,600.32,324.32,600.32z M324.32,650.46
		c-6.07,0-11.64-2.25-15.88-5.96c-5.09-4.45-8.32-10.98-8.32-18.25c0-3.68,0.83-7.18,2.32-10.31c3.87-8.2,12.22-13.89,21.88-13.89
		c13.36,0,24.22,10.86,24.22,24.2C348.54,639.6,337.68,650.46,324.32,650.46z"/>
</g>
<g>
	<path class="st1" d="M966.82,530.07c-3.62-7.31-5.42-15.11-5.53-22.8c-0.38-20.1,10.65-39.66,29.87-49.16
		c2.8-1.38,5.67-2.5,8.57-3.37c-0.33-1.24-0.68-2.45-1.05-3.67c-3.12,0.92-6.2,2.12-9.21,3.61c-18.78,9.29-30.25,27.56-31.81,47.05
		c-0.82,10.04,0.98,20.38,5.75,30.03c6.65,13.44,17.89,23.15,30.89,28.17c0.39-1.22,0.76-2.44,1.14-3.67
		C983.4,551.56,972.99,542.55,966.82,530.07z"/>
</g>
<g>
	<path class="st1" d="M928.79,554.64c-24.54-52.93-2.23-115.81,49.73-141.58c-5.77-6.85-12.38-12.79-19.58-18.04
		c-58.12,34.18-81.97,107.8-53.02,170.22c12.74,27.5,33.79,48.6,58.78,61.69c3.99-7.38,7.87-14.84,11.54-22.41
		C956.07,593.92,939.09,576.85,928.79,554.64z"/>
</g>
<g>
	<path class="st1" d="M252.59,143.08c-2.42-3.55-5.17-6.72-8.19-9.53c-1.04,0.76-2.07,1.53-3.1,2.31c3.01,2.74,5.75,5.87,8.15,9.36
		c16.76,24.45,10.49,57.98-13.92,74.71c-19.25,13.2-44.16,12.11-62.06-0.92c-0.52,1.19-1.02,2.4-1.52,3.6
		c19.1,13.45,45.37,14.42,65.73,0.45C263.83,205.16,270.54,169.25,252.59,143.08z"/>
</g>
<g>
	<path class="st1" d="M303.95,98.87c-7.71,3.59-15.23,7.38-22.52,11.38c18.22,31.69,19.9,71.89,0.89,106.09
		c-24.34,43.78-74.94,63.95-121.29,51.8c-0.11,1.26-0.19,2.51-0.25,3.77c-0.39,7.44-0.3,14.81,0.24,22.12
		c55.43,11.6,114.42-13.42,143.34-65.44C327.56,186.82,325.78,137.78,303.95,98.87z"/>
</g>
<g>
	<path class="st1" d="M620.47,91.37c-10.27,11.6-23.97,20.38-40.05,24.59c-43,11.22-87.07-14.43-98.61-57.26
		c-6.44,0-12.92,0.16-19.4,0.49c0.26,1.25,0.56,2.49,0.89,3.73c13.92,53.28,68.61,85.32,121.91,71.4
		c21.06-5.5,38.78-17.36,51.68-32.98C631.55,97.77,626.07,94.46,620.47,91.37z"/>
</g>
<path class="st8" d="M619.11,333.81c-0.12,1.82-0.33,3.63-0.64,5.4c-1.99,11.39-9.18,20.61-21.1,21.97
	c-10.5,1.2-20.71-4.45-25.26-13.97c-3.6-7.53-2.25-13.92-1.43-21.91c0.29-2.81,1.61-33.44-1.54-33.55c44.53,1.56,44.51-5,46.7,6
	c0.38,1.95,0.7,3.92,0.99,5.88c0.4,2.65,0.76,5.32,1.08,8.01C618.76,318.82,619.61,326.46,619.11,333.81z"/>
<path class="st9" d="M617.92,311.66c-0.43,0.5-0.91,0.95-1.43,1.38c-8.66,7.26-22.35,6.95-32.58,4.6c-5.15-1.18-9.16-3.18-12.7-5.87
	c-0.01-6.72-0.45-13.5-2.06-20c44.53,1.56,44.51-5,46.7,6c0.38,1.95,0.7,3.92,0.99,5.88C617.24,306.3,617.6,308.97,617.92,311.66z"
	/>
<path class="st10" d="M590.81,656.25c-6.75-4.93-13.45-8.95-19.81-14.53c-7.8-6.84-17.15-11.92-24.32-19.54
	c-13.88-14.77-30.41-26.52-44.62-40.94c-16.76-17.01-35.25-37-55.86-49.11c-16.26-9.56-43.79-17.44-47.67,9.23
	c-2.22,15.26,9.98,34.41,17.29,47.28c10.48,18.44,27.81,28.96,45.03,40.15c29.49,19.15,62.75,33.27,96.41,43.91
	c17.33,5.48,35.19,9.6,52.58,14.84c3.71,1.12,7.37,2.46,11.09,3.58c1.38,0.42,3.3,1.61,4.73,1.61c3.92,0.01,2.5-0.47,4.61-2.65
	c7.03-7.27,5.98-17.99-3.4-22.2C621.26,665.34,614.7,665,590.81,656.25z"/>
<path class="st8" d="M633.49,254.93c-0.45,10.74-2.12,21.64-7.54,30.25c-1.84,2.93-4,5.9-6.43,8.69
	c-9.5,10.97-23.04,19.41-36.74,12.79c-8.21-3.96-15.98-10.06-21.58-17.57c-4.64-6.21-7.78-13.4-8.44-21.11
	c-0.55-6.39-0.44-12.77-0.08-19.12c0.41-7.43,1.18-14.8,1.7-22.08c9.38-6.26,17.53-11,24.67-14.44
	c22.76-10.98,35.34-8.75,45.45-0.38c5.04,4.17,7.37,10.33,8.4,16.67c0.51,3.15,0.69,6.35,0.72,9.36
	C633.65,243.34,633.75,249.11,633.49,254.93z"/>
<path class="st9" d="M633.49,254.93c-2.61-2.83-5.97-4.89-10.05-5.46c-8-1.1-14.08,5.57-21.43,6.89
	c-6.32,1.13-13.39,1.01-19.44-1.05c-7.62-2.57-13.4-7.01-21.59-7.4c-2.37-0.11-5.35,0.5-8.33,0.95c0.41-7.43,1.18-14.8,1.7-22.08
	c9.38-6.26,17.53-11,24.67-14.44c6.36-0.71,12.87-0.68,19.44-0.08c10.04,0.91,20.34,2.12,28.38,8.86c2.24,1.88,4.3,4.39,6.03,7.51
	c0.51,3.15,0.69,6.35,0.72,9.36C633.65,243.34,633.75,249.11,633.49,254.93z"/>
<g>
	<path class="st1" d="M550.57,265.31c3.07,17.75,12.52,34.32,29.71,41.87c15.2,6.67,32.96-1.38,42.71-13.7
		c0.94-1.19-0.73-2.88-1.68-1.68c-9.97,12.59-27.76,20.05-42.75,11.89c-15.04-8.18-22.87-22.69-25.69-39.01
		C552.6,263.18,550.31,263.81,550.57,265.31L550.57,265.31z"/>
</g>
<g>
	<path class="st1" d="M653.17,415.62c3.18,6.02,8.19,11.12,10.48,17.6c0.98,2.78,1.29,5.71,1.99,8.55
		c0.85,3.47,2.33,6.73,3.26,10.18c0.4,1.48,2.69,0.85,2.29-0.63c-0.92-3.45-2.42-6.71-3.26-10.18c-0.83-3.45-1.26-6.92-2.63-10.22
		c-2.49-5.97-7.06-10.81-10.08-16.5C654.51,413.06,652.46,414.26,653.17,415.62L653.17,415.62z"/>
</g>
<g>
	<path class="st1" d="M661.02,422.77c-0.04-1.58,0.42-3.07,0.66-4.61c0.23-1.5-2.06-2.14-2.29-0.63c-0.27,1.75-0.79,3.45-0.75,5.25
		C658.68,424.29,661.06,424.3,661.02,422.77L661.02,422.77z"/>
</g>
<g>
	<path class="st1" d="M521.57,456.57c0.83-8.15,1.93-15.72,4.86-23.4c2.37-6.22,4.51-12.58,2.5-19.18
		c-0.45-1.46-2.74-0.84-2.29,0.63c2.39,7.84-1.73,15.09-4.15,22.35c-2.1,6.3-2.62,13.02-3.29,19.59
		C519.03,458.09,521.41,458.08,521.57,456.57L521.57,456.57z"/>
</g>
<g>
	<path class="st1" d="M528.45,427.59c0.98-2.11,2.74-4.19,4.86-5.21c1.38-0.67,0.17-2.72-1.2-2.05c-2.43,1.18-4.58,3.63-5.71,6.06
		C525.75,427.77,527.8,428.98,528.45,427.59L528.45,427.59z"/>
</g>
<g>
	<path class="st1" d="M686.14,462.53c7.71-4.11,14.81-9.16,22.06-14.02c5.58-3.74,11.63-6.42,17.61-9.43
		c1.37-0.69,0.16-2.74-1.2-2.05c-5.98,3.02-12.03,5.69-17.61,9.43c-7.25,4.86-14.34,9.91-22.06,14.02
		C683.59,461.2,684.79,463.25,686.14,462.53L686.14,462.53z"/>
</g>
<g>
	<path class="st1" d="M465.97,460.55c15.68,0.8,24.29,11.61,35.6,20.81c1.18,0.96,2.87-0.71,1.68-1.68
		c-11.91-9.69-20.84-20.67-37.28-21.51C464.45,458.09,464.45,460.47,465.97,460.55L465.97,460.55z"/>
</g>
<path class="st2" d="M656.86,595.89H530.11c-8.57,0-15.95-6.4-17.67-15.32l-21.36-111.09c-2.28-11.87,6.26-22.97,17.67-22.97h166.07
	c11.18,0,19.66,10.69,17.77,22.38l-17.95,111.09C673.15,589.18,665.64,595.89,656.86,595.89z"/>
<g>
	<g>
		<path class="st0" d="M659.41,591.87H527.2c-9.4,0-17.59-6.8-19.47-16.16l-22.28-111.09c-1.21-6.04,0.32-12.23,4.2-16.97
			c3.78-4.62,9.35-7.27,15.26-7.27h173.23c5.8,0,11.28,2.56,15.06,7.03c3.88,4.58,5.52,10.63,4.52,16.58l-18.73,111.09
			C677.35,584.81,669.12,591.87,659.41,591.87z M504.92,442.49c-5.28,0-10.24,2.37-13.63,6.49c-3.48,4.25-4.85,9.79-3.77,15.21
			l22.28,111.09c1.68,8.38,9,14.47,17.39,14.47h132.22c8.67,0,16.03-6.32,17.5-15.03l18.73-111.09c0.9-5.34-0.57-10.76-4.05-14.87
			c-3.37-3.99-8.28-6.28-13.45-6.28H504.92z"/>
	</g>
</g>
<path class="st0" d="M609.54,517.15c0.06,0.37,0.09,0.75,0.09,1.12c0.1,11.95-11.28,20.34-21.86,18.15
	c-0.78-0.16-1.55-0.38-2.31-0.66c-6.46-2.39-11.06-9.52-9.25-16.86c0.84-3.41,3.43-7.55,6.89-8.23c3.36-0.66,5.8,2.17,8.38,3.91
	c3.81,2.58,5.88,0.2,9.2-1.78c1.41-0.84,3.06-1.43,4.65-1.07C607.64,512.24,609.17,514.64,609.54,517.15z"/>
<g>
	<path class="st4" d="M399.31,534.48c4.99,31.23,28.69,53.84,51.78,73.2c24.76,20.75,54.32,34.31,82.02,50.51
		c15.83,9.26,33.15,14.84,49.99,21.92c1.41,0.59,2.02-1.71,0.63-2.29c-9.19-3.86-18.59-7.2-27.8-11
		c-9.83-4.06-18.88-9.17-28.11-14.42c-17.03-9.68-34.52-18.57-51.07-29.07c-16.63-10.55-32.04-23.2-45.96-37.13
		c-14.16-14.19-25.98-32.24-29.2-52.34C401.36,532.35,399.07,532.99,399.31,534.48L399.31,534.48z"/>
</g>
<path class="st10" d="M560.91,673.82c17.88-11.58,35.52-19.69,53.15-31.97c19.16-13.34,35.85-29.9,52.92-45.8
	c17.22-16.05,33.93-30.55,53.26-44.02c13-9.06,32.23-28.56,49.76-22.17c16.93,6.16,24.61,21.02,21.13,38.05
	c-3.9,19.1-16.71,33.26-31.83,45.16c-9.36,7.37-18.21,15.58-27.98,22.3c-9.94,6.84-20.44,12.52-30.64,18.78
	c-17.63,10.82-33.62,20.15-53.78,25.21c-16,4.02-32.23,6.85-47.77,12.13c-12.27,4.17-23.4,6.45-35.78,8.55
	c-0.63,0.11-1.26,0.23-1.9,0.37c-3.13,0.69-5.97-1.97-5.49-5.14C556.63,690.95,558.74,682.34,560.91,673.82z"/>
<g>
	<path class="st4" d="M556.28,696.44c22.37-4.12,44.39-12.55,65.57-20.67c22.12-8.48,43.41-18.66,64.28-29.86
		c34.28-18.39,73.49-38.65,91.34-75.25c6.69-13.73,10.36-31.4-4.64-40.93c-1.29-0.82-2.49,1.23-1.2,2.05
		c15.54,9.88,8.66,29.18,1.42,42.21c-9.01,16.19-22.74,28.94-37.58,39.77c-16.12,11.76-33.87,21.18-51.43,30.58
		c-20.1,10.76-40.6,20.57-61.88,28.78c-21.47,8.28-43.82,16.85-66.51,21.03C554.15,694.42,554.78,696.72,556.28,696.44
		L556.28,696.44z"/>
</g>
<g>
	<path class="st1" d="M562.88,702.23c-4.84-2.4-6.07-5.73-5.04-10.79c0.73-3.59,1.61-7.34,2.82-10.81
		c3.15-9.04,14.13-12.31,21.82-16.61c9.57-5.34,18.9-11.08,27.67-17.66c7.8-5.86,16.3-10.86,23.23-17.79
		c1.08-1.08-0.6-2.77-1.68-1.68c-4.71,4.72-10.14,8.46-15.6,12.25c-5.34,3.7-10.44,7.74-15.84,11.35
		c-10.82,7.23-22.54,12.71-33.61,19.46c-6.89,4.2-8.48,10.24-10.34,17.72c-1.83,7.34-2.11,12.91,5.38,16.62
		C563.05,704.96,564.26,702.91,562.88,702.23L562.88,702.23z"/>
</g>
<g>
	<path class="st1" d="M660.85,604.79c17.65-16.73,35.13-33.78,54.52-48.52c9.34-7.1,19.11-13.65,29.4-19.3
		c11.84-6.51,24.18-12.62,35.33-1.43c1.08,1.09,2.76-0.6,1.68-1.68c-7.58-7.6-17.02-9.03-26.77-4.75
		c-12.4,5.44-24.1,12.93-35.06,20.83c-21.88,15.77-41.25,34.66-60.78,53.18C658.05,604.17,659.74,605.84,660.85,604.79
		L660.85,604.79z"/>
</g>
<g>
	<path class="st1" d="M402.54,528.73c8.85-8.42,24.08-5.24,34.21-1c12.45,5.21,24.73,13.54,32.07,25.06c0.82,1.29,2.88,0.1,2.05-1.2
		c-7.96-12.49-21.59-21.7-35.28-26.89c-10.65-4.04-25.68-6.26-34.73,2.35C399.75,528.1,401.43,529.78,402.54,528.73L402.54,528.73z"
		/>
</g>
<g>
	<path class="st1" d="M603.56,692.67c14.59-8.89,33.47-10.35,49.7-14.91c9.06-2.54,18.08-5.38,26.86-8.76
		c9.21-3.54,17.93-8.23,27.22-11.61c1.43-0.52,0.81-2.82-0.63-2.29c-9.29,3.37-18.01,8.06-27.22,11.61
		c-9.39,3.62-19.04,6.61-28.74,9.28c-15.91,4.38-34.08,5.9-48.39,14.63C601.05,691.41,602.25,693.46,603.56,692.67L603.56,692.67z"
		/>
</g>
<g>
	<path class="st5" d="M942.61,702.16c0,0-0.01,0-0.01,0l-679.31-2.17c-1.75-0.01-3.16-1.43-3.16-3.18c0.01-1.75,1.42-3.16,3.17-3.16
		c0,0,0.01,0,0.01,0l679.31,2.17c1.75,0.01,3.16,1.43,3.16,3.18C945.78,700.75,944.36,702.16,942.61,702.16z"/>
</g>
<g>
	<path class="st5" d="M783.16,720.41C783.15,720.41,783.15,720.41,783.16,720.41l-103.77-0.33c-1.17,0-2.11-0.95-2.11-2.12
		c0-1.16,0.95-2.11,2.11-2.11c0,0,0,0,0.01,0l103.76,0.33c1.17,0,2.11,0.95,2.11,2.12C785.27,719.47,784.32,720.41,783.16,720.41z"
		/>
</g>
<g>
	<path class="st5" d="M638.35,719.73C638.35,719.73,638.35,719.73,638.35,719.73l-261.84-0.83c-1.17,0-2.11-0.95-2.11-2.12
		c0-1.16,0.95-2.11,2.11-2.11c0,0,0,0,0.01,0l261.83,0.83c1.17,0,2.11,0.95,2.11,2.12C640.46,718.79,639.51,719.73,638.35,719.73z"
		/>
</g>
<g>
	<g>
		<path class="st2" d="M867.89,541.21c-0.07,0-0.15,0-0.22-0.01c-2.28-0.25-3.54-0.43-3.54-0.43c-1.09-0.16-1.85-1.17-1.7-2.26
			c0.16-1.09,1.16-1.85,2.26-1.7c0.02,0,1.23,0.17,3.4,0.41c1.1,0.12,1.89,1.11,1.77,2.21
			C869.76,540.45,868.89,541.21,867.89,541.21z"/>
	</g>
	<g>
		<path class="st2" d="M954.05,371.59c-1.99-1.24-4-2.44-5.98-3.58c-0.96-0.54-2.18-0.21-2.73,0.75c-0.55,0.96-0.22,2.18,0.74,2.73
			c1.94,1.1,3.91,2.28,5.85,3.5c0.33,0.2,0.69,0.3,1.06,0.3c0.66,0,1.31-0.33,1.69-0.94C955.27,373.41,954.98,372.18,954.05,371.59z
			 M965.57,379.42c-1.86-1.37-3.77-2.73-5.69-4.02c-0.91-0.63-2.15-0.39-2.78,0.53c-0.62,0.91-0.38,2.15,0.54,2.77
			c1.87,1.27,3.74,2.6,5.55,3.94c0.36,0.26,0.78,0.39,1.19,0.39c0.61,0,1.22-0.28,1.61-0.81
			C966.65,381.33,966.46,380.08,965.57,379.42z M976.44,388.15c-0.51-0.45-1.03-0.9-1.56-1.34c-0.58-0.5-1.17-1-1.77-1.49
			c-0.67-0.56-1.34-1.11-2.02-1.65c-0.86-0.69-2.12-0.55-2.81,0.31c-0.69,0.86-0.55,2.12,0.31,2.81c0.6,0.48,1.21,0.97,1.8,1.46
			c0.59,0.49,1.18,0.98,1.76,1.48c0.56,0.47,1.11,0.95,1.65,1.43c0.38,0.33,0.85,0.49,1.32,0.49c0.56,0,1.11-0.23,1.51-0.68
			C977.35,390.14,977.27,388.87,976.44,388.15z M986.49,397.83c-1.56-1.66-3.21-3.33-4.91-4.97c-0.79-0.76-2.06-0.74-2.83,0.06
			c-0.76,0.79-0.74,2.06,0.06,2.83c1.65,1.58,3.25,3.21,4.77,4.82c0.39,0.42,0.93,0.63,1.46,0.63c0.49,0,0.98-0.18,1.37-0.54
			C987.21,399.9,987.25,398.63,986.49,397.83z M995.49,408.54c-1.36-1.84-2.83-3.68-4.34-5.49c-0.72-0.84-1.98-0.95-2.82-0.24
			c-0.85,0.71-0.96,1.97-0.25,2.82c1.47,1.74,2.89,3.53,4.21,5.3c0.39,0.53,0.99,0.81,1.6,0.81c0.42,0,0.84-0.13,1.19-0.4
			C995.97,410.68,996.15,409.43,995.49,408.54z M1003.1,420.33c-1.11-2.02-2.32-4.04-3.6-6.03c-0.6-0.93-1.84-1.19-2.77-0.59
			c-0.93,0.6-1.19,1.83-0.59,2.76c1.23,1.91,2.39,3.85,3.46,5.78c0.36,0.67,1.04,1.04,1.75,1.04c0.33,0,0.66-0.08,0.96-0.25
			C1003.28,422.51,1003.63,421.29,1003.1,420.33z M1008.89,433.14c-0.78-2.18-1.66-4.38-2.64-6.53c-0.46-1-1.64-1.45-2.65-0.99
			c-1,0.45-1.45,1.64-0.99,2.64c0.93,2.05,1.77,4.15,2.51,6.22c0.29,0.82,1.06,1.33,1.89,1.33c0.22,0,0.45-0.03,0.67-0.11
			C1008.72,435.33,1009.26,434.18,1008.89,433.14z M1012.44,446.78c-0.38-2.3-0.88-4.62-1.47-6.9c-0.28-1.07-1.37-1.71-2.44-1.43
			c-1.07,0.27-1.71,1.37-1.43,2.44c0.56,2.16,1.03,4.36,1.39,6.54c0.16,0.98,1.01,1.67,1.97,1.67c0.11,0,0.22-0.01,0.33-0.02
			C1011.88,448.9,1012.62,447.87,1012.44,446.78z M1013.27,453.78c-0.08-1.1-1.03-1.91-2.14-1.85c-1.1,0.08-1.93,1.04-1.85,2.14
			c0.13,1.76,0.19,3.55,0.19,5.31c0,0.46,0,0.92-0.01,1.38c-0.02,1.1,0.86,2.01,1.96,2.03h0.04c1.09,0,1.98-0.87,2-1.96
			c0.01-0.48,0.01-0.97,0.01-1.45C1013.47,457.52,1013.4,455.64,1013.27,453.78z M1011.24,465.67c-1.08-0.12-2.08,0.68-2.2,1.78
			c-0.24,2.19-0.57,4.43-1,6.63c-0.21,1.09,0.5,2.14,1.58,2.35c0.13,0.02,0.26,0.03,0.38,0.03c0.94,0,1.78-0.66,1.97-1.62
			c0.44-2.31,0.8-4.66,1.05-6.97C1013.13,466.78,1012.34,465.79,1011.24,465.67z M1008.96,479.23c-1.06-0.29-2.17,0.34-2.46,1.4
			l-0.09,0.31c-0.57,2.05-1.24,4.09-1.99,6.04c-0.39,1.03,0.13,2.19,1.16,2.58c0.23,0.09,0.48,0.13,0.71,0.13
			c0.81,0,1.57-0.49,1.87-1.28c0.79-2.07,1.5-4.22,2.11-6.4l0.09-0.32C1010.65,480.63,1010.02,479.53,1008.96,479.23z
			 M1004.42,492.19c-0.99-0.5-2.19-0.1-2.69,0.89c-0.99,1.98-2.1,3.92-3.3,5.77c-0.59,0.93-0.33,2.17,0.6,2.77
			c0.34,0.21,0.71,0.32,1.08,0.32c0.66,0,1.3-0.33,1.69-0.92c1.27-1.97,2.45-4.04,3.51-6.15
			C1005.8,493.89,1005.41,492.69,1004.42,492.19z M997.35,503.95c-0.86-0.69-2.12-0.56-2.81,0.3c-1.38,1.72-2.87,3.39-4.43,4.98
			c-0.78,0.79-0.77,2.05,0.01,2.83c0.39,0.38,0.9,0.57,1.41,0.57c0.52,0,1.03-0.19,1.42-0.59c1.66-1.68,3.25-3.46,4.71-5.28
			C998.35,505.9,998.21,504.64,997.35,503.95z M988.01,514c-0.71-0.85-1.97-0.96-2.82-0.25c-1.68,1.41-3.47,2.77-5.32,4.06
			c-0.91,0.63-1.14,1.88-0.51,2.78c0.39,0.56,1.02,0.86,1.65,0.86c0.39,0,0.79-0.12,1.14-0.36c1.95-1.35,3.83-2.79,5.61-4.27
			C988.61,516.11,988.72,514.85,988.01,514z M976.93,522.14c-0.56-0.96-1.78-1.28-2.73-0.72c-1.9,1.1-3.9,2.17-5.95,3.17
			c-0.99,0.48-1.4,1.68-0.92,2.67c0.35,0.71,1.06,1.12,1.8,1.12c0.3,0,0.6-0.06,0.88-0.2c2.13-1.04,4.22-2.15,6.2-3.31
			C977.16,524.32,977.49,523.09,976.93,522.14z M964.69,528.44c-0.41-1.02-1.58-1.51-2.61-1.09c-2.03,0.84-4.16,1.64-6.33,2.39
			c-1.04,0.36-1.6,1.5-1.24,2.54c0.29,0.83,1.06,1.35,1.89,1.35c0.22,0,0.44-0.03,0.65-0.11c2.25-0.77,4.45-1.6,6.56-2.47
			C964.63,530.63,965.11,529.46,964.69,528.44z M951.76,533.15c-0.31-1.06-1.41-1.68-2.48-1.37c-2.13,0.61-4.34,1.19-6.56,1.72
			c-1.08,0.26-1.74,1.34-1.49,2.41c0.22,0.92,1.04,1.54,1.95,1.54c0.15,0,0.31-0.02,0.46-0.06c2.29-0.54,4.56-1.14,6.75-1.77
			C951.45,535.32,952.07,534.21,951.76,533.15z M938.42,536.52c-0.21-1.09-1.26-1.79-2.35-1.59c-2.19,0.43-4.45,0.82-6.7,1.17
			c-1.1,0.17-1.84,1.19-1.67,2.28c0.15,0.99,1,1.7,1.97,1.7c0.1,0,0.2-0.01,0.31-0.02c2.3-0.36,4.61-0.76,6.86-1.2
			C937.92,538.65,938.63,537.6,938.42,536.52z M924.84,538.77c-0.14-1.09-1.13-1.86-2.23-1.74c-2.22,0.26-4.51,0.5-6.78,0.69
			c-1.1,0.1-1.92,1.07-1.82,2.17c0.09,1.04,0.96,1.83,1.99,1.83c0.05,0,0.11-0.01,0.17-0.01c2.32-0.2,4.65-0.44,6.92-0.71
			C924.18,540.87,924.97,539.87,924.84,538.77z M881.7,538.27c-2.29-0.11-4.58-0.26-6.81-0.43c-1.09-0.09-2.06,0.74-2.15,1.84
			c-0.08,1.1,0.74,2.06,1.84,2.15c2.27,0.17,4.59,0.32,6.92,0.44h0.1c1.06,0,1.95-0.83,2-1.9
			C883.65,539.26,882.81,538.33,881.7,538.27z M909.02,538.21c-2.26,0.13-4.55,0.22-6.83,0.29c-1.1,0.03-1.97,0.95-1.94,2.05
			c0.03,1.09,0.92,1.95,2,1.95h0.05c2.32-0.07,4.65-0.17,6.94-0.3c1.11-0.06,1.95-1.01,1.89-2.11
			C911.06,538.99,910.15,538.16,909.02,538.21z M895.36,538.6h-0.45c-2.11,0-4.26-0.02-6.38-0.08c-1.07-0.05-2.02,0.85-2.05,1.95
			c-0.03,1.11,0.85,2.03,1.95,2.05c2.15,0.06,4.34,0.08,6.48,0.08h0.45c1.1,0,2-0.89,2-2C897.36,539.5,896.46,538.6,895.36,538.6z"
			/>
	</g>
	<g>
		<path class="st2" d="M941,368.46c-0.31,0-0.62-0.07-0.91-0.22c-1.92-0.99-3.04-1.5-3.05-1.5c-1-0.46-1.45-1.64-0.99-2.65
			c0.46-1.01,1.64-1.45,2.65-0.99c0.05,0.02,1.21,0.55,3.22,1.58c0.98,0.5,1.37,1.71,0.87,2.69
			C942.43,368.06,941.73,368.46,941,368.46z"/>
	</g>
</g>
<g>
	<g>
		<path class="st2" d="M355.47,232.94c-5.61,0-10.17,4.56-10.17,10.16c0,5.61,4.56,10.17,10.17,10.17c5.6,0,10.16-4.56,10.16-10.17
			C365.63,237.5,361.07,232.94,355.47,232.94z M355.47,252.27c-5.06,0-9.17-4.11-9.17-9.17c0-5.05,4.11-9.16,9.17-9.16
			c5.05,0,9.16,4.11,9.16,9.16C364.63,248.16,360.52,252.27,355.47,252.27z"/>
	</g>
	<g>
		<path class="st2" d="M355.47,232.43c-5.89,0-10.67,4.79-10.67,10.67c0,5.88,4.78,10.67,10.67,10.67c5.88,0,10.66-4.79,10.66-10.67
			C366.13,237.22,361.35,232.43,355.47,232.43z M355.47,251.77c-4.78,0-8.67-3.89-8.67-8.67s3.89-8.67,8.67-8.67
			c4.77,0,8.66,3.89,8.66,8.67S360.24,251.77,355.47,251.77z"/>
	</g>
</g>
<polygon class="st2" points="937.51,328.26 941.46,314.26 845.13,351.81 "/>
<polygon class="st2" points="943.53,349.61 937.87,364.91 845.13,351.81 "/>
<polygon class="st11" points="941.46,314.26 922.52,296.66 845.13,351.81 "/>
<polygon class="st11" points="954.49,322.88 845.13,351.81 983.61,348.98 "/>
<path class="st5" d="M559,205.67c-5.31,3.82-8.68,12.73-8.66,19.14c0.03,12.69,8.63,14.44,18.68,10.36
	c16.65-6.76,25.84-16.57,42.8-4.98c7.86,5.38,10.75,12.65,12.37,22c1.01,5.8,0.32,18.43,7.48,20.67
	c14.15,4.43,6.79-32.78,5.33-39.02c-2.5-10.69-5-21.43-10.7-31.03C618.87,190.28,603.35,187.72,559,205.67z"/>
<g>
	<g>
		<path class="st12" d="M140.63,392.21c-0.61,0-1.19-0.38-1.41-0.98c-0.41-1.11-0.79-2.23-1.16-3.36c-0.26-0.79,0.17-1.63,0.96-1.89
			c0.78-0.26,1.63,0.17,1.89,0.96c0.36,1.09,0.73,2.18,1.13,3.26c0.28,0.78-0.12,1.64-0.89,1.92
			C140.98,392.18,140.8,392.21,140.63,392.21z"/>
	</g>
	<g>
		<path class="st2" d="M137.54,382.14c-0.67,0-1.28-0.45-1.45-1.14c-0.57-2.29-1.08-4.63-1.5-6.98c-0.15-0.82,0.4-1.6,1.21-1.74
			c0.81-0.15,1.59,0.39,1.74,1.21c0.41,2.28,0.9,4.56,1.46,6.78c0.2,0.8-0.29,1.62-1.09,1.82
			C137.79,382.12,137.67,382.14,137.54,382.14z M135.05,368.3c-0.75,0-1.4-0.56-1.49-1.33c-0.27-2.33-0.46-4.72-0.58-7.1
			c-0.04-0.83,0.6-1.53,1.42-1.57c0.84-0.04,1.53,0.59,1.57,1.42c0.12,2.32,0.31,4.65,0.56,6.92c0.09,0.82-0.5,1.57-1.32,1.66
			C135.16,368.3,135.11,368.3,135.05,368.3z M134.34,354.26c-0.01,0-0.01,0-0.02,0c-0.83-0.01-1.49-0.69-1.48-1.52
			c0.03-2.35,0.12-4.75,0.29-7.11c0.06-0.83,0.77-1.46,1.6-1.39c0.83,0.06,1.45,0.78,1.39,1.6c-0.16,2.31-0.26,4.64-0.28,6.94
			C135.83,353.6,135.16,354.26,134.34,354.26z M135.34,340.24c-0.06,0-0.13,0-0.2-0.01c-0.82-0.11-1.4-0.86-1.29-1.68
			c0.3-2.34,0.68-4.71,1.12-7.03c0.15-0.81,0.94-1.35,1.75-1.19c0.81,0.15,1.35,0.94,1.19,1.75c-0.43,2.27-0.8,4.58-1.1,6.86
			C136.73,339.69,136.08,340.24,135.34,340.24z M137.96,326.42c-0.12,0-0.24-0.01-0.36-0.05c-0.8-0.2-1.29-1.02-1.09-1.82
			c0.57-2.3,1.22-4.6,1.93-6.86c0.25-0.79,1.09-1.23,1.88-0.98c0.79,0.25,1.23,1.09,0.98,1.88c-0.69,2.2-1.32,4.45-1.88,6.69
			C139.24,325.97,138.63,326.42,137.96,326.42z M142.15,313c-0.18,0-0.35-0.03-0.53-0.1c-0.77-0.29-1.17-1.16-0.87-1.93
			c0.84-2.21,1.75-4.43,2.71-6.59c0.34-0.76,1.22-1.1,1.98-0.76c0.76,0.34,1.1,1.22,0.76,1.98c-0.94,2.11-1.83,4.27-2.64,6.43
			C143.33,312.63,142.76,313,142.15,313z M147.89,300.15c-0.23,0-0.47-0.05-0.69-0.17c-0.74-0.38-1.02-1.29-0.64-2.02
			c1.1-2.11,2.27-4.2,3.49-6.22c0.43-0.71,1.35-0.94,2.06-0.51c0.71,0.43,0.94,1.35,0.51,2.06c-1.18,1.96-2.33,4-3.4,6.06
			C148.95,299.85,148.43,300.15,147.89,300.15z M229.05,299.27c-0.43,0-0.85-0.01-1.28-0.03c-1.4-0.06-2.8-0.21-4.14-0.45
			c-0.82-0.14-1.36-0.92-1.22-1.73c0.14-0.82,0.92-1.36,1.73-1.22c1.22,0.21,2.48,0.35,3.76,0.41c0.97,0.04,1.93,0.03,2.88-0.03
			c0.83-0.07,1.54,0.57,1.6,1.4c0.06,0.83-0.57,1.54-1.4,1.6C230.35,299.25,229.7,299.27,229.05,299.27z M237.78,297.86
			c-0.63,0-1.22-0.4-1.42-1.03c-0.26-0.79,0.17-1.63,0.96-1.89c2.12-0.69,4.14-1.65,6.01-2.83c0.7-0.44,1.63-0.23,2.07,0.47
			c0.44,0.7,0.23,1.63-0.47,2.07c-2.08,1.32-4.33,2.38-6.68,3.15C238.09,297.84,237.93,297.86,237.78,297.86z M217.18,296.78
			c-0.2,0-0.41-0.04-0.61-0.13c-2.24-1-4.36-2.3-6.31-3.85c-0.65-0.52-0.75-1.46-0.24-2.11c0.52-0.65,1.46-0.75,2.11-0.24
			c1.75,1.39,3.65,2.56,5.66,3.46c0.76,0.34,1.09,1.23,0.76,1.98C218.3,296.45,217.75,296.78,217.18,296.78z M249.53,290.41
			c-0.37,0-0.73-0.13-1.02-0.4c-0.6-0.57-0.64-1.52-0.07-2.12c1.53-1.63,2.82-3.45,3.83-5.38c0.38-0.73,1.29-1.02,2.02-0.64
			c0.73,0.38,1.02,1.29,0.64,2.02c-1.14,2.18-2.58,4.22-4.3,6.05C250.33,290.25,249.93,290.41,249.53,290.41z M206.26,288.14
			c-0.44,0-0.88-0.2-1.18-0.57c-1.47-1.87-2.79-3.95-3.92-6.18c-0.37-0.74-0.08-1.64,0.66-2.02c0.74-0.38,1.64-0.08,2.02,0.66
			c1.04,2.05,2.25,3.96,3.6,5.68c0.51,0.65,0.4,1.59-0.25,2.11C206.92,288.03,206.59,288.14,206.26,288.14z M155.15,288.1
			c-0.29,0-0.59-0.09-0.85-0.27c-0.68-0.47-0.85-1.41-0.38-2.09c1.36-1.96,2.79-3.89,4.25-5.73c0.52-0.65,1.46-0.76,2.11-0.24
			c0.65,0.52,0.76,1.46,0.24,2.11c-1.43,1.79-2.82,3.67-4.13,5.57C156.09,287.87,155.62,288.1,155.15,288.1z M255.93,278.08
			c-0.1,0-0.2-0.01-0.31-0.03c-0.81-0.17-1.33-0.96-1.16-1.77c0.36-1.74,0.55-3.46,0.55-5.09c0-0.5-0.02-1-0.05-1.49
			c-0.06-0.83,0.57-1.54,1.39-1.6c0.82-0.06,1.54,0.57,1.6,1.39c0.04,0.56,0.06,1.12,0.06,1.7c0,1.84-0.2,3.76-0.61,5.71
			C257.25,277.6,256.63,278.08,255.93,278.08z M163.91,277.09c-0.36,0-0.72-0.13-1.01-0.39c-0.61-0.56-0.65-1.51-0.1-2.12
			c1.61-1.76,3.29-3.48,5-5.1c0.6-0.57,1.55-0.55,2.12,0.06c0.57,0.6,0.55,1.55-0.06,2.12c-1.66,1.57-3.29,3.24-4.85,4.95
			C164.72,276.92,164.31,277.09,163.91,277.09z M199.89,275.69c-0.64,0-1.24-0.42-1.43-1.06c-0.7-2.29-1.22-4.68-1.56-7.09
			c-0.11-0.82,0.46-1.58,1.28-1.69c0.81-0.12,1.58,0.46,1.69,1.28c0.32,2.26,0.81,4.49,1.46,6.63c0.24,0.79-0.2,1.63-1,1.87
			C200.18,275.67,200.03,275.69,199.89,275.69z M174.11,267.42c-0.43,0-0.87-0.19-1.16-0.55c-0.52-0.64-0.43-1.59,0.21-2.11
			c1.85-1.51,3.76-2.96,5.7-4.3c0.68-0.47,1.62-0.31,2.09,0.38c0.47,0.68,0.31,1.61-0.38,2.09c-1.87,1.3-3.73,2.71-5.52,4.16
			C174.78,267.31,174.44,267.42,174.11,267.42z M254.84,264.29c-0.58,0-1.14-0.34-1.38-0.91c-0.84-1.97-2.01-3.81-3.5-5.49
			c-0.55-0.62-0.49-1.57,0.13-2.12c0.62-0.55,1.57-0.49,2.12,0.13c1.71,1.92,3.06,4.04,4.02,6.31c0.32,0.76-0.03,1.64-0.79,1.97
			C255.24,264.25,255.04,264.29,254.84,264.29z M197.94,261.81c-0.01,0-0.01,0-0.02,0c-0.83-0.01-1.49-0.69-1.48-1.52
			c0.04-2.45,0.26-4.88,0.68-7.24c0.01-0.08,0.03-0.15,0.06-0.22c-0.12-0.13-0.21-0.29-0.28-0.46c-0.3-0.77,0.09-1.64,0.87-1.94
			c2.22-0.85,4.5-1.61,6.78-2.27c0.79-0.23,1.63,0.23,1.86,1.02s-0.23,1.63-1.02,1.86c-1.8,0.52-3.6,1.11-5.37,1.75
			c0.09,0.24,0.11,0.5,0.07,0.77c-0.39,2.2-0.6,4.47-0.63,6.76C199.43,261.15,198.76,261.81,197.94,261.81z M185.64,259.4
			c-0.52,0-1.02-0.27-1.3-0.74c-0.42-0.72-0.18-1.63,0.54-2.05c2.05-1.2,4.18-2.33,6.31-3.35c0.75-0.36,1.64-0.04,2,0.7
			c0.36,0.75,0.04,1.64-0.7,2c-2.06,0.99-4.11,2.08-6.09,3.23C186.16,259.34,185.9,259.4,185.64,259.4z M245.74,253.83
			c-0.28,0-0.57-0.08-0.82-0.24c-1.8-1.18-3.82-2.2-5.98-3.04c-0.77-0.3-1.16-1.17-0.86-1.94c0.3-0.77,1.17-1.16,1.94-0.86
			c2.36,0.91,4.56,2.03,6.54,3.33c0.69,0.45,0.89,1.38,0.43,2.08C246.71,253.59,246.23,253.83,245.74,253.83z M211.79,249.44
			c-0.7,0-1.33-0.49-1.47-1.2c-0.16-0.81,0.36-1.6,1.17-1.77c2.32-0.47,4.7-0.84,7.06-1.12c0.82-0.09,1.57,0.49,1.67,1.31
			c0.1,0.82-0.49,1.57-1.31,1.67c-2.28,0.27-4.58,0.63-6.82,1.08C211.98,249.43,211.88,249.44,211.79,249.44z M232.73,248.72
			c-0.09,0-0.19-0.01-0.29-0.03c-2.21-0.43-4.48-0.68-6.74-0.74c-0.83-0.02-1.48-0.71-1.46-1.54c0.02-0.83,0.67-1.5,1.54-1.46
			c2.42,0.06,4.86,0.33,7.24,0.79c0.81,0.16,1.34,0.95,1.19,1.76C234.06,248.22,233.44,248.72,232.73,248.72z M200.14,247.96
			c-0.13,0-0.26-0.02-0.39-0.05c-0.8-0.21-1.28-1.03-1.07-1.83c0.61-2.3,1.31-4.6,2.09-6.83c0.27-0.78,1.13-1.19,1.91-0.92
			c0.78,0.27,1.19,1.13,0.92,1.91c-0.75,2.15-1.43,4.38-2.02,6.61C201.41,247.51,200.8,247.96,200.14,247.96z M204.76,234.7
			c-0.2,0-0.41-0.04-0.6-0.13c-0.76-0.33-1.1-1.22-0.77-1.98c0.96-2.17,2.01-4.33,3.13-6.42c0.39-0.73,1.3-1,2.03-0.61
			c0.73,0.39,1,1.3,0.61,2.03c-1.08,2.02-2.1,4.11-3.03,6.21C205.89,234.37,205.34,234.7,204.76,234.7z M211.4,222.33
			c-0.28,0-0.56-0.08-0.81-0.24c-0.7-0.45-0.9-1.38-0.45-2.07c1.28-1.99,2.66-3.96,4.09-5.86c0.5-0.66,1.44-0.79,2.1-0.29
			c0.66,0.5,0.79,1.44,0.29,2.1c-1.39,1.84-2.72,3.75-3.96,5.67C212.38,222.09,211.9,222.33,211.4,222.33z M219.88,211.12
			c-0.35,0-0.71-0.12-0.99-0.37c-0.62-0.55-0.68-1.5-0.13-2.12c1.56-1.77,3.21-3.51,4.9-5.18c0.59-0.58,1.54-0.57,2.12,0.02
			c0.58,0.59,0.57,1.54-0.02,2.12c-1.65,1.62-3.25,3.31-4.76,5.03C220.71,210.95,220.3,211.12,219.88,211.12z M229.88,201.26
			c-0.42,0-0.84-0.18-1.14-0.52c-0.54-0.63-0.47-1.58,0.16-2.12c1.78-1.53,3.64-3.03,5.54-4.47c0.66-0.5,1.6-0.37,2.1,0.29
			c0.5,0.66,0.37,1.6-0.29,2.1c-1.85,1.4-3.67,2.86-5.39,4.35C230.57,201.14,230.22,201.26,229.88,201.26z M241.07,192.79
			c-0.49,0-0.96-0.23-1.25-0.67c-0.46-0.69-0.27-1.62,0.42-2.08c1.95-1.3,3.97-2.56,6.03-3.77c0.71-0.42,1.63-0.18,2.05,0.53
			c0.42,0.71,0.18,1.63-0.53,2.05c-2,1.18-3.98,2.41-5.88,3.68C241.65,192.71,241.36,192.79,241.07,192.79z M253.18,185.67
			c-0.54,0-1.07-0.3-1.33-0.81c-0.38-0.74-0.09-1.64,0.64-2.02c2.07-1.07,4.22-2.12,6.39-3.1c0.75-0.35,1.64-0.01,1.99,0.74
			c0.34,0.75,0.01,1.64-0.74,1.99c-2.12,0.97-4.22,1.99-6.25,3.04C253.65,185.62,253.41,185.67,253.18,185.67z M396.24,181.12
			c-0.2,0-0.41-0.04-0.6-0.13c-2.12-0.93-4.28-1.83-6.43-2.67c-0.77-0.3-1.15-1.17-0.85-1.94c0.3-0.77,1.17-1.15,1.94-0.85
			c2.19,0.85,4.4,1.77,6.56,2.72c0.76,0.33,1.1,1.22,0.77,1.98C397.37,180.79,396.82,181.12,396.24,181.12z M265.96,179.84
			c-0.6,0-1.16-0.36-1.39-0.94c-0.31-0.77,0.07-1.64,0.84-1.95c2.17-0.87,4.41-1.7,6.65-2.48c0.78-0.27,1.64,0.14,1.91,0.92
			c0.27,0.78-0.14,1.64-0.92,1.91c-2.2,0.77-4.39,1.59-6.52,2.44C266.33,179.81,266.14,179.84,265.96,179.84z M383.14,176.02
			c-0.16,0-0.32-0.03-0.48-0.08c-2.18-0.74-4.42-1.44-6.65-2.09c-0.8-0.23-1.25-1.06-1.02-1.86c0.23-0.8,1.06-1.25,1.86-1.02
			c2.27,0.66,4.55,1.37,6.77,2.13c0.78,0.27,1.21,1.12,0.94,1.9C384.35,175.63,383.76,176.02,383.14,176.02z M279.23,175.21
			c-0.64,0-1.24-0.42-1.44-1.07c-0.24-0.79,0.21-1.63,1-1.87c2.24-0.67,4.54-1.31,6.84-1.9c0.8-0.21,1.62,0.28,1.83,1.08
			c0.21,0.8-0.28,1.62-1.08,1.83c-2.25,0.58-4.51,1.21-6.72,1.87C279.52,175.19,279.37,175.21,279.23,175.21z M369.63,172.11
			c-0.12,0-0.24-0.01-0.35-0.04c-2.24-0.54-4.53-1.04-6.81-1.48c-0.81-0.16-1.34-0.95-1.19-1.76c0.16-0.81,0.94-1.35,1.76-1.19
			c2.32,0.45,4.65,0.96,6.94,1.51c0.81,0.19,1.3,1,1.11,1.81C370.92,171.65,370.31,172.11,369.63,172.11z M292.85,171.71
			c-0.69,0-1.31-0.48-1.47-1.19c-0.17-0.81,0.34-1.61,1.15-1.78c2.29-0.49,4.64-0.95,6.97-1.35c0.82-0.14,1.59,0.4,1.73,1.22
			c0.14,0.82-0.41,1.59-1.22,1.73c-2.29,0.4-4.6,0.85-6.86,1.33C293.06,171.7,292.96,171.71,292.85,171.71z M355.83,169.42
			c-0.07,0-0.15-0.01-0.22-0.02c-2.28-0.34-4.6-0.63-6.91-0.88c-0.82-0.09-1.42-0.82-1.34-1.65c0.09-0.82,0.83-1.42,1.65-1.34
			c2.35,0.25,4.72,0.55,7.04,0.89c0.82,0.12,1.38,0.89,1.26,1.7C357.2,168.89,356.56,169.42,355.83,169.42z M306.73,169.3
			c-0.74,0-1.38-0.55-1.48-1.3c-0.11-0.82,0.47-1.58,1.29-1.69c2.34-0.31,4.71-0.59,7.05-0.81c0.82-0.08,1.56,0.52,1.64,1.35
			c0.08,0.82-0.53,1.56-1.35,1.64c-2.3,0.22-4.64,0.49-6.93,0.8C306.86,169.29,306.8,169.3,306.73,169.3z M341.84,167.96
			c-0.03,0-0.06,0-0.09,0c-1.28-0.08-2.55-0.14-3.84-0.19c-1.04-0.04-2.08-0.07-3.13-0.09c-0.83-0.02-1.49-0.7-1.47-1.53
			c0.02-0.83,0.69-1.49,1.53-1.47c1.07,0.02,2.13,0.05,3.18,0.09c1.31,0.05,2.61,0.11,3.91,0.19c0.83,0.05,1.46,0.76,1.41,1.59
			C343.28,167.35,342.62,167.96,341.84,167.96z M320.74,167.95c-0.79,0-1.45-0.62-1.5-1.41c-0.05-0.83,0.58-1.54,1.41-1.58
			c2.36-0.14,4.74-0.23,7.09-0.27c0.82-0.05,1.51,0.64,1.53,1.47c0.02,0.83-0.64,1.51-1.47,1.53c-2.31,0.04-4.66,0.14-6.97,0.27
			C320.8,167.95,320.77,167.95,320.74,167.95z"/>
	</g>
	<g>
		<path class="st12" d="M405.95,185.79c-0.23,0-0.47-0.06-0.69-0.17c-1.03-0.54-2.06-1.06-3.09-1.57c-0.74-0.37-1.05-1.27-0.68-2.01
			c0.37-0.74,1.27-1.05,2.01-0.68c1.05,0.52,2.1,1.06,3.15,1.6c0.73,0.38,1.02,1.29,0.63,2.02
			C407.01,185.5,406.49,185.79,405.95,185.79z"/>
	</g>
</g>
<polygon class="st2" points="384.75,179.66 388.37,189.46 447.74,181.07 "/>
<polygon class="st11" points="386.08,157.04 398.2,145.77 447.74,181.07 "/>
<polygon class="st11" points="377.74,162.55 447.74,181.07 359.1,179.26 "/>
<polygon class="st2" points="386.08,157.04 387.68,165.18 447.74,181.07 "/>
<g>
	<path class="st6" d="M664.01,340.93c7.75-0.78,11.04-8.28,12.98-14.91c0.54-1.86-2.35-2.65-2.89-0.8
		c-1.48,5.08-3.93,12.09-10.08,12.7C662.11,338.12,662.09,341.12,664.01,340.93L664.01,340.93z"/>
</g>
<g>
	<path class="st1" d="M549.93,209.86c-3.91,8.33-2.76,21.12,5.69,26.4c12.42,7.76,25.02-6.19,36.62-8.64
		c8.93-1.89,19.54,0.8,24.98,8.57c4.55,6.5,5,14.4,6.11,21.95c1.44,9.83,7.47,19.55,18.19,20.18c1.45,0.09,1.44-2.16,0-2.25
		c-6.8-0.4-11.47-5.13-14-11.16c-2.27-5.39-2.04-11.15-3.3-16.77c-2.5-11.13-8.32-20.11-20.07-22.7c-5.34-1.18-10.99-0.8-16.15,1.02
		c-5.78,2.04-10.77,5.82-16.49,8.02c-7.04,2.7-14.98,2.3-19.04-4.88c-3.12-5.52-3.27-12.91-0.59-18.61
		C552.48,209.69,550.55,208.55,549.93,209.86L549.93,209.86z"/>
</g>
<g>
	<path class="st6" d="M576.12,226.17c5.4-3.34,10.37-6.72,16.72-8.06c5.88-1.24,12.26-0.93,17.9,1.19
		c13.31,5,19.02,18.11,20.28,31.46c0.18,1.91,3.18,1.92,3,0c-1.33-14.11-7.09-27.69-20.73-33.64c-5.75-2.51-12.16-3.21-18.36-2.4
		c-7.86,1.03-13.74,4.8-20.32,8.86C572.97,224.59,574.47,227.19,576.12,226.17L576.12,226.17z"/>
</g>
<g>
	<path class="st6" d="M609.33,211.17c5.39,0.13,10.54,1.98,14.61,5.56c1.44,1.27,3.57-0.84,2.12-2.12
		c-4.67-4.11-10.52-6.29-16.73-6.44C607.4,208.12,607.4,211.12,609.33,211.17L609.33,211.17z"/>
</g>
</svg>
