<?xml version="1.0" encoding="utf-8"?>
<!-- Generator: Adobe Illustrator 28.1.0, SVG Export Plug-In . SVG Version: 6.00 Build 0)  -->
<svg version="1.1" xmlns="http://www.w3.org/2000/svg" xmlns:xlink="http://www.w3.org/1999/xlink" x="0px" y="0px"
	 viewBox="0 0 700 500" style="enable-background:new 0 0 700 500;" xml:space="preserve">
<style type="text/css">
	.st0{opacity:0.2;fill:#97A7AF;}
	.st1{opacity:0.3;}
	.st2{fill:#326D6D;}
	.st3{fill:#709998;stroke:#000000;stroke-miterlimit:10;}
	.st4{fill:#3A415E;}
	.st5{fill:#326D6D;stroke:#000000;stroke-miterlimit:10;}
	.st6{opacity:0.5;fill:none;stroke:#97A7AF;stroke-width:1.5595;stroke-miterlimit:10;stroke-dasharray:6.2378,6.2378;}
	.st7{fill:#97A7AF;}
	.st8{opacity:0.3;fill:#1395ED;}
	.st9{opacity:0.3;fill:#97A7AF;}
	.st10{fill:#25263A;}
	.st11{fill:#709998;}
	.st12{fill:#FFFFFF;}
	.st13{opacity:0.5;}
	.st14{fill:none;stroke:#97A7AF;stroke-width:1.5595;stroke-miterlimit:10;}
	.st15{fill:none;stroke:#97A7AF;stroke-width:1.5595;stroke-miterlimit:10;stroke-dasharray:6.1253,6.1253;}
	.st16{fill:none;stroke:#1395ED;stroke-width:1.4974;stroke-miterlimit:10;}
	.st17{fill:#F45573;}
	.st18{font-family:'Montserrat-Bold';}
	.st19{font-size:14.498px;}
	.st20{opacity:0.2;}
	.st21{fill:#C2CFD8;}
	.st22{fill:#1395ED;}
	.st23{fill:none;stroke:#1147CB;stroke-width:1.3182;stroke-miterlimit:10;}
	.st24{fill:#1147CB;}
	.st25{fill:#E8BB91;}
	.st26{fill:#D1A16D;}
	.st27{fill:#B29476;}
	.st28{fill:none;stroke:#1C2035;stroke-width:1.3182;stroke-miterlimit:10;}
	.st29{fill:#7F7F7F;}
	.st30{fill:none;stroke:#25263A;stroke-linecap:round;stroke-linejoin:round;stroke-miterlimit:10;}
	.st31{fill:#8E8E8E;}
	.st32{fill:none;stroke:#1147CB;stroke-width:1.2814;stroke-miterlimit:10;}
	.st33{fill:#CC3366;}
	.st34{fill:none;stroke:#1C2035;stroke-width:1.2814;stroke-miterlimit:10;}
</style>
<g id="BACKGROUND">
</g>
<g id="OBJECTS">
	<g>
		<g>
			<g>
				<path class="st0" d="M264.49,449.65c0,0-33.73-230.93-86.47-208.33c-22.18,9.5-10.43,58.06,2.76,95.92
					c2.03,5.81-5.6,10.03-9.42,5.21c-19.32-24.4-44.15-46.94-59.53-27.29c-15.4,19.67-0.09,43.1,16.87,60.25
					c4.79,4.84,0.32,12.9-6.33,11.41c-13.97-3.14-27.7-3.27-31.88,6.39c-13.92,32.2,32.09,56.43,63.34,56.43
					S264.49,449.65,264.49,449.65z"/>
				<path class="st0" d="M445.57,449.65c0,0,3.88-193.62,56.15-182.08c21.76,4.81,22.96,36.38,19.74,63.47
					c-0.66,5.52,6.8,7.82,9.37,2.88c15.85-30.51,39.61-66.57,58.38-53.67c21.35,14.67,0.36,46.29-18.67,68.48
					c-3.44,4.01,0.21,10.1,5.37,8.93c10.99-2.51,22.8-0.66,30.15,13.78c16.85,33.12-15.77,76.71-68.44,76.71
					C484.93,448.15,445.57,449.65,445.57,449.65z"/>
			</g>
			<g>
				<g>
					<g class="st1">
						<g>
							<path class="st2" d="M205.53,147.17c0-3.5,0-6.99,0-10.49c3.25-1.78,6.75-3,10.16-4.4c3.28-1.34,4.77-5.14,3.3-8.39
								c-1.21-2.69-2.35-5.42-3.56-8.12c-0.53-1.2-0.35-2.15,0.64-3.06c1.63-1.5,3.24-3.04,4.75-4.66c1.02-1.09,2.05-1.33,3.41-0.78
								c3.05,1.24,6.12,2.42,9.19,3.61c2.47,0.96,6.54-0.8,7.54-3.24c1.17-2.86,2.36-5.71,3.5-8.58c0.56-1.41,1.45-2.12,3.06-2.04
								c2.15,0.1,4.3,0.09,6.45,0c1.48-0.06,2.4,0.52,2.98,1.87c1.15,2.72,2.39,5.41,3.54,8.13c1.41,3.34,5.27,4.92,8.55,3.5
								c2.77-1.21,5.58-2.32,8.36-3.52c1.27-0.55,2.27-0.37,3.25,0.66c1.52,1.61,3.12,3.16,4.77,4.63c1.07,0.95,1.31,1.92,0.76,3.21
								c-1.22,2.91-2.39,5.84-3.59,8.76c-1.14,2.76,0.53,6.73,3.3,7.8c3.5,1.36,7.08,2.54,10.46,4.23c0,3.5,0,6.99,0,10.49
								c-3.51,1.87-7.26,3.18-10.91,4.72c-2.21,0.93-3.86,5.16-2.9,7.34c1.25,2.83,2.47,5.67,3.75,8.48
								c0.67,1.47,0.53,2.62-0.76,3.74c-1.58,1.36-3.06,2.84-4.47,4.37c-1.01,1.09-2.05,1.34-3.41,0.79
								c-2.86-1.17-5.75-2.27-8.62-3.41c-3.2-1.27-7.12,0.42-8.37,3.58c-1.03,2.63-2.16,5.22-3.17,7.85
								c-0.6,1.57-1.55,2.36-3.33,2.25c-2.08-0.13-4.17-0.09-6.25-0.01c-1.48,0.06-2.41-0.5-2.98-1.85
								c-1.26-2.97-2.57-5.92-3.86-8.87c-1.05-2.39-5.27-4.05-7.65-3.03c-2.9,1.24-5.83,2.44-8.72,3.7
								c-1.4,0.61-2.51,0.49-3.59-0.71c-1.44-1.59-2.99-3.1-4.6-4.52c-1.15-1.01-1.33-2.04-0.75-3.39c1.13-2.66,2.19-5.34,3.31-8.01
								c1.5-3.57-0.04-7.2-3.63-8.56C212.09,149.95,208.7,148.82,205.53,147.17z M250.92,155.65c7.98,0,14.28-6.1,14.27-13.83
								c-0.01-7.97-6.19-14.04-14.28-14.03c-8.01,0.01-14.27,6.08-14.25,13.83C236.68,149.62,242.81,155.65,250.92,155.65z"/>
						</g>
					</g>
					<g class="st1">
						<g>
							<path class="st2" d="M308.24,82.94c1.2-1.37,2.39-2.74,3.59-4.11c1.88,0.41,3.67,1.13,5.49,1.75
								c1.75,0.6,3.62-0.38,4.16-2.16c0.45-1.47,0.93-2.93,1.38-4.4c0.2-0.65,0.6-0.96,1.3-0.98c1.15-0.03,2.31-0.08,3.45-0.2
								c0.77-0.08,1.26,0.18,1.6,0.86c0.77,1.53,1.57,3.04,2.37,4.56c0.64,1.22,2.83,1.92,4.06,1.3c1.44-0.72,2.88-1.43,4.31-2.17
								c0.7-0.36,1.29-0.34,1.9,0.24c0.81,0.77,1.66,1.51,2.53,2.21c0.6,0.48,0.77,1.02,0.53,1.75c-0.48,1.46-0.91,2.94-1.39,4.4
								c-0.59,1.79,0.38,3.73,2.15,4.29c1.5,0.47,2.98,1,4.48,1.48c0.69,0.22,1.02,0.63,1.05,1.37c0.05,1.15,0.14,2.3,0.29,3.45
								c0.09,0.73-0.14,1.2-0.8,1.52c-1.47,0.72-2.93,1.47-4.4,2.21c-1.39,0.69-2.09,2.82-1.38,4.19c0.91,1.73,1.91,3.42,2.65,5.23
								c-1.2,1.37-2.39,2.74-3.59,4.11c-2.01-0.47-3.93-1.23-5.89-1.88c-1.18-0.39-3.28,0.7-3.65,1.88
								c-0.48,1.53-0.97,3.07-1.43,4.61c-0.24,0.81-0.69,1.21-1.58,1.2c-1.08-0.01-2.17,0.07-3.24,0.18
								c-0.77,0.08-1.26-0.17-1.61-0.86c-0.72-1.44-1.48-2.85-2.21-4.28c-0.82-1.59-2.93-2.27-4.5-1.46
								c-1.3,0.68-2.63,1.31-3.93,1.99c-0.77,0.41-1.41,0.4-2.08-0.26c-0.77-0.76-1.6-1.46-2.45-2.14c-0.6-0.48-0.77-1.02-0.54-1.75
								c0.52-1.59,1.02-3.2,1.52-4.8c0.41-1.29-0.68-3.39-1.96-3.8c-1.56-0.51-3.12-1.04-4.68-1.53c-0.76-0.24-1.15-0.66-1.17-1.51
								c-0.02-1.12-0.11-2.24-0.26-3.34c-0.11-0.79,0.18-1.25,0.86-1.59c1.35-0.65,2.69-1.34,4.04-2.01c1.81-0.89,2.44-2.84,1.5-4.6
								C309.86,86.27,308.92,84.67,308.24,82.94z M323.13,101.78c3.13,2.73,7.68,2.49,10.32-0.54c2.72-3.13,2.37-7.62-0.8-10.38
								c-3.14-2.74-7.67-2.5-10.31,0.55C319.61,94.55,319.95,99.01,323.13,101.78z"/>
						</g>
					</g>
				</g>
			</g>
			<g>
				<g>
					<g>
						<path class="st3" d="M107.25,172.74l12.73-12.73c-6.07-5.97-14.39-9.65-23.56-9.65v18
							C100.62,168.36,104.43,170.03,107.25,172.74z"/>
						<path class="st4" d="M119.97,160.01l-12.73,12.73c2.96,2.85,4.81,6.84,4.81,11.26c0,4.2-1.67,8.02-4.38,10.83l12.73,12.73
							c5.97-6.07,9.65-14.39,9.65-23.56C130.06,174.62,126.19,166.12,119.97,160.01z"/>
						<path class="st5" d="M96.42,199.65c-8.63,0-15.65-7.02-15.65-15.65c0-8.63,7.02-15.65,15.65-15.65v-18
							c-18.55,0-33.65,15.09-33.65,33.65c0,18.55,15.09,33.65,33.65,33.65c9.39,0,17.88-3.87,23.99-10.09l-12.73-12.73
							C104.83,197.8,100.84,199.65,96.42,199.65z"/>
					</g>
					<g>
						<path class="st3" d="M527.48,109.67l12.73-12.73c-6.07-5.97-14.39-9.65-23.56-9.65v18
							C520.85,105.29,524.67,106.96,527.48,109.67z"/>
						<path class="st4" d="M540.21,96.94l-12.73,12.73c2.96,2.85,4.81,6.84,4.81,11.26c0,4.2-1.67,8.02-4.38,10.83l12.73,12.73
							c5.97-6.07,9.65-14.39,9.65-23.56C550.29,111.55,546.43,103.05,540.21,96.94z"/>
						<path class="st5" d="M516.65,136.58c-8.63,0-15.65-7.02-15.65-15.65c0-8.63,7.02-15.65,15.65-15.65v-18
							c-18.55,0-33.65,15.09-33.65,33.65c0,18.55,15.09,33.65,33.65,33.65c9.39,0,17.88-3.87,23.99-10.09l-12.73-12.73
							C525.06,134.73,521.07,136.58,516.65,136.58z"/>
					</g>
					<g>
						<path class="st3" d="M589.13,159.73l7.9-7.8c-3.77-3.66-8.93-5.92-14.62-5.92v11.03
							C585.01,157.05,587.38,158.07,589.13,159.73z"/>
						<path class="st4" d="M597.03,151.93l-7.9,7.8c1.84,1.75,2.99,4.19,2.99,6.9c0,2.58-1.04,4.91-2.72,6.64l7.9,7.8
							c3.7-3.72,5.99-8.82,5.99-14.44C603.29,160.88,600.89,155.68,597.03,151.93z"/>
						<path class="st5" d="M582.4,176.22c-5.36,0-9.71-4.3-9.71-9.59c0-5.29,4.36-9.59,9.71-9.59v-11.03
							c-11.52,0-20.89,9.25-20.89,20.62c0,11.37,9.37,20.62,20.89,20.62c5.83,0,11.1-2.37,14.89-6.18l-7.9-7.8
							C587.63,175.09,585.15,176.22,582.4,176.22z"/>
					</g>
					<polyline class="st6" points="96.42,150.36 96.42,101.37 188.91,101.37 					"/>
					<circle class="st7" cx="191.16" cy="101.37" r="3.94"/>
					<line class="st6" x1="96.42" y1="217.65" x2="96.42" y2="281"/>
					<circle class="st7" cx="96.42" cy="281" r="3.94"/>
				</g>
				<g>
					<circle class="st7" cx="582.27" cy="252.04" r="3.94"/>
					<polyline class="st6" points="551.3,109.37 582.27,109.37 582.27,132.5 					"/>
					<line class="st6" x1="582.27" y1="199.79" x2="582.27" y2="252.04"/>
				</g>
			</g>
			<g>
				<circle class="st8" cx="138.28" cy="141.73" r="7.16"/>
				<path class="st8" d="M481.83,179.59c0,3.95-3.2,7.16-7.16,7.16c-3.95,0-7.16-3.2-7.16-7.16c0-3.95,3.2-7.16,7.16-7.16
					C478.63,172.43,481.83,175.63,481.83,179.59z"/>
				<path class="st9" d="M612.79,218.75c0,3.95-3.2,7.16-7.16,7.16c-3.95,0-7.16-3.2-7.16-7.16c0-3.95,3.2-7.16,7.16-7.16
					C609.59,211.59,612.79,214.8,612.79,218.75z"/>
				<path class="st9" d="M156.95,125.86c0,2.02-1.64,3.66-3.66,3.66c-2.02,0-3.66-1.64-3.66-3.66c0-2.02,1.64-3.66,3.66-3.66
					C155.31,122.21,156.95,123.84,156.95,125.86z"/>
				<path class="st9" d="M471.53,155.13c0,2.02-1.64,3.66-3.66,3.66c-2.02,0-3.66-1.64-3.66-3.66c0-2.02,1.64-3.66,3.66-3.66
					C469.9,151.47,471.53,153.11,471.53,155.13z"/>
				<path class="st8" d="M577.72,88.52c0,2.02-1.64,3.66-3.66,3.66c-2.02,0-3.66-1.64-3.66-3.66c0-2.02,1.64-3.66,3.66-3.66
					C576.08,84.86,577.72,86.5,577.72,88.52z"/>
				<path class="st9" d="M547.64,201.59c0,2.02-1.64,3.66-3.66,3.66c-2.02,0-3.66-1.64-3.66-3.66c0-2.02,1.64-3.66,3.66-3.66
					C546,197.94,547.64,199.57,547.64,201.59z"/>
				<circle class="st9" cx="199.5" cy="188.93" r="3.66"/>
				<path class="st9" d="M82.65,238.84c0,3.2-2.6,5.8-5.8,5.8c-3.2,0-5.8-2.6-5.8-5.8c0-3.2,2.6-5.8,5.8-5.8
					C80.05,233.04,82.65,235.64,82.65,238.84z"/>
				<path class="st9" d="M84.17,110.37c0,2.02-1.64,3.66-3.66,3.66c-2.02,0-3.66-1.64-3.66-3.66c0-2.02,1.64-3.66,3.66-3.66
					C82.53,106.71,84.17,108.35,84.17,110.37z"/>
			</g>
		</g>
		<g>
			<g>
				<rect x="77.23" y="448.9" class="st10" width="519.98" height="1.5"/>
			</g>
			<g>
				<rect x="50" y="448.9" class="st10" width="20.22" height="1.5"/>
			</g>
			<g>
				<rect x="605.64" y="448.9" class="st10" width="19.09" height="1.5"/>
			</g>
			<g>
				<rect x="630.91" y="448.9" class="st10" width="19.09" height="1.5"/>
			</g>
		</g>
	</g>
	<g>
		<g>
			<path class="st5" d="M302.81,448.85h-9.24c-4.82,0-8.45-4.41-7.52-9.14l5.28-26.8h18.55L302.81,448.85z"/>
			<polygon class="st5" points="386.42,448.85 293.77,448.85 300.85,412.91 393.5,412.91 			"/>
			<polygon class="st5" points="293.77,448.85 397.15,448.85 399.96,438.74 295.76,438.74 			"/>
		</g>
		<g>
			<path class="st7" d="M242.99,412.96H221c-11.88,0-21.51-9.63-21.51-21.51V224.36c0-11.88,9.63-21.51,21.51-21.51h21.98
				c11.88,0,21.51,9.63,21.51,21.51v167.09C264.49,403.33,254.86,412.96,242.99,412.96z"/>
			<path class="st11" d="M462.21,412.96H230.95c-12.84,0-23.26-10.41-23.26-23.26V226.11c0-12.84,10.41-23.26,23.26-23.26h231.26
				c12.84,0,23.26,10.41,23.26,23.26V389.7C485.47,402.55,475.05,412.96,462.21,412.96z"/>
			<path class="st12" d="M461.42,383.25H231.75c-8.51,0-15.41-6.9-15.41-15.41v-140.8c0-8.51,6.9-15.41,15.41-15.41h229.67
				c8.51,0,15.41,6.9,15.41,15.41v140.8C476.83,376.35,469.93,383.25,461.42,383.25z"/>
			<path class="st12" d="M353.35,398.64c0,3.41-2.77,6.18-6.18,6.18c-3.41,0-6.18-2.77-6.18-6.18s2.77-6.18,6.18-6.18
				C350.58,392.46,353.35,395.23,353.35,398.64z"/>
		</g>
		<g>
			<g>
				<g class="st13">
					<g>
						<line class="st14" x1="250.81" y1="211.63" x2="250.81" y2="214.75"/>
						<line class="st15" x1="250.81" y1="220.87" x2="250.81" y2="377.07"/>
						<line class="st14" x1="250.81" y1="380.13" x2="250.81" y2="383.25"/>
					</g>
				</g>
				<g class="st13">
					<g>
						<line class="st14" x1="289.35" y1="211.63" x2="289.35" y2="214.75"/>
						<line class="st15" x1="289.35" y1="220.87" x2="289.35" y2="377.07"/>
						<line class="st14" x1="289.35" y1="380.13" x2="289.35" y2="383.25"/>
					</g>
				</g>
				<g class="st13">
					<g>
						<line class="st14" x1="327.9" y1="211.63" x2="327.9" y2="214.75"/>
						<line class="st15" x1="327.9" y1="220.87" x2="327.9" y2="377.07"/>
						<line class="st14" x1="327.9" y1="380.13" x2="327.9" y2="383.25"/>
					</g>
				</g>
				<g class="st13">
					<g>
						<line class="st14" x1="366.45" y1="211.63" x2="366.45" y2="214.75"/>
						<line class="st15" x1="366.45" y1="220.87" x2="366.45" y2="377.07"/>
						<line class="st14" x1="366.45" y1="380.13" x2="366.45" y2="383.25"/>
					</g>
				</g>
				<g class="st13">
					<g>
						<line class="st14" x1="404.99" y1="211.63" x2="404.99" y2="214.75"/>
						<line class="st15" x1="404.99" y1="220.87" x2="404.99" y2="377.07"/>
						<line class="st14" x1="404.99" y1="380.13" x2="404.99" y2="383.25"/>
					</g>
				</g>
				<g class="st13">
					<g>
						<line class="st14" x1="443.54" y1="211.63" x2="443.54" y2="214.75"/>
						<line class="st15" x1="443.54" y1="220.87" x2="443.54" y2="377.07"/>
						<line class="st14" x1="443.54" y1="380.13" x2="443.54" y2="383.25"/>
					</g>
				</g>
			</g>
			<g>
				<g>
					<rect x="415.84" y="328.77" class="st2" width="11.23" height="54.48"/>
					<g>
						<rect x="383.67" y="346.99" class="st2" width="11.23" height="36.26"/>
					</g>
					<g>
						<rect x="437.92" y="304.1" class="st2" width="11.23" height="79.15"/>
					</g>
				</g>
			</g>
			<g>
				<polyline class="st16" points="250.81,307.91 289.35,321.43 366.45,297.44 404.99,301.21 443.54,240.57 				"/>
				<path class="st17" d="M253.74,307.91c0,1.62-1.31,2.93-2.93,2.93c-1.62,0-2.93-1.31-2.93-2.93s1.31-2.93,2.93-2.93
					C252.43,304.97,253.74,306.28,253.74,307.91z"/>
				<path class="st17" d="M292.29,321.43c0,1.62-1.31,2.93-2.93,2.93s-2.93-1.31-2.93-2.93s1.31-2.93,2.93-2.93
					S292.29,319.81,292.29,321.43z"/>
				<path class="st17" d="M369.38,297.44c0,1.62-1.31,2.93-2.93,2.93c-1.62,0-2.93-1.31-2.93-2.93s1.31-2.93,2.93-2.93
					C368.07,294.51,369.38,295.82,369.38,297.44z"/>
				<path class="st17" d="M446.47,240.57c0,1.62-1.31,2.93-2.93,2.93c-1.62,0-2.93-1.31-2.93-2.93s1.31-2.93,2.93-2.93
					C445.16,237.63,446.47,238.95,446.47,240.57z"/>
				<path class="st17" d="M407.93,301.17c0,1.62-1.31,2.93-2.93,2.93c-1.62,0-2.93-1.31-2.93-2.93c0-1.62,1.31-2.93,2.93-2.93
					C406.61,298.23,407.93,299.55,407.93,301.17z"/>
			</g>
			<g>
				<path class="st11" d="M288.71,249.83h-63.78c-0.35,0-0.64-0.29-0.64-0.64v-17.25c0-0.35,0.29-0.64,0.64-0.64h63.78
					c0.35,0,0.64,0.29,0.64,0.64v17.25C289.35,249.54,289.07,249.83,288.71,249.83z"/>
				<g>
					<text transform="matrix(1 0 0 1 232.3544 245.7292)" class="st12 st18 st19">START</text>
				</g>
			</g>
		</g>
	</g>
	<g>
		<g class="st20">
			<g>
				<path class="st7" d="M344.6,202.72c-17.69-9.23-41.46-2.65-47.79,15.68c-1.2,3.47-2.18,7.62-5.54,9.11
					c-1.73,0.76-3.7,0.6-5.59,0.61c-17.2,0.09-31.45,19.2-26.63,35.71c1.17,3.99,3.25,8.07,2.19,12.09
					c-0.9,3.42-3.83,5.83-6.43,8.23c-9.36,8.64-16.26,20.35-17.52,33.03c-1.26,12.68,3.66,26.19,13.86,33.83
					c10.2,7.64,25.6,8.24,35.47,0.18c4.65-3.79,8.83-9.56,14.82-9.31c3.52,0.15,6.52,2.44,9.68,4.01
					c12.56,6.27,29.83-0.54,34.74-13.69c0.99-2.64,1.6-5.58,3.6-7.58c2.9-2.9,7.54-2.76,11.65-2.83
					c14.66-0.25,30.12-6.68,37.12-19.56c7-12.88,1.85-32.1-12.12-36.55c-2.33-0.74-5.03-1.24-6.36-3.28
					c-1.74-2.67-0.07-6.15,1.22-9.06c4.82-10.88,3.78-24.16-2.68-34.15C371.84,209.18,355.15,208.23,344.6,202.72z"/>
			</g>
			<g>
				<path class="st7" d="M365.03,335.41c-5.78,1.83-8.84,8.56-10.47,14.4c-0.43,1.54-0.7,3.23-0.06,4.69
					c0.69,1.56,2.27,2.51,3.84,3.16c4.89,2,10.8,1.75,15.17-1.23c4.36-2.98,6.77-8.82,5.18-13.86
					C377.09,337.53,370.07,333.82,365.03,335.41z"/>
			</g>
			<g>
				<path class="st7" d="M295.44,356.82c-1.61,3.2-4.03,6.35-2.78,9.71c1.24,3.36,5.14,5.63,8.6,4.69c1.08-0.29,2.07-0.85,2.95-1.56
					c3.55-2.85,4.73-8.57,1.94-12.17C303.37,353.89,297.49,352.76,295.44,356.82z"/>
			</g>
		</g>
		<path class="st7" d="M370.1,156.39c0,0-23.27-8.45-55.27-2.24c-0.66,0.13-1.22,0.59-1.48,1.21l-10.31,24.86
			c-0.46,1.11,0.16,2.37,1.32,2.68l43.79,11.69L370.1,156.39z"/>
		<path class="st7" d="M404.63,176.23c0,0,19.02,15.84,29.78,46.61c0.22,0.64,0.11,1.35-0.3,1.89l-16.28,21.43
			c-0.73,0.96-2.13,1.06-2.99,0.21l-32.16-31.94L404.63,176.23z"/>
		<path class="st21" d="M380.53,225.06c77.23-53.93,80.81-144.99,80.26-169.96c-0.07-3.3-3.35-5.56-6.46-4.46
			C355.56,85.52,338.1,200.58,338.1,200.58l0.29,0.3C349.85,212.79,364.47,221.18,380.53,225.06L380.53,225.06z"/>
		<path class="st2" d="M338.1,200.58l0.29,0.3c11.46,11.91,26.08,20.29,42.14,24.18c4.65-3.25,9.03-6.64,13.17-10.13
			c-26.27-8.66-43.32-22.51-51.86-30.92C339.07,194.21,338.1,200.58,338.1,200.58z"/>
		<path class="st2" d="M456.81,101.48c3.85-20.64,4.17-37.6,3.98-46.38c-0.07-3.3-3.35-5.56-6.46-4.46
			c-16.36,5.78-30.48,13.77-42.67,23.06C416.96,82.04,430.9,99.17,456.81,101.48z"/>
		<circle class="st7" cx="406.29" cy="132.75" r="22.38"/>
		<circle class="st4" cx="406.29" cy="132.75" r="16.78"/>
		<g>
			<g>
				<g>
					<path class="st7" d="M412.41,80.77c0,0.87-0.7,1.57-1.57,1.57c-0.87,0-1.57-0.7-1.57-1.57c0-0.87,0.7-1.57,1.57-1.57
						C411.7,79.19,412.41,79.9,412.41,80.77z"/>
				</g>
				<g>
					<path class="st7" d="M418.38,88.52c0,0.87-0.7,1.57-1.57,1.57s-1.57-0.7-1.57-1.57c0-0.87,0.7-1.57,1.57-1.57
						S418.38,87.65,418.38,88.52z"/>
				</g>
				<g>
					<path class="st7" d="M433.94,100.17c0,0.87-0.7,1.57-1.57,1.57c-0.87,0-1.57-0.7-1.57-1.57s0.7-1.57,1.57-1.57
						C433.23,98.6,433.94,99.3,433.94,100.17z"/>
				</g>
				<g>
					<path class="st7" d="M453.32,105.01c0,0.87-0.7,1.57-1.57,1.57c-0.87,0-1.57-0.7-1.57-1.57c0-0.87,0.7-1.57,1.57-1.57
						C452.61,103.43,453.32,104.14,453.32,105.01z"/>
				</g>
				<g>
					<path class="st7" d="M425.37,94.75c0,0.87-0.7,1.57-1.57,1.57c-0.87,0-1.57-0.7-1.57-1.57c0-0.87,0.7-1.57,1.57-1.57
						C424.67,93.18,425.37,93.88,425.37,94.75z"/>
				</g>
				<g>
					<path class="st7" d="M443.39,103.32c0,0.87-0.7,1.57-1.57,1.57c-0.87,0-1.57-0.7-1.57-1.57c0-0.87,0.7-1.57,1.57-1.57
						C442.68,101.74,443.39,102.45,443.39,103.32z"/>
				</g>
			</g>
		</g>
		<g>
			<g>
				<g>
					<path class="st7" d="M349.43,183.57c0,0.87-0.7,1.57-1.57,1.57c-0.87,0-1.57-0.7-1.57-1.57c0-0.87,0.7-1.57,1.57-1.57
						C348.73,182,349.43,182.7,349.43,183.57z"/>
				</g>
				<g>
					<path class="st7" d="M358.55,190.51c0,0.87-0.7,1.57-1.57,1.57c-0.87,0-1.57-0.7-1.57-1.57c0-0.87,0.7-1.57,1.57-1.57
						C357.85,188.93,358.55,189.64,358.55,190.51z"/>
				</g>
				<g>
					<path class="st7" d="M368.42,197c0,0.87-0.7,1.57-1.57,1.57s-1.57-0.7-1.57-1.57c0-0.87,0.7-1.57,1.57-1.57
						S368.42,196.13,368.42,197z"/>
				</g>
				<g>
					<path class="st7" d="M380.45,203.57c0,0.87-0.7,1.57-1.57,1.57s-1.57-0.7-1.57-1.57c0-0.87,0.7-1.57,1.57-1.57
						S380.45,202.7,380.45,203.57z"/>
				</g>
				<g>
					<path class="st7" d="M393.62,208.77c0,0.87-0.7,1.57-1.57,1.57c-0.87,0-1.57-0.7-1.57-1.57c0-0.87,0.7-1.57,1.57-1.57
						C392.91,207.19,393.62,207.9,393.62,208.77z"/>
				</g>
			</g>
		</g>
		<g>
			<path class="st11" d="M363.1,245.67c10.54-22.64-19.89-42.57-35.93-23.43c-3.14,3.75-5.91,9-7.87,16.28
				c-9.44,34.97-3.6,46.03-3.6,46.03s17.94-1.63,39.62-27.14C358.8,253.32,361.37,249.4,363.1,245.67z"/>
			<path class="st2" d="M357.44,236.61c6.05-12.99-11.41-24.43-20.62-13.45c-1.8,2.15-3.39,5.16-4.52,9.35
				c-5.42,20.07-2.07,26.42-2.07,26.42s10.29-0.93,22.74-15.57C354.97,240.99,356.44,238.75,357.44,236.61z"/>
		</g>
	</g>
	<g>
		<g>
			<g>
				<path class="st22" d="M186.68,288.35c0,0,16.14,60.79,16.36,78.25c0.21,17.47-7.53,75.14-7.53,75.14h-15.61
					c0,0,0.52-65.4-0.93-76.7s-9.72-40.3-9.72-40.3s-3,78.76-9.45,116.99H144.3c0,0-2.31-104.11-0.78-153.39H186.68z"/>
				<line class="st23" x1="146.77" y1="441.74" x2="148.36" y2="292.38"/>
				<g>
					<path class="st24" d="M174.92,317.52c-0.26,0.77-0.62,1.46-1.02,2.12c-0.39,0.67-0.84,1.29-1.3,1.9
						c-0.48,0.6-0.98,1.18-1.53,1.72c-0.55,0.54-1.14,1.06-1.82,1.49c0.26-0.77,0.62-1.46,1.02-2.12c0.39-0.67,0.84-1.29,1.31-1.9
						c0.48-0.59,0.98-1.18,1.53-1.72C173.65,318.47,174.23,317.95,174.92,317.52z"/>
				</g>
				<path class="st23" d="M171.98,321.27c0,0,9.55,31.18,10.44,43.78s-0.55,76.7-0.55,76.7"/>
			</g>
			<g>
				<path class="st25" d="M216.92,289.79c1.8-2.32,5.82-0.99,8.73-1.49c0.36-0.06,0.74-0.12,1.09,0c0.66,0.23,0.94,1.01,1.13,1.68
					c0.07,0.25,0.13,0.53-0.01,0.74c-0.1,0.15-0.29,0.21-0.46,0.27c-1.14,0.37-2.31,0.66-3.49,0.85c2.21,1.6,4.5,3.23,7.14,3.87
					c0.96,0.23,2.09,0.43,2.55,1.31c0.18,0.34,0.22,0.73,0.21,1.11c-0.03,2.42-1.97,4.65-4.36,5.02c-1.51,0.24-3.05-0.2-4.48-0.76
					c-4.12-1.61-7.82-4.31-10.62-7.74c-0.07-0.09-0.14-0.18-0.15-0.29c-0.01-0.13,0.07-0.24,0.15-0.33
					C215.36,292.71,215.9,291.11,216.92,289.79z"/>
			</g>
			<g>
				<path class="st25" d="M145.82,300.94c2.8-1.19,5.8,1.99,8.7,2.98c0.36,0.12,0.74,0.26,0.99,0.54c0.49,0.54,0.36,1.37,0.19,2.07
					c-0.06,0.26-0.14,0.54-0.38,0.66c-0.17,0.08-0.37,0.05-0.55,0.02c-1.22-0.23-2.43-0.55-3.6-0.97c1.22,2.53,2.5,5.13,4.59,7.02
					c0.76,0.68,1.69,1.42,1.68,2.44c-0.01,0.39-0.17,0.77-0.36,1.11c-1.23,2.16-4.1,3.21-6.46,2.36c-1.49-0.54-2.68-1.69-3.71-2.91
					c-2.95-3.49-4.99-7.75-5.85-12.23c-0.02-0.11-0.04-0.24,0.01-0.34c0.06-0.12,0.18-0.18,0.3-0.23
					C142.95,302.79,144.23,301.61,145.82,300.94z"/>
			</g>
			<path class="st26" d="M165.62,162.64c0,0,7.89-1.24,11.46,7.17c3.56,8.4,4.27,25.95-6.86,25.71c-11.13-0.25-15.68-8.9-15.68-8.9
				s-5.46-2.22-4.77-5.68c0.7-3.46,3.19-2.44,3.19-2.44S150.79,162.88,165.62,162.64z"/>
			<path class="st26" d="M170.6,185.72l4.53,16.93l5.98,3.58c0,0-4.01,15.57-12.42,15.57c-8.4,0-15.4-16.44-15.4-16.44l5.63-2.88
				l1.05-16.77H170.6z"/>
			<path class="st27" d="M173.93,198.19l-0.83-3.08c0,0-3.99,1.16-8.8-0.76C164.31,194.34,168.43,197.59,173.93,198.19z"/>
			<g>
				<path class="st10" d="M152.61,178.92c1.8-0.51,1.96,3.16,2.94,4.73c0.15,0.25,0.34,0.52,0.63,0.58
					c0.35,0.07,0.69-0.23,0.78-0.57c0.1-0.34,0.02-0.7-0.05-1.04c-0.55-2.92-0.31-5.98,0.7-8.77c0.05-0.13,0.11-0.28,0.24-0.33
					c0.12-0.05,0.26,0,0.38,0.05c3.11,1.14,6.54,0.67,9.81,0.18c1.92-0.29,3.85-0.58,5.69-1.17c3.76-1.21,7.17-3.84,8.56-7.47
					c0.31-0.82,0.49-1.85-0.13-2.49c-0.46-0.49-1.22-0.58-1.9-0.56c-1.14,0.02-2.27,0.23-3.33,0.62c-0.15-1.39-1.09-2.69-2.39-3.28
					c-1.3-0.59-2.91-0.46-4.07,0.33c-0.2,0.14-0.4,0.29-0.64,0.33c-0.35,0.06-0.69-0.15-1.02-0.31c-1.55-0.77-3.4-0.52-5.09-0.18
					c-2.9,0.6-5.79,1.47-8.26,3.06c-2.47,1.6-4.49,4-5.12,6.84c-0.37,1.67-0.25,3.41-0.13,5.12c0.08,1.1,0.16,2.2,0.24,3.3
					c0.02,0.23,0.04,0.46,0.16,0.65C150.96,179.06,152.02,179.08,152.61,178.92z"/>
			</g>
			<path class="st2" d="M179.22,204.91c-2-0.72-2.86,7.38-13.49,6.63c-5.57-0.39-8.23-7.93-9.29-7.79
				c-3.45,0.47-7.92,0.36-11.26,2.98c-3.34,2.62-5.6,6.35-7.64,10.09c-3.83,7.04-7.09,14.37-10.35,21.7
				c-1.31,2.94-2.62,5.9-3.37,9.03c-2.89,12.09,2.96,25.8,8.63,36.97c2.73,5.39,2.83,10.78,5.56,16.17c0.6,1.18,1.39,2.22,2.26,3.22
				c1.33,1.53,5.8,0.07,8.25-1.95c2.33-1.93,0.69-6.49-0.16-9.58c12.15,0.93,25.27,0.32,37.1-2.41c0.79-0.18,1.66-0.43,2.08-1.12
				c0.31-0.5,0.31-1.13,0.29-1.72c-0.13-6.53-0.45-13.06-0.97-19.57c1.76,4.3,3.82,8.53,6.66,12.22c2.82,3.66,6.35,6.71,9.85,9.72
				c2.8,2.41,5.89,4.53,9.46,5.42c3.3,0.82,6.98-5.57,6.84-6.66c-0.25-1.89-2.11-3.15-3.55-4.42c-3.55-3.15-6.55-6.92-8.82-11.09
				c-4.27-7.86-5.83-16.83-7.32-25.62c-1-5.86-1.99-11.73-2.99-17.59c-0.59-3.46-1.19-6.97-2.72-10.14
				C191.23,213.04,188.68,208.32,179.22,204.91z"/>
			<path class="st28" d="M148.36,292.38c0,0-4.58-15.58-10.07-40.54c0,0,5.68-10.88,9.37-17.55"/>
			<path class="st28" d="M186.87,267.57c0,0-0.66-17.71-2.3-31.06"/>
			<path class="st28" d="M179.03,204.69c0,0-3.62,6.87-10.77,6.87s-11.83-7.79-11.83-7.79"/>
			<g>
				<polygon class="st10" points="194.06,441.74 218.21,449.65 180.07,449.65 180.55,441.74 				"/>
				<polygon class="st10" points="158.81,441.74 183.6,449.65 144.45,449.65 144.94,441.74 				"/>
			</g>
			<g>
				<path class="st12" d="M174.48,187.12l-9.28-0.99c0,0,0.87,5.19,4.7,5.56C173.73,192.06,174.48,187.12,174.48,187.12z"/>
				<g>
					<path class="st29" d="M171.46,178.92c1.07,1.64,2.12,3.81,1.52,5.8c-0.62,1.22-2.46,0.87-3.14,0.07
						c0.9,0.18,1.89,0.3,2.31-0.43C172.32,182.56,171.57,180.75,171.46,178.92L171.46,178.92z"/>
				</g>
				<g>
					<g>
						<path class="st10" d="M165.7,180.28c-0.06-0.46,0.09-0.99,0.49-1.35c0.38-0.38,0.94-0.52,1.44-0.52
							c0.49,0,1.04,0.14,1.44,0.51c0.4,0.36,0.56,0.91,0.46,1.37c-0.2-0.43-0.5-0.72-0.81-0.9c-0.33-0.16-0.69-0.24-1.09-0.23
							c-0.39-0.01-0.75,0.06-1.07,0.24C166.22,179.57,165.92,179.87,165.7,180.28z"/>
					</g>
					<path class="st30" d="M165.25,176.97c0,0,1.17-0.91,3.18-0.58"/>
				</g>
				<g>
					<g>
						<path class="st10" d="M173.82,179.8c-0.06-0.46,0.09-0.99,0.49-1.36c0.38-0.38,0.94-0.52,1.44-0.53
							c0.49,0,1.04,0.14,1.44,0.51c0.4,0.36,0.56,0.91,0.46,1.37c-0.19-0.43-0.5-0.73-0.81-0.9c-0.33-0.16-0.69-0.24-1.09-0.23
							c-0.39-0.01-0.75,0.06-1.07,0.24C174.35,179.08,174.05,179.39,173.82,179.8z"/>
					</g>
					<path class="st30" d="M177.48,176.6c0,0-1.24-0.81-3.22-0.33"/>
				</g>
				<g>
					<path class="st31" d="M152.27,180.28c-1.09,0.21-1.05,1.03-0.71,1.84c0.31,0.77,0.89,1.4,1.71,1.95
						c-1,0.04-2.01-0.68-2.41-1.67C150.37,181.36,150.84,179.76,152.27,180.28L152.27,180.28z"/>
				</g>
			</g>
		</g>
		<g>
			<g>
				<path class="st25" d="M434.63,291.28c-1.53-2.26-5.29-1.19-7.94-1.78c-0.33-0.07-0.67-0.15-1-0.05
					c-0.62,0.19-0.92,0.9-1.13,1.53c-0.08,0.23-0.15,0.49-0.03,0.69c0.09,0.14,0.25,0.21,0.41,0.27c1.03,0.4,2.08,0.72,3.16,0.95
					c-2.12,1.4-4.31,2.83-6.78,3.31c-0.89,0.18-1.94,0.31-2.41,1.11c-0.18,0.31-0.24,0.68-0.26,1.04c-0.11,2.27,1.55,4.45,3.72,4.9
					c1.37,0.29,2.82-0.06,4.16-0.52c3.88-1.33,7.43-3.69,10.2-6.79c0.07-0.08,0.14-0.16,0.15-0.27c0.01-0.12-0.05-0.22-0.12-0.32
					C435.91,294.08,435.5,292.56,434.63,291.28z"/>
			</g>
			<g>
				<path class="st22" d="M475.85,303.08c0,0-0.4,45.41-1.52,58.27c-1.12,12.86-2.57,81.48-2.57,81.48h13.98
					c0,0,12.03-70.45,14.38-115.78l8.59,115.78h13.78c0,0,6.55-94.49-0.54-139.75H475.85z"/>
				<g>
					<path class="st24" d="M497.63,319.62c0.89,1.08,1.41,2.28,1.85,3.51c0.2,0.62,0.38,1.25,0.49,1.9
						c0.12,0.65,0.19,1.31,0.15,2.02c-0.46-0.53-0.8-1.11-1.1-1.7c-0.3-0.59-0.54-1.2-0.75-1.81
						C497.87,322.29,497.57,321.02,497.63,319.62z"/>
				</g>
				<path class="st32" d="M498.87,323.34c0,0-6.28,81.67-13.14,119.49"/>
				<path class="st32" d="M520.5,442.83c0,0,7.56-100.99-1.56-139.52"/>
			</g>
			<path class="st10" d="M490.81,190.23l-3.78,30.34c-0.87,6.96,4.56,13.11,11.58,13.11h10.57c7.2,0,12.68-6.45,11.52-13.55
				l-4.19-25.65L490.81,190.23z"/>
			<path class="st26" d="M502.06,183.08c-5.23-0.24-9.95,3.43-11.36,8.52c-1.68,6.09-4.26,18.8,3.82,22.35
				c10.59,4.65,18.58-6.68,18.58-6.68s3.34-2.79,2.77-7.17c-0.57-4.38-3.05-1.84-3.05-1.84s1.32-14.06-9.79-15.12
				C502.7,183.11,502.38,183.09,502.06,183.08z"/>
			<path class="st26" d="M495.59,208.32l-1.61,14.05l-8.58,3.44c0,0,4.34,12.94,14.22,12.94c9.88,0,15.58-13.17,15.58-13.17
				l-7.71-3.14l-1.27-17.92L495.59,208.32z"/>
			<path class="st33" d="M494.92,214.12c0,0,3.43,1.59,8.6,0.35c0,0-1.52,3.22-8.95,2.77L494.92,214.12z"/>
			<path class="st10" d="M490.06,188.51c0,0-0.55,3.49,2.7,4.55c3.08,1,7.75,10.35,17.42,8.71c0.99-0.17,1.82-0.91,2.13-1.88
				l0.52-1.63c0,0,2.15-2.35,3.05,1.84c0,0,4.43-17.11-9.99-20.08C491.46,177.05,490.06,188.51,490.06,188.51z"/>
			<path class="st12" d="M479.66,303.08c1.2-38.13,9.53-78.83,9.53-78.83s4.03,13.21,10.23,13.21c7.24,0,12.51-13.53,12.51-13.53
				l4.72,79.15c0,0-5.94,5.28-20.63,5.28C481.33,308.37,479.66,303.08,479.66,303.08z"/>
			<g>
				<g>
					<g>
						<path class="st2" d="M492.07,231.01c-1.55-2.87-1.56-3.83-2.45-6.3l-0.42-0.46c0,0-2.71,0.73-2.71,0.73c0.01,0,0.01,0,0,0
							c-0.01,0,0.01-0.01,0,0l-2.11,0.85c-2,0.81-3.76,2.13-5.03,3.88c-5.98,8.24-8.21,26.13-8.21,26.13l0-0.01
							c-0.34,1.23-0.65,2.47-0.93,3.72c-1.12,5.15,0.46,7.52-8.34,14.57c-1.57,1.26-3.15,2.49-5,3.3
							c-6.92,3.03-13.84,6.06-20.76,9.09c-0.61,0.27-1.18,0.63-1.67,1.07c-1.98,1.77-1.48,1.53-1.32,4.23
							c0.06,1.04-0.36,5.52,0.26,6.36c0.95,1.3,2.89,1.4,4.49,1.35c8.34-0.28,16.18-3.84,23.77-7.33c3.02-1.39,5.98-2.73,8.97-4.1
							c-0.79,15.45-1.17,28.41-1.17,28.41c0.14,4.26,0.28,8.51,0.42,12.77c0.04,1.13,0.13,2.39,0.95,3.14
							c0.6,0.55,1.47,0.71,2.29,0.83c2.27,0.33,4.56,0.6,6.85,0.8c0.41,0.03,0.84,0.06,1.2-0.14c0.58-0.32,0.73-1.07,0.82-1.71
							c1.36-9.9,2.72-19.9,1.89-29.79c-0.23-2.73,0.46-10.25,0.42-13c-0.06-4.79-0.1-4.74,0.39-9.52
							c1.13-11.16-0.72-22.63,2.58-33.42c1.09-3.58,2.73-6.98,4.45-10.31c0.33-0.64,1.91-2.03,1.83-2.73
							C493.45,232.59,492.46,231.73,492.07,231.01z"/>
					</g>
				</g>
			</g>
			<g>
				<path class="st2" d="M511.93,223.93c6.74,1.18,8.86,2.99,13.13,8.25c5.01,6.17,7.24,16.57,7.86,24.61
					c1.61,20.72,3.13,34.18,4.24,58.58c0.02,0.36-0.05,0.73-0.21,1.06c-0.32,0.63-1.06,0.92-1.75,1.05c-2.49,0.5-5-0.18-7.51-0.37
					c-0.45-0.03-0.93-0.05-1.34,0.16c-1.55,0.77-0.69,7.78-0.81,9.49c-0.19,2.65-3.43,3.92-6.08,4.18c-3.06,0.3-6.15,0.14-9.14-0.48
					c-0.43-0.09-0.88-0.2-1.18-0.52c-0.38-0.4-0.4-1.02-0.41-1.58c-0.16-16.17-0.33-32.35,0.5-48.53
					c0.38-7.51,0.97-15.07,0.19-22.51c-0.27-2.53-0.69-5.05-0.83-7.59c-0.27-4.92-0.68-6.07-1.12-10.97
					c-0.06-0.67-0.77-5.51-0.55-6.16c0.16-0.48,0.48-0.89,0.8-1.29c1.73-2.23,2.19-4.5,3.92-6.72L511.93,223.93z"/>
			</g>
			<polygon class="st10" points="473.26,442.83 452.37,449.65 485.13,449.65 484.51,442.83 			"/>
			<polygon class="st10" points="510.36,442.83 489.47,449.65 522.24,449.65 521.61,442.83 			"/>
			<path class="st34" d="M526.21,322c0,0-0.19-42.85-4.18-69.97"/>
			<g>
				<path class="st25" d="M529.63,316.93c-2.69-0.49-3.18,1.6-5.39,3.3c-0.27,0.21-0.56,0.44-0.7,0.75
					c-0.27,0.6,0.08,1.27,0.42,1.81c0.12,0.2,0.27,0.42,0.51,0.44c0.17,0.02,0.33-0.07,0.48-0.15c0.99-0.56,1.93-1.19,2.82-1.89
					c-0.34,2.51-0.7,5.09-1.97,7.3c-0.46,0.8-1.05,1.71-0.75,2.56c0.12,0.33,0.36,0.6,0.62,0.83c1.66,1.46,4.43,1.49,6.22,0.07
					c1.13-0.9,1.83-2.23,2.37-3.56c1.56-3.83,2.43-7.47,1.91-11.51c-0.01-0.1-0.03-0.21-0.1-0.28c-0.08-0.08-0.22-0.15-0.32-0.1
					C535.14,316.76,532.15,317.39,529.63,316.93z"/>
			</g>
			<path class="st34" d="M489.32,224.18c0,0,3.6,13.28,10.34,13.28c6.74,0,12.27-13.53,12.27-13.53"/>
			<g>
				<path class="st12" d="M494.98,208.1l8.44-0.96c0,0-0.66,5.32-4.38,5.32C495.34,212.47,494.98,208.1,494.98,208.1z"/>
				<g>
					<path class="st33" d="M498.14,200.24c-0.06,0.73-0.18,1.43-0.3,2.11c-0.11,0.69-0.26,1.36-0.33,2.01
						c-0.05,0.33-0.05,0.64-0.03,0.91c0.01,0.05,0.02,0.11,0.03,0.16c0.01,0.05,0.03,0.05,0.04,0.09c0.07,0.08,0.17,0.18,0.28,0.24
						c0.45,0.27,1.17,0.24,1.88,0.09c-0.51,0.5-1.29,0.9-2.18,0.63c-0.22-0.07-0.41-0.18-0.59-0.34c-0.09-0.11-0.2-0.23-0.25-0.35
						l-0.12-0.34c-0.08-0.43-0.07-0.83-0.03-1.2c0.1-0.75,0.3-1.45,0.58-2.12C497.36,201.47,497.69,200.82,498.14,200.24z"/>
				</g>
				<g>
					<g>
						<path class="st10" d="M504.12,200.91c-0.22-0.39-0.51-0.68-0.82-0.85c-0.31-0.17-0.65-0.23-1.02-0.22
							c-0.38-0.01-0.72,0.06-1.03,0.21c-0.3,0.17-0.59,0.45-0.78,0.85c-0.1-0.44,0.04-0.97,0.43-1.32c0.38-0.36,0.91-0.49,1.38-0.5
							c0.48,0,1.02,0.14,1.38,0.51C504.04,199.95,504.19,200.46,504.12,200.91z"/>
					</g>
					<path class="st30" d="M504.55,197.73c0,0-1.12-0.87-3.04-0.56"/>
				</g>
				<g>
					<g>
						<path class="st10" d="M494.98,200.8c-0.22-0.39-0.51-0.68-0.82-0.85c-0.31-0.17-0.65-0.23-1.02-0.22
							c-0.38-0.01-0.72,0.06-1.03,0.21c-0.3,0.17-0.59,0.45-0.78,0.85c-0.1-0.44,0.04-0.97,0.43-1.32c0.38-0.36,0.91-0.49,1.38-0.5
							c0.48,0,1.02,0.14,1.38,0.51C494.9,199.84,495.05,200.36,494.98,200.8z"/>
					</g>
					<path class="st30" d="M491.49,197.74c0,0,1.19-0.78,3.08-0.31"/>
				</g>
				<g>
					<path class="st33" d="M514,199.76c0.7,0.61,0.95,1.64,0.79,2.57c-0.1,0.46-0.27,0.92-0.55,1.29c-0.26,0.38-0.62,0.68-1.01,0.91
						c0.18-0.42,0.35-0.81,0.5-1.19c0.15-0.38,0.25-0.76,0.33-1.14c0.08-0.38,0.09-0.77,0.09-1.17
						C514.12,200.63,514.09,200.21,514,199.76z"/>
				</g>
			</g>
			<path class="st34" d="M470.67,288.08c0,0,2.47-19.06,5.2-34.53"/>
			<path class="st34" d="M526.02,317.03c0,0,7.61,1.69,11.47-1.12"/>
		</g>
	</g>
</g>
</svg>
